<mxfile host="app.diagrams.net" agent="Mozilla/5.0 (Windows NT 10.0; Win64; x64) AppleWebKit/537.36 (KHTML, like Gecko) Chrome/134.0.0.0 Safari/537.36 Edg/134.0.0.0" version="26.1.1">
  <diagram name="Page-1" id="Fs_TDVAu-PnvG0CvKF6J">
    <mxGraphModel dx="1426" dy="781" grid="1" gridSize="10" guides="1" tooltips="1" connect="1" arrows="1" fold="1" page="1" pageScale="1" pageWidth="850" pageHeight="1100" math="0" shadow="0">
      <root>
        <mxCell id="0" />
        <mxCell id="1" parent="0" />
        <mxCell id="TRhWoTdORYvuP8BCEGIG-2" value="User Inputs&lt;div&gt;Layer&lt;/div&gt;" style="rounded=0;whiteSpace=wrap;html=1;" vertex="1" parent="1">
          <mxGeometry x="190" y="180.74" width="90" height="60" as="geometry" />
        </mxCell>
        <mxCell id="TRhWoTdORYvuP8BCEGIG-3" value="" style="edgeStyle=orthogonalEdgeStyle;rounded=0;orthogonalLoop=1;jettySize=auto;html=1;exitX=0.484;exitY=0.031;exitDx=0;exitDy=0;exitPerimeter=0;" edge="1" parent="1" source="TRhWoTdORYvuP8BCEGIG-4" target="TRhWoTdORYvuP8BCEGIG-19">
          <mxGeometry relative="1" as="geometry" />
        </mxCell>
        <mxCell id="TRhWoTdORYvuP8BCEGIG-4" value="" style="rounded=0;whiteSpace=wrap;html=1;rotation=90;" vertex="1" parent="1">
          <mxGeometry x="276.56" y="179.05" width="180" height="68.38" as="geometry" />
        </mxCell>
        <mxCell id="TRhWoTdORYvuP8BCEGIG-5" value="" style="shape=image;verticalLabelPosition=bottom;labelBackgroundColor=default;verticalAlign=top;aspect=fixed;imageAspect=0;editableCssRules=.*;image=data:image/svg+xml,PHN2ZyB4bWxucz0iaHR0cDovL3d3dy53My5vcmcvMjAwMC9zdmciIHJvbGU9ImltZyIgdmlld0JveD0iNC42MDk5OTk2NTY2NzcyNDYgLTIuMzg0MTg1NzkxMDE1NjI1ZS03IDE0Ljc4MTk5ODYzNDMzODM3OSAyNCIgaGVpZ2h0PSI4MDAiIHdpZHRoPSI0OTIuNzMzMjg3ODExMjc5MyIgZmlsbD0iIzAwMDAwMCI+PHRpdGxlPkFwYWNoZSBLYWZrYSBpY29uPC90aXRsZT48cGF0aCBkPSJNMTYuMjYyLDEzLjI5M2MtMC45MzUsMC0xLjc3MiwwLjQxNC0yLjM0NiwxLjA2NmwtMS40Ny0xLjA0MWMwLjE1Ni0wLjQzLDAuMjQ2LTAuODkxLDAuMjQ2LTEuMzc0IGMwLTAuNDc1LTAuMDg2LTAuOTI4LTAuMjM3LTEuMzUybDEuNDY3LTEuMDNjMC41NzQsMC42NDksMS40MDksMS4wNiwyLjM0MSwxLjA2YzEuNzI1LDAsMy4xMjktMS40MDMsMy4xMjktMy4xMjkgcy0xLjQwNC0zLjEyOS0zLjEyOS0zLjEyOXMtMy4xMjksMS40MDMtMy4xMjksMy4xMjljMCwwLjMwOSwwLjA0NywwLjYwNywwLjEzLDAuODg5bC0xLjQ2OCwxLjAzIEMxMS4xODMsOC42NTMsMTAuMyw4LjEyMSw5LjI5NCw3Ljk1OVY2LjE5YzEuNDE3LTAuMjk4LDIuNDg1LTEuNTU3LDIuNDg1LTMuMDYxQzExLjc3OSwxLjQwMywxMC4zNzUsMCw4LjY1LDAgUzUuNTIyLDEuNDAzLDUuNTIyLDMuMTI5YzAsMS40ODQsMS4wNCwyLjcyOCwyLjQyOSwzLjA0N3YxLjc5MmMtMS44OTUsMC4zMzMtMy4zNDEsMS45ODctMy4zNDEsMy45NzYgYzAsMS45OTksMS40NiwzLjY1OSwzLjM3LDMuOTgxdjEuODkyYy0xLjQwMywwLjMwOC0yLjQ1NywxLjU2LTIuNDU3LDMuMDU0QzUuNTIyLDIyLjU5Nyw2LjkyNSwyNCw4LjY1LDI0czMuMTI5LTEuNDAzLDMuMTI5LTMuMTI5IGMwLTEuNDk1LTEuMDU0LTIuNzQ2LTIuNDU3LTMuMDU0di0xLjg5MmMwLjk2Ni0wLjE2MywxLjg0LTAuNjcxLDIuNDYtMS40MzFsMS40OCwxLjA0OGMtMC4wODIsMC4yNzktMC4xMjgsMC41NzQtMC4xMjgsMC44OCBjMCwxLjcyNSwxLjQwNCwzLjEyOSwzLjEyOSwzLjEyOXMzLjEyOS0xLjQwMywzLjEyOS0zLjEyOVMxNy45ODcsMTMuMjkzLDE2LjI2MiwxMy4yOTN6IE0xNi4yNjIsNS45NzcgYzAuODM3LDAsMS41MTcsMC42ODEsMS41MTcsMS41MTdzLTAuNjgsMS41MTctMS41MTcsMS41MTdjLTAuODM2LDAtMS41MTctMC42ODEtMS41MTctMS41MTdTMTUuNDI2LDUuOTc3LDE2LjI2Miw1Ljk3N3ogTTcuMTMzLDMuMTI5YzAtMC44MzYsMC42OC0xLjUxNywxLjUxNy0xLjUxN3MxLjUxNywwLjY4MSwxLjUxNywxLjUxN1M5LjQ4Nyw0LjY0Niw4LjY1LDQuNjQ2UzcuMTMzLDMuOTY1LDcuMTMzLDMuMTI5eiBNMTAuMTY3LDIwLjg3MWMwLDAuODM2LTAuNjgsMS41MTctMS41MTcsMS41MTdzLTEuNTE3LTAuNjgxLTEuNTE3LTEuNTE3czAuNjgtMS41MTcsMS41MTctMS41MTdTMTAuMTY3LDIwLjAzNSwxMC4xNjcsMjAuODcxeiBNOC42NSwxNC4wNmMtMS4xNjcsMC0yLjExNi0wLjk0OS0yLjExNi0yLjExNmMwLTEuMTY3LDAuOTQ5LTIuMTE2LDIuMTE2LTIuMTE2YzEuMTY3LDAsMi4xMTYsMC45NDksMi4xMTYsMi4xMTYgQzEwLjc2NiwxMy4xMTEsOS44MTcsMTQuMDYsOC42NSwxNC4wNnogTTE2LjI2MiwxNy45MzljLTAuODM3LDAtMS41MTctMC42ODEtMS41MTctMS41MTdjMC0wLjgzNiwwLjY4LTEuNTE3LDEuNTE3LTEuNTE3IHMxLjUxNywwLjY4MSwxLjUxNywxLjUxN0MxNy43NzksMTcuMjU4LDE3LjA5OSwxNy45MzksMTYuMjYyLDE3LjkzOXoiLz48L3N2Zz4=;" vertex="1" parent="1">
          <mxGeometry x="361.33" y="143.24" width="12.33" height="20" as="geometry" />
        </mxCell>
        <mxCell id="TRhWoTdORYvuP8BCEGIG-6" value="" style="shape=image;verticalLabelPosition=bottom;labelBackgroundColor=default;verticalAlign=top;aspect=fixed;imageAspect=0;editableCssRules=.*;image=data:image/svg+xml,PHN2ZyB4bWxucz0iaHR0cDovL3d3dy53My5vcmcvMjAwMC9zdmciIHJvbGU9ImltZyIgdmlld0JveD0iNC42MDk5OTk2NTY2NzcyNDYgLTIuMzg0MTg1NzkxMDE1NjI1ZS03IDE0Ljc4MTk5ODYzNDMzODM3OSAyNCIgaGVpZ2h0PSI4MDAiIHdpZHRoPSI0OTIuNzMzMjg3ODExMjc5MyIgZmlsbD0iIzAwMDAwMCI+PHRpdGxlPkFwYWNoZSBLYWZrYSBpY29uPC90aXRsZT48cGF0aCBkPSJNMTYuMjYyLDEzLjI5M2MtMC45MzUsMC0xLjc3MiwwLjQxNC0yLjM0NiwxLjA2NmwtMS40Ny0xLjA0MWMwLjE1Ni0wLjQzLDAuMjQ2LTAuODkxLDAuMjQ2LTEuMzc0IGMwLTAuNDc1LTAuMDg2LTAuOTI4LTAuMjM3LTEuMzUybDEuNDY3LTEuMDNjMC41NzQsMC42NDksMS40MDksMS4wNiwyLjM0MSwxLjA2YzEuNzI1LDAsMy4xMjktMS40MDMsMy4xMjktMy4xMjkgcy0xLjQwNC0zLjEyOS0zLjEyOS0zLjEyOXMtMy4xMjksMS40MDMtMy4xMjksMy4xMjljMCwwLjMwOSwwLjA0NywwLjYwNywwLjEzLDAuODg5bC0xLjQ2OCwxLjAzIEMxMS4xODMsOC42NTMsMTAuMyw4LjEyMSw5LjI5NCw3Ljk1OVY2LjE5YzEuNDE3LTAuMjk4LDIuNDg1LTEuNTU3LDIuNDg1LTMuMDYxQzExLjc3OSwxLjQwMywxMC4zNzUsMCw4LjY1LDAgUzUuNTIyLDEuNDAzLDUuNTIyLDMuMTI5YzAsMS40ODQsMS4wNCwyLjcyOCwyLjQyOSwzLjA0N3YxLjc5MmMtMS44OTUsMC4zMzMtMy4zNDEsMS45ODctMy4zNDEsMy45NzYgYzAsMS45OTksMS40NiwzLjY1OSwzLjM3LDMuOTgxdjEuODkyYy0xLjQwMywwLjMwOC0yLjQ1NywxLjU2LTIuNDU3LDMuMDU0QzUuNTIyLDIyLjU5Nyw2LjkyNSwyNCw4LjY1LDI0czMuMTI5LTEuNDAzLDMuMTI5LTMuMTI5IGMwLTEuNDk1LTEuMDU0LTIuNzQ2LTIuNDU3LTMuMDU0di0xLjg5MmMwLjk2Ni0wLjE2MywxLjg0LTAuNjcxLDIuNDYtMS40MzFsMS40OCwxLjA0OGMtMC4wODIsMC4yNzktMC4xMjgsMC41NzQtMC4xMjgsMC44OCBjMCwxLjcyNSwxLjQwNCwzLjEyOSwzLjEyOSwzLjEyOXMzLjEyOS0xLjQwMywzLjEyOS0zLjEyOVMxNy45ODcsMTMuMjkzLDE2LjI2MiwxMy4yOTN6IE0xNi4yNjIsNS45NzcgYzAuODM3LDAsMS41MTcsMC42ODEsMS41MTcsMS41MTdzLTAuNjgsMS41MTctMS41MTcsMS41MTdjLTAuODM2LDAtMS41MTctMC42ODEtMS41MTctMS41MTdTMTUuNDI2LDUuOTc3LDE2LjI2Miw1Ljk3N3ogTTcuMTMzLDMuMTI5YzAtMC44MzYsMC42OC0xLjUxNywxLjUxNy0xLjUxN3MxLjUxNywwLjY4MSwxLjUxNywxLjUxN1M5LjQ4Nyw0LjY0Niw4LjY1LDQuNjQ2UzcuMTMzLDMuOTY1LDcuMTMzLDMuMTI5eiBNMTAuMTY3LDIwLjg3MWMwLDAuODM2LTAuNjgsMS41MTctMS41MTcsMS41MTdzLTEuNTE3LTAuNjgxLTEuNTE3LTEuNTE3czAuNjgtMS41MTcsMS41MTctMS41MTdTMTAuMTY3LDIwLjAzNSwxMC4xNjcsMjAuODcxeiBNOC42NSwxNC4wNmMtMS4xNjcsMC0yLjExNi0wLjk0OS0yLjExNi0yLjExNmMwLTEuMTY3LDAuOTQ5LTIuMTE2LDIuMTE2LTIuMTE2YzEuMTY3LDAsMi4xMTYsMC45NDksMi4xMTYsMi4xMTYgQzEwLjc2NiwxMy4xMTEsOS44MTcsMTQuMDYsOC42NSwxNC4wNnogTTE2LjI2MiwxNy45MzljLTAuODM3LDAtMS41MTctMC42ODEtMS41MTctMS41MTdjMC0wLjgzNiwwLjY4LTEuNTE3LDEuNTE3LTEuNTE3IHMxLjUxNywwLjY4MSwxLjUxNywxLjUxN0MxNy43NzksMTcuMjU4LDE3LjA5OSwxNy45MzksMTYuMjYyLDE3LjkzOXoiLz48L3N2Zz4=;" vertex="1" parent="1">
          <mxGeometry x="361.34" y="180.74" width="12.33" height="20" as="geometry" />
        </mxCell>
        <mxCell id="TRhWoTdORYvuP8BCEGIG-7" value="" style="shape=image;verticalLabelPosition=bottom;labelBackgroundColor=default;verticalAlign=top;aspect=fixed;imageAspect=0;editableCssRules=.*;image=data:image/svg+xml,PHN2ZyB4bWxucz0iaHR0cDovL3d3dy53My5vcmcvMjAwMC9zdmciIHJvbGU9ImltZyIgdmlld0JveD0iNC42MDk5OTk2NTY2NzcyNDYgLTIuMzg0MTg1NzkxMDE1NjI1ZS03IDE0Ljc4MTk5ODYzNDMzODM3OSAyNCIgaGVpZ2h0PSI4MDAiIHdpZHRoPSI0OTIuNzMzMjg3ODExMjc5MyIgZmlsbD0iIzAwMDAwMCI+PHRpdGxlPkFwYWNoZSBLYWZrYSBpY29uPC90aXRsZT48cGF0aCBkPSJNMTYuMjYyLDEzLjI5M2MtMC45MzUsMC0xLjc3MiwwLjQxNC0yLjM0NiwxLjA2NmwtMS40Ny0xLjA0MWMwLjE1Ni0wLjQzLDAuMjQ2LTAuODkxLDAuMjQ2LTEuMzc0IGMwLTAuNDc1LTAuMDg2LTAuOTI4LTAuMjM3LTEuMzUybDEuNDY3LTEuMDNjMC41NzQsMC42NDksMS40MDksMS4wNiwyLjM0MSwxLjA2YzEuNzI1LDAsMy4xMjktMS40MDMsMy4xMjktMy4xMjkgcy0xLjQwNC0zLjEyOS0zLjEyOS0zLjEyOXMtMy4xMjksMS40MDMtMy4xMjksMy4xMjljMCwwLjMwOSwwLjA0NywwLjYwNywwLjEzLDAuODg5bC0xLjQ2OCwxLjAzIEMxMS4xODMsOC42NTMsMTAuMyw4LjEyMSw5LjI5NCw3Ljk1OVY2LjE5YzEuNDE3LTAuMjk4LDIuNDg1LTEuNTU3LDIuNDg1LTMuMDYxQzExLjc3OSwxLjQwMywxMC4zNzUsMCw4LjY1LDAgUzUuNTIyLDEuNDAzLDUuNTIyLDMuMTI5YzAsMS40ODQsMS4wNCwyLjcyOCwyLjQyOSwzLjA0N3YxLjc5MmMtMS44OTUsMC4zMzMtMy4zNDEsMS45ODctMy4zNDEsMy45NzYgYzAsMS45OTksMS40NiwzLjY1OSwzLjM3LDMuOTgxdjEuODkyYy0xLjQwMywwLjMwOC0yLjQ1NywxLjU2LTIuNDU3LDMuMDU0QzUuNTIyLDIyLjU5Nyw2LjkyNSwyNCw4LjY1LDI0czMuMTI5LTEuNDAzLDMuMTI5LTMuMTI5IGMwLTEuNDk1LTEuMDU0LTIuNzQ2LTIuNDU3LTMuMDU0di0xLjg5MmMwLjk2Ni0wLjE2MywxLjg0LTAuNjcxLDIuNDYtMS40MzFsMS40OCwxLjA0OGMtMC4wODIsMC4yNzktMC4xMjgsMC41NzQtMC4xMjgsMC44OCBjMCwxLjcyNSwxLjQwNCwzLjEyOSwzLjEyOSwzLjEyOXMzLjEyOS0xLjQwMywzLjEyOS0zLjEyOVMxNy45ODcsMTMuMjkzLDE2LjI2MiwxMy4yOTN6IE0xNi4yNjIsNS45NzcgYzAuODM3LDAsMS41MTcsMC42ODEsMS41MTcsMS41MTdzLTAuNjgsMS41MTctMS41MTcsMS41MTdjLTAuODM2LDAtMS41MTctMC42ODEtMS41MTctMS41MTdTMTUuNDI2LDUuOTc3LDE2LjI2Miw1Ljk3N3ogTTcuMTMzLDMuMTI5YzAtMC44MzYsMC42OC0xLjUxNywxLjUxNy0xLjUxN3MxLjUxNywwLjY4MSwxLjUxNywxLjUxN1M5LjQ4Nyw0LjY0Niw4LjY1LDQuNjQ2UzcuMTMzLDMuOTY1LDcuMTMzLDMuMTI5eiBNMTAuMTY3LDIwLjg3MWMwLDAuODM2LTAuNjgsMS41MTctMS41MTcsMS41MTdzLTEuNTE3LTAuNjgxLTEuNTE3LTEuNTE3czAuNjgtMS41MTcsMS41MTctMS41MTdTMTAuMTY3LDIwLjAzNSwxMC4xNjcsMjAuODcxeiBNOC42NSwxNC4wNmMtMS4xNjcsMC0yLjExNi0wLjk0OS0yLjExNi0yLjExNmMwLTEuMTY3LDAuOTQ5LTIuMTE2LDIuMTE2LTIuMTE2YzEuMTY3LDAsMi4xMTYsMC45NDksMi4xMTYsMi4xMTYgQzEwLjc2NiwxMy4xMTEsOS44MTcsMTQuMDYsOC42NSwxNC4wNnogTTE2LjI2MiwxNy45MzljLTAuODM3LDAtMS41MTctMC42ODEtMS41MTctMS41MTdjMC0wLjgzNiwwLjY4LTEuNTE3LDEuNTE3LTEuNTE3IHMxLjUxNywwLjY4MSwxLjUxNywxLjUxN0MxNy43NzksMTcuMjU4LDE3LjA5OSwxNy45MzksMTYuMjYyLDE3LjkzOXoiLz48L3N2Zz4=;" vertex="1" parent="1">
          <mxGeometry x="361.34" y="220.74" width="12.33" height="20" as="geometry" />
        </mxCell>
        <mxCell id="TRhWoTdORYvuP8BCEGIG-8" value="" style="shape=image;verticalLabelPosition=bottom;labelBackgroundColor=default;verticalAlign=top;aspect=fixed;imageAspect=0;editableCssRules=.*;image=data:image/svg+xml,PHN2ZyB4bWxucz0iaHR0cDovL3d3dy53My5vcmcvMjAwMC9zdmciIHJvbGU9ImltZyIgdmlld0JveD0iNC42MDk5OTk2NTY2NzcyNDYgLTIuMzg0MTg1NzkxMDE1NjI1ZS03IDE0Ljc4MTk5ODYzNDMzODM3OSAyNCIgaGVpZ2h0PSI4MDAiIHdpZHRoPSI0OTIuNzMzMjg3ODExMjc5MyIgZmlsbD0iIzAwMDAwMCI+PHRpdGxlPkFwYWNoZSBLYWZrYSBpY29uPC90aXRsZT48cGF0aCBkPSJNMTYuMjYyLDEzLjI5M2MtMC45MzUsMC0xLjc3MiwwLjQxNC0yLjM0NiwxLjA2NmwtMS40Ny0xLjA0MWMwLjE1Ni0wLjQzLDAuMjQ2LTAuODkxLDAuMjQ2LTEuMzc0IGMwLTAuNDc1LTAuMDg2LTAuOTI4LTAuMjM3LTEuMzUybDEuNDY3LTEuMDNjMC41NzQsMC42NDksMS40MDksMS4wNiwyLjM0MSwxLjA2YzEuNzI1LDAsMy4xMjktMS40MDMsMy4xMjktMy4xMjkgcy0xLjQwNC0zLjEyOS0zLjEyOS0zLjEyOXMtMy4xMjksMS40MDMtMy4xMjksMy4xMjljMCwwLjMwOSwwLjA0NywwLjYwNywwLjEzLDAuODg5bC0xLjQ2OCwxLjAzIEMxMS4xODMsOC42NTMsMTAuMyw4LjEyMSw5LjI5NCw3Ljk1OVY2LjE5YzEuNDE3LTAuMjk4LDIuNDg1LTEuNTU3LDIuNDg1LTMuMDYxQzExLjc3OSwxLjQwMywxMC4zNzUsMCw4LjY1LDAgUzUuNTIyLDEuNDAzLDUuNTIyLDMuMTI5YzAsMS40ODQsMS4wNCwyLjcyOCwyLjQyOSwzLjA0N3YxLjc5MmMtMS44OTUsMC4zMzMtMy4zNDEsMS45ODctMy4zNDEsMy45NzYgYzAsMS45OTksMS40NiwzLjY1OSwzLjM3LDMuOTgxdjEuODkyYy0xLjQwMywwLjMwOC0yLjQ1NywxLjU2LTIuNDU3LDMuMDU0QzUuNTIyLDIyLjU5Nyw2LjkyNSwyNCw4LjY1LDI0czMuMTI5LTEuNDAzLDMuMTI5LTMuMTI5IGMwLTEuNDk1LTEuMDU0LTIuNzQ2LTIuNDU3LTMuMDU0di0xLjg5MmMwLjk2Ni0wLjE2MywxLjg0LTAuNjcxLDIuNDYtMS40MzFsMS40OCwxLjA0OGMtMC4wODIsMC4yNzktMC4xMjgsMC41NzQtMC4xMjgsMC44OCBjMCwxLjcyNSwxLjQwNCwzLjEyOSwzLjEyOSwzLjEyOXMzLjEyOS0xLjQwMywzLjEyOS0zLjEyOVMxNy45ODcsMTMuMjkzLDE2LjI2MiwxMy4yOTN6IE0xNi4yNjIsNS45NzcgYzAuODM3LDAsMS41MTcsMC42ODEsMS41MTcsMS41MTdzLTAuNjgsMS41MTctMS41MTcsMS41MTdjLTAuODM2LDAtMS41MTctMC42ODEtMS41MTctMS41MTdTMTUuNDI2LDUuOTc3LDE2LjI2Miw1Ljk3N3ogTTcuMTMzLDMuMTI5YzAtMC44MzYsMC42OC0xLjUxNywxLjUxNy0xLjUxN3MxLjUxNywwLjY4MSwxLjUxNywxLjUxN1M5LjQ4Nyw0LjY0Niw4LjY1LDQuNjQ2UzcuMTMzLDMuOTY1LDcuMTMzLDMuMTI5eiBNMTAuMTY3LDIwLjg3MWMwLDAuODM2LTAuNjgsMS41MTctMS41MTcsMS41MTdzLTEuNTE3LTAuNjgxLTEuNTE3LTEuNTE3czAuNjgtMS41MTcsMS41MTctMS41MTdTMTAuMTY3LDIwLjAzNSwxMC4xNjcsMjAuODcxeiBNOC42NSwxNC4wNmMtMS4xNjcsMC0yLjExNi0wLjk0OS0yLjExNi0yLjExNmMwLTEuMTY3LDAuOTQ5LTIuMTE2LDIuMTE2LTIuMTE2YzEuMTY3LDAsMi4xMTYsMC45NDksMi4xMTYsMi4xMTYgQzEwLjc2NiwxMy4xMTEsOS44MTcsMTQuMDYsOC42NSwxNC4wNnogTTE2LjI2MiwxNy45MzljLTAuODM3LDAtMS41MTctMC42ODEtMS41MTctMS41MTdjMC0wLjgzNiwwLjY4LTEuNTE3LDEuNTE3LTEuNTE3IHMxLjUxNywwLjY4MSwxLjUxNywxLjUxN0MxNy43NzksMTcuMjU4LDE3LjA5OSwxNy45MzksMTYuMjYyLDE3LjkzOXoiLz48L3N2Zz4=;" vertex="1" parent="1">
          <mxGeometry x="361.33" y="263.24" width="12.33" height="20" as="geometry" />
        </mxCell>
        <mxCell id="TRhWoTdORYvuP8BCEGIG-9" value="&lt;font style=&quot;font-size: 5px;&quot;&gt;loan_1&lt;/font&gt;" style="text;html=1;align=center;verticalAlign=middle;resizable=0;points=[];autosize=1;strokeColor=none;fillColor=none;fontStyle=1" vertex="1" parent="1">
          <mxGeometry x="347.49" y="150.74" width="40" height="30" as="geometry" />
        </mxCell>
        <mxCell id="TRhWoTdORYvuP8BCEGIG-10" value="&lt;font style=&quot;font-size: 5px;&quot;&gt;loan_2&lt;/font&gt;" style="text;html=1;align=center;verticalAlign=middle;resizable=0;points=[];autosize=1;strokeColor=none;fillColor=none;fontStyle=1" vertex="1" parent="1">
          <mxGeometry x="347.49" y="190.74" width="40" height="30" as="geometry" />
        </mxCell>
        <mxCell id="TRhWoTdORYvuP8BCEGIG-11" value="&lt;font style=&quot;font-size: 5px;&quot;&gt;loan_txn_1&lt;/font&gt;" style="text;html=1;align=center;verticalAlign=middle;resizable=0;points=[];autosize=1;strokeColor=none;fillColor=none;fontStyle=1" vertex="1" parent="1">
          <mxGeometry x="342.49" y="230.74" width="50" height="30" as="geometry" />
        </mxCell>
        <mxCell id="TRhWoTdORYvuP8BCEGIG-12" value="" style="edgeStyle=orthogonalEdgeStyle;rounded=0;orthogonalLoop=1;jettySize=auto;html=1;exitX=0.491;exitY=1.119;exitDx=0;exitDy=0;exitPerimeter=0;" edge="1" parent="1" source="TRhWoTdORYvuP8BCEGIG-13" target="TRhWoTdORYvuP8BCEGIG-16">
          <mxGeometry relative="1" as="geometry" />
        </mxCell>
        <mxCell id="TRhWoTdORYvuP8BCEGIG-13" value="&lt;font style=&quot;font-size: 5px;&quot;&gt;&lt;b&gt;loan_txn_2&lt;/b&gt;&lt;/font&gt;" style="text;html=1;align=center;verticalAlign=middle;resizable=0;points=[];autosize=1;strokeColor=none;fillColor=none;" vertex="1" parent="1">
          <mxGeometry x="342.49" y="270.74" width="50" height="30" as="geometry" />
        </mxCell>
        <mxCell id="TRhWoTdORYvuP8BCEGIG-14" value="" style="html=1;verticalLabelPosition=bottom;align=center;labelBackgroundColor=#ffffff;verticalAlign=top;strokeWidth=2;strokeColor=#004C99;shadow=0;dashed=0;shape=mxgraph.ios7.icons.data;fillColor=light-dark(#FFFFFF,var(--ge-dark-color, #121212));" vertex="1" parent="1">
          <mxGeometry x="495" y="335.74" width="50" height="60" as="geometry" />
        </mxCell>
        <mxCell id="TRhWoTdORYvuP8BCEGIG-15" value="" style="edgeStyle=orthogonalEdgeStyle;rounded=0;orthogonalLoop=1;jettySize=auto;html=1;" edge="1" parent="1" source="TRhWoTdORYvuP8BCEGIG-16" target="TRhWoTdORYvuP8BCEGIG-14">
          <mxGeometry relative="1" as="geometry" />
        </mxCell>
        <mxCell id="TRhWoTdORYvuP8BCEGIG-16" value="" style="shape=image;verticalLabelPosition=bottom;labelBackgroundColor=default;verticalAlign=top;aspect=fixed;imageAspect=0;image=data:image/png,iVBORw0KGgoAAAANSUhEUgAAAKAAAACgCAMAAAC8EZcfAAACUlBMVEUAAAAAf6QAf78AgKoAgL////8AcJ8AcKDP7+/P7//Q7+8AcJ8Ad58AeJ/X7+/X7/cAd58AcJ8AdZ8AdaXU7/Ta7/Ta7/oAdZ8Ac58Ac6MAdKPT7/PW7vLX7/MAdKXY7/nY8vjY8vkAc6IAc6MAdqLW7PLW7/LW7/UAc6QAdqTX7/fZ8ffZ8vcAcqIAdaLU7PTU7/TV7PTX7/QAc6MAdaPY7/bY8fYAcqIAc6MAdKIAdKTW7fTW7fbW7/YAdKMAdKXX7/cAc6EAc6MAdKEAdKMAdKVqr8vV7fXX7/UAdKIAdKQAdaNgq8fW7fbW7/TY7/YAc6EAc6MAdaPW7fTX7/cAc6IAc6PW7fXX7/XX7/cAc6IAdKHW7fTW7fXY7/YAc6MAdaPW7/bY7/YAdKLW7vYAdKPX7/YAdKPX7/XX7/YAdKIAdKMAdKS23OnW7/XY7/YAdKIAdKMAdKS23OnW7/XY7/XY7/YAc6I+l7rX7/YAc6IAc6MAdaM+l7q33Oq43urX7/YAc6LW7/UAc6IAc6MAdKPW7/XX7/bY7/YAdKPJ5/HX7/YAdKMBdKMNfKgOfKgbg60cg60oirIoi7Ioi7MpirIpirMpi7Ipi7M1krc2krc2k7hDmrxDmr1Dm71EmrxQocJQosJRosJRo8Jeqcdeqsdeqshrscxsss15udF5udJ5utKFwdeGwNaGwdeTyNyTydyUyNyUydyg0OGh0OGt2Oau2Oav1+av2Oa73+u73+y83+u83+y84Ou84OzI5vHI5/HJ5/HK5/HW7vbW7/bX7/Z1t2gOAAAAjHRSTlMAAAAAAAAQEBAQECAgICAgITAwMDAwMDFAQEBAQEBPT09PUFBQUFBQX19fX19gYGBgYGBvb29vcHBwcHBwcH9/f4CAgICAgICAj4+Pj4+Pj5CQkJCen5+fn5+goKCgrq+vr6+wsL6+v7+/zs7Ozs7Oz8/Pz8/Pz97e3t/f39/f39/u7u/v7+/v7/7+/jMA3kAAAAtQSURBVHja5Vz7fxRXFZ+WdF3cuFsjPkKMWrSBWgkYqCgWSqC62EprSIMEpUa0WddHbWMEQ6IuCQnG3UzGlljKptCNhM1CXCHZlrwIAnv/Lzc7rzsz5z7mGT4fz0+QTGa/e875fs+5585cQfh/scjXmls7unoGBjJVGxhIJDpad9fXPQrY6po7es5nCHY+0fbMeqKM7O4iYsNQdu1eF5BfaBvIcFv/sfqg0Z3P2LT+Y4H5MbQ7kXFkPc8EAm+/1XlDb3W0Nm+pi0SU3IzU1ze3diWGADfW+gyv9oQZW6JtS4RI8S1tFmf7CtEML3GwPsT8o/rWREAQTcFN7Apx69F2I8b9vkDchcMbOhiyqZnbz+K56D1danEfJBypWn0XzmiPnYhFd+hYxHHpwXN4v0/uOxpycyccYn+tD9nXFXF7Mwzi8He8Ie8PwNwLb9oZ7zx1OpVCVUulksnO+M6GMPuGn9bp8lLIg/D2aMm3V8W2sz05ggg2kmzfGmXcc8+Qd2Gu69fcV41ueGt7CjHt9PGtVFdGtKTu/4w7fNsM7gs/l0Tclvw6zZF7tDC7SsQX1LucjQjhJhvoVIwUJ571QG9e0LUlemAEObDUcaIbQ22uEWr49jYkkWM73kC6/0GXCFV8Q993Aa8aaRLELUNuEKr4pL8i15aMMhJxvwt8d5EXRshF5wh3eYuvYgfoCLfZ1GfP8VUYHaUitKXYtf3e4yM5UUVop+qF/MFHcKKKsIe/c1D6F9FrfAhdeB5CqKjNS3YJMod8sFehxYC9slyr9Kd55IudjhJbh2G+NFQScBr5ZFAiKnU5YUOhpft+AUQXPmulpUKUVo4AK/lwF/lo3yARhSPIb8n4CggFi3APZ5Cb5eveRyhohAkuJislRLyLAkeoBjnEw5CC7/gApuzh4InCEAkFYBeicJBpPIn+WQb4cRAArXqoFJRjZIB/kK/IoWDstPnzlfEX0YWvTgUggbS6HKG78LmVYB1YsefhigcTOTrCduANkbDDIM14QpTQEIXIKSSxHFikbIIUnaWhaYRzgqyFB9SPJztwRaIAvOJJGkaI5SSK0ATLgVO0bSSnxbER0sIEFOA78geVyA6k7nMVnaohqIX11gAr/qEUkSwFnui8OMaNSGSaHLUGWKFIkcWQnM8lT54oDZsA/hShEosikj8rUYROGZUGinFUYwA51Wc4+5yFLGNT1iqZjQBNjDFOsiO8wtnnrIjsfeOb5tkX0HUN1GA/aqhcdIcR4SlOrk5xbGyL92kuVGIcMTmwQI9wiZMhJa6t9+tUFybMWr3mQDRJX6tLnH2OxPdwQInmQpnHvzBQGCGRqtJFzllDkfPphSzNhbJWD2/AKaymIL0IM9fyHNddg3M5am1p6gwOLFJT0CZDaNc9EMHvELcmYbNehbUvNk2VmHeZEsMjRQUwWy7gbdePqld0KP/bgdXZW/A9L3EyJMt1nXw3cdn40y9jAL9aveJtTGNUjnzsqghzXlcCeZK0NIXDNTpFFI6I7oow73VZUGrClo4mgkW4ROEIbxEGr1sp5JfNF66KUKri6yd5i/pLWIQL5K6duwhD182JkLjmoZKMx/gnOo3D+J/kKdIx50hiqlG/aJEaCSrJWIwPVX9/aO2fT8u/zFV/8m/gc2/bK8I5KOqkmxpL8lfMM8AOTaXVvC25L8J3gahf5ONJu1lnqtW4lwHQZhHOcxYWSGpST5g24t7WREb9/sveFmFai3YNyOxPmoRwQE9BIkBXRZiWHVBJ/iYAsF35HamXEV0UYXp2ACUZS0L5l5oKsgBmnRRhVnZYS3ISADjCAJjnEkGwCLOyw8qTvz1hARhGDICE7o2jCLNbNKvUhC0AG1gACd0bRxFmt2hKScZU8nMWgDuYAAndGy9DqAXIUpI1GteoAOOIITOk7o1TYuitl6Ukxy0yc5INkNC98RXhgr3y02kBqD1RNEFuqOHujasIS3zypPXJvzQuPBMYwEnKkiQPD1Q4ijCzRbtkBPhHFeBmFaD2qCK53SJ1bzQ55m3RZk3XpSztVsroJYKY3IYHKs6KMGb3zUxKWRpWU6BytlY5xGS7wdmizVi+nArwZ+r4yOSki7YWimv2AaUIO+gwjKOFzRjAVdqykzhQUQXeXhGmMEnBt0EbzpjblmV7AxXlz+wWYdn+A3w5Q0O9NkfXfzVBG32QS3LBSREmM0l9MFPbzDEHcdrmQKXCrvcn5xzNSWahr2wYHh0VMJlR7pu1OVDhkA7GIgbcdEpoTzzqAO9QxBjna8m2dNjoMBSAj2e0AWavmSUlVvcmeTAhrNiSfN174IRrs77X9HP9l5Mscc3zyO8Un58JTEridaS6bD9p5mnWRvfmYpI4C18nt1s1Pfo2RByZpDpD+XhaSXY0J7EwSW5YP6WnoN7ya39UYC8umeagCMu2A2tlzlb/vclSzmg6ssCHz9kkUdvOqUlgj6aErUpHS7FrXACdFGFs2alEeLNMmBHLFCHP3uOg26STIixvRVgijPX8mn9Ejj0OqjkqwrrKPN5vePio3RpjqoblWZuF75Y4JQaIVLuu0to+2A4rS5nl1p1RZkpPrVFEbqZ/o70cBwRw2QdYDzWjtLMxnSLbBMNGnZEDU95gKl2iZMJ7wB+sLTprThgoYkpCpdyKnjxAvWKbSZ26A7Hn8542yAi7mHFbnoYPLNZPaQ7En1cwJKGyfvckC2mKBLezYciBRiVUO4YrHgBcpYg6WPArKrjB6kBB+C7kwpIHCG+/U73VmMXG4YbkWUH4PPSEaBj63j5rIWgx4bF+wIGmGDNGWT5aUqhR3rM5ZHqurAnqB8TloAE+Kzwpv2dzxvwOeHgEYl/QQU4JjyVI79fFwb454CB31nxb/tzfWh8OjYH6EHCQY09mQIYANFF54uMrQ4ADP9EPM6RqjfDi6HqAAL+ovMl3Bn5GPgkXgeDS8Fffkz/xHOEUh0ZCHS0FBfCH6pvgpNcgkvDyLSii/EV50/Bl4nskZhc+UJpNKRCES8pC5wzlbaZT5l5ECg6hho92jEhshDBF8B+him+UfupVnDCo8h2hio9MEGD1ZOjZ/UWo4TvEeiOxEa0HQn58pvWdAaE45xe+eZEfnxDuJa/MZnyBV76RsYEPYDKG8LoPncN//2UPnyDso6xuvU9ELf1GefFBaYgtb296HF41/Ua32zj/oReY+2oDt6yHTlzS5t1nbJ1KGAOOM1rVEIo3PXdf5tc2j8kCiIIe6KNpyYvXZsvzmvtGX7Z9rNUm6OCggj7GmHIb5/LSB9rNzu0V7FsLOGjBJr+uIJbvXdfv9IazU9BamNM0xxDLS1N6LM696PQoJhjh6j9xiE4WAw/nsa2q0TdcHCIHI0RFfMIvFZdtxnYGn8c5yj4GUypONE5Ns9wYy/cKhn2+cy+6PZMuRjjebTVnejUpX3pYLlOxle/Nzxh3Icf+5PqIwArCXsQHsQJy+tZHIMpy+eHiremsadI6lvtdzJNTB9uJs92cdbdJzF7Jz87PLy7KeyGLix/dms1PXbROgcfzf3/Fq2Mb95HPeiu+4+ik3bHLhfuD+7w7+DJGOWdwISfZRTc+XdGm38cEL+0wdScp948xbnTSGjqUfmWj4K3F6Ic1LhSujo8xUI6NjV8tyHrU1yh4b4dZGrdQnL4Mo1zbcZiYLi4oFw4eFnyx2EkOJV4oFfIfXr4sSfJOiCRNXP0wX7yNCXn69Zjgl8WSrlvAdHej4Kc1Jh9peFWIJx9peHIuppygGzwcEwKzFpuRTqe7t24UArUYP8YKum8FjE62jU0/fjOdZoHrO9K0LuhURzYd6R5MQzArPxzsPtKynuB0Vza2xF/r7u7rS1etr+/N11+Lt2zyFNv/AHtiKr4WqVJEAAAAAElFTkSuQmCC;" vertex="1" parent="1">
          <mxGeometry x="350.01" y="348.24" width="35" height="35" as="geometry" />
        </mxCell>
        <mxCell id="TRhWoTdORYvuP8BCEGIG-17" style="edgeStyle=orthogonalEdgeStyle;rounded=0;orthogonalLoop=1;jettySize=auto;html=1;entryX=0.481;entryY=0.991;entryDx=0;entryDy=0;entryPerimeter=0;" edge="1" parent="1" source="TRhWoTdORYvuP8BCEGIG-2" target="TRhWoTdORYvuP8BCEGIG-4">
          <mxGeometry relative="1" as="geometry">
            <mxPoint x="330" y="210" as="targetPoint" />
          </mxGeometry>
        </mxCell>
        <mxCell id="TRhWoTdORYvuP8BCEGIG-18" value="" style="edgeStyle=orthogonalEdgeStyle;rounded=0;orthogonalLoop=1;jettySize=auto;html=1;entryX=0.513;entryY=0.993;entryDx=0;entryDy=0;entryPerimeter=0;" edge="1" parent="1" source="TRhWoTdORYvuP8BCEGIG-19" target="TRhWoTdORYvuP8BCEGIG-25">
          <mxGeometry relative="1" as="geometry">
            <mxPoint x="600" y="211" as="targetPoint" />
          </mxGeometry>
        </mxCell>
        <mxCell id="TRhWoTdORYvuP8BCEGIG-19" value="" style="shape=image;verticalLabelPosition=bottom;labelBackgroundColor=default;verticalAlign=top;aspect=fixed;imageAspect=0;editableCssRules=.*;image=data:image/svg+xml,PHN2ZyB4bWxucz0iaHR0cDovL3d3dy53My5vcmcvMjAwMC9zdmciIHZpZXdCb3g9IjAuMDYxMzgzMTMxODkxNDg5MDMgLTQuNjE5MzU5OTcwMDkyNzczNGUtNyAzMS44Nzc3OTgwODA0NDQzMzYgMzIuMDAxMDc1NzQ0NjI4OTA2IiBoZWlnaHQ9IjgwMC4wMjY4OTM2MTU3MjI3IiB3aWR0aD0iNzk2Ljk0NDk1MjAxMTEwODQiIGZpbGw9IiMwMDAwMDAiPiYjeGE7ICA8cGF0aCBkPSJNMTEuMDY4IDMxLjk2OWMtMC43NzEtMC4wNTctMS43ODctMC4yNTEtMi42MzYtMC40OTYtMS40MjEtMC40MjctMi43NTUtMS4xMDktMy45MjctMi4wMTUtMC40ODktMC4zOC0xLjUzNi0xLjQyOC0xLjk2NC0xLjk2NC0xLjU4OC0yLTIuMzk2LTQuMTc3LTIuNDczLTYuNjY3LTAuMDQxLTEuMTcyIDAuMTA5LTIuMzQ0IDAuNDM3LTMuNDY4IDAuMDg4LTAuMzA4IDAuMDkzLTAuMzM5IDAuMDczLTAuNzA5LTAuMDIxLTAuNSAwLjAyNS0xIDAuMTM1LTEuNDg0IDAuMDg0LTAuMzI4IDAuMzA4LTAuODEyIDAuNDUzLTAuOTg5bDAuMDg4LTAuMTA5LTAuMDA5IDAuNTc3Yy0wLjAxNiAwLjgzMy0wLjAxNiAwLjgzMyAwLjI0OSAwLjM3MSAwLjU5OS0xLjA3OSAxLjM3NS0yLjA0NyAyLjI5Mi0yLjg3MSAwLjI2LTAuMjMzIDAuNDk1LTAuNDQ4IDAuNTE2LTAuNDc5IDAuMDI1LTAuMDI3IDAuMTE5LTAuMjM1IDAuMjEzLTAuNDY0IDAuMjc2LTAuNjg3IDAuNTItMS4wNjMgMC43OTEtMS4xOTcgMC4yMzUtMC4xMiAwLjQ0My0wLjA1NyAwLjQ5NiAwLjE0IDAuMDA5IDAuMDk1IDAuMDA0IDAuMTkzLTAuMDExIDAuMjg3LTAuMDE2IDAuMDczLTAuMDIxIDAuMTQxLTAuMDE2IDAuMjEzIDAuMDA1IDAgMC4yMDgtMC4xMDQgMC40NTMtMC4yMzMgMC44NjQtMC40NTkgMS40ODQtMC43MjQgMi43OTItMS4xODggMC40MjctMC4xNTEgMC44MzMtMC4zMDMgMC45LTAuMzI4IDAuMzY1LTAuMTU2IDAuNTYzLTAuNjc3IDAuNTMyLTEuMzg1LTAuMDA1LTAuMjI5LTAuMDUyLTAuNDU5LTAuMTQxLTAuNjcyLTAuMDQ3LTAuMTQ1LTAuMDk5LTAuMjg3LTAuMTYxLTAuNDIzLTAuMDY4LTAuMTI5LTAuMDU3LTAuMTU2IDAuMDUyLTAuMTI0IDAuMzEzIDAuMDg4IDAuNjgzIDAuMzkxIDAuOTE3IDAuNzM5IDAuMTM1IDAuMjA5IDAuMzY0IDAuNjk5IDAuMzY0IDAuNzkyIDAgMC4wNzMgMC4wNDcgMC4wMzcgMC4xNTItMC4xMTUgMC40MDUtMC42MDQgMC40MTEtMS4yOTIgMC4wMDQtMS45ODQtMC4xNTEtMC4yNTEtMC41NzItMC42NzItMC44NTktMC44NDktMC4zNjktMC4yMjQtMC41OTMtMC4yOTEtMC45ODktMC4yODctMC4zMDMgMC0wLjMzMy0wLjAwNC0wLjQyMy0wLjA3Ny0wLjEwOS0wLjA5NS0wLjE3Mi0wLjI5Mi0wLjE0NS0wLjQ1OSAwLjAzNi0wLjE4OCAwLjM1NS0wLjc5NyAwLjU3OS0xLjA5MyAwLjI2LTAuMzQ0IDAuODQzLTAuOTEyIDEuMjE5LTEuMTc3IDEuMjE5LTAuODY0IDIuNzQ0LTEuMzg1IDQuNTE1LTEuNTQ3IDAuNDI4LTAuMDQxIDAuNDQzLTAuMDQxIDAuNTMyLTAuMTM2IDAuMDgzLTAuMDg4IDAuMTA5LTAuMDk5IDAuMjkyLTAuMDk5IDAuMTc2IDAgMC4yMjggMC4wMTYgMC40MjcgMC4xMzEgMC4yMDggMC4xMiAwLjIyOSAwLjEyNCAwLjMxNyAwLjA4OCAwLjA2OC0wLjAzMSAwLjE3Ny0wLjAzNiAwLjM3NS0wLjAyNSAwLjIyNCAwLjAxNSAwLjI5MiAwLjAwOSAwLjM0OS0wLjAzMiAwLjEwNC0wLjA3MyAwLjIyOS0wLjA2MyAwLjQxNyAwLjAzMiAwLjA4OCAwLjA0NyAwLjM0OCAwLjEyNCAwLjU4MyAwLjE3NiAxLjA5MyAwLjI0IDEuOTY5IDAuNTc5IDIuODAzIDEuMDg0IDAuMTUxIDAuMDg4IDAuMjc2IDAuMTY3IDAuMjgxIDAuMTY3IDAuMDE1IDAgMC0wLjEyLTAuMDQzLTAuMzI4bC0wLjAxNS0wLjA5NSAwLjIwMyAwLjEyYzAuMjY1IDAuMTYxIDAuNTA1IDAuNDEyIDAuNjM2IDAuNjYxIDAuMDkzIDAuMTc3IDAuMTEzIDAuMjA0IDAuMTYxIDAuMTcyIDAuMDQxLTAuMDIwIDAuMDg4LTAuMDI1IDAuMTUxLTAuMDA1IDAuMDY4IDAuMDI3IDAuMTIgMC4xIDAuMjY1IDAuMzkxIDAuMDk5IDAuMTk5IDAuMTg4IDAuMzcxIDAuMTk5IDAuMzgxIDAuMDE1IDAuMDE1IDAuMTE1LTAuMDczIDAuMjI0LTAuMTk5IDAuMjMzLTAuMjU1IDAuNDQ3LTAuMzk2IDAuNzMzLTAuNDk1IDAuMjY3LTAuMDg4IDAuNDI4LTAuMDczIDAuNTQ3IDAuMDYzIDAuMTIgMC4xMzUgMC4xMiAwLjMwNy0wLjAwNCAwLjU3My0wLjI0IDAuNTA0LTAuMzQ5IDAuOTY4LTAuMzA4IDEuMzIzbDAuMDIxIDAuMTgxIDAuMTQ1LTAuMDk5YzAuMTMxLTAuMDkzIDAuMTYxLTAuMTA0IDAuNDA3LTAuMTA0IDAuMjU1IDAgMC41MzEgMC4wNzkgMC41MzEgMC4xNTEgMCAwLjAxNi0wLjA2OCAwLjEwOS0wLjE1MSAwLjIxNS0wLjI0NSAwLjI5Ni0wLjMwOCAwLjQ2OC0wLjMwMyAwLjgzMyAwLjAwNSAwLjMzMyAwLjAyMSAwLjQxMSAwLjIzNSAxLjE1NiAwLjA4NCAwLjI3NiAwLjE3MiAwLjYyOSAwLjIwMyAwLjc5MSAwLjAxNiAwLjEwNSAwLjA0MyAwLjIwNCAwLjA4NCAwLjI5NyAwLjA1MiAwIDAuNDE3LTAuMzAxIDAuNjM2LTAuNTI1IDAuMTI5LTAuMTMxIDAuMjQ5LTAuMjQgMC4yNi0wLjI0IDAuMDQxIDAgMC4xMiAwLjI0OSAwLjE1NiAwLjUgMC4wNDEgMC4yOTIgMC4wMTEgMC41NzktMC4wOTkgMC45MjEtMC4wNjMgMC4yMDktMC4wNjMgMC4yMjktMC4wMTYgMC4zMjggMC4wODQgMC4xNzIgMC4wOTMgMC4zNiAwLjAzNiAwLjU5NS0wLjA5MyAwLjQwMS0wLjI2NSAwLjY4MS0wLjcwOCAxLjE0NWwtMC4yMjkgMC4yNC0wLjAzNiAwLjMxN2MtMC4wMjEgMC4xNzctMC4wNjggMC40NDMtMC4xMDQgMC41ODgtMC4wMjcgMC4wOTUtMC4wNDEgMC4xOTMtMC4wNDcgMC4yODcgMC4wMTEgMC4wMTEgMC4wNDEgMCAwLjA2Ny0wLjAyNSAwLjA2OC0wLjA1NyAwLjI4Ny0wLjAyNyAwLjUwNSAwLjA3NyAwLjQ0MyAwLjIxNSAxLjI5MiAwLjk5MSAxLjYyNSAxLjQ5MWwwLjE4MyAwLjI2NSAwLjI4NyAwLjA3MmMxLjE3NyAwLjI5NyAyLjA5OSAxLjE1NyAyLjYwNCAyLjQzMyAwLjE2MSAwLjQgMC4yNzEgMC45MTEgMC4zNDkgMS41NzcgMC4wMjUgMC4yMDkgMC4wODMgMC4zOTEgMC4yMzkgMC43ODcgMC4xMTUgMC4yODcgMC4yMjQgMC41OTkgMC4yNDUgMC42OTMgMC4wNTcgMC4yNTUgMC4wMjUgMC41ODgtMC4wNzkgMC44MzMtMC4wNTIgMC4xMTUtMC4xMTUgMC4zMDctMC4xNTEgMC40MjctMC4xMiAwLjQzMi0wLjMxNyAwLjcxMy0wLjY1MSAwLjkyNy0wLjEwNCAwLjA2OC0wLjI3MSAwLjE0Ny0wLjM3MSAwLjE3Mi0wLjE4MSAwLjA0Ny0wLjc5NiAwLjMzMy0wLjc5NiAwLjM3MSAwIDAuMDA5IDAuMDQxIDAuMDI1IDAuMDk5IDAuMDQxIDAuMjkyIDAuMDU3IDAuNjc3IDAuMzMzIDAuNzc2IDAuNTU3IDAuMDE2IDAuMDQ3IDAuMDkzIDAuMTY3IDAuMTcyIDAuMjYgMC4yODEgMC4zNzUgMC4zNDkgMC43MTkgMC4yNDkgMS4yNmwtMC4wNTcgMC4yODEgMC4wODQgMC4xMDRjMC4yOTcgMC4zNiAwLjU0NyAwLjgyOSAwLjY0IDEuMTg4IDAuMTMxIDAuNTA1IDAuMTI1IDAuOTk1LTAuMDA5IDEuNzRsLTAuMDU3IDAuMzEyIDAuMTA5IDAuMTU2YzAuMjAzIDAuMjk3IDAuMjQ0IDAuNTc5IDAuMTQgMC45OC0wLjI2IDEuMDA1LTEuMDIxIDEuNzQ5LTIuMDgzIDIuMDMxbC0wLjIwOSAwLjA1MnYwLjI4MWMwIDAuMjEzLTAuMDE1IDAuMzEyLTAuMDY3IDAuNDIzLTAuMDg5IDAuMTg3LTAuMjQgMC4zMzctMC40MjggMC40MjctMC4yOTYgMC4xMjktMC43NDQtMC4wMTEtMC45NjMtMC4zMDgtMC4xMDktMC4xNTEtMC4xMi0wLjE1MS0wLjI3Ni0wLjE1MS0wLjEwNS0wLjAwNS0wLjIwNC0wLjAyMS0wLjMwMy0wLjA1Mi0wLjMyOC0wLjExNS0wLjQ4NC0wLjM0NC0wLjQ4OS0wLjcyOWwtMC4wMDUtMC4yMjQtMC4yMDgtMC4xMjVjLTAuMjgxLTAuMTYxLTAuNTMyLTAuMzY5LTAuNzUxLTAuNjA5bC0wLjIwMy0wLjIxOSAwLjEwNCAwLjIwOWMwLjQ0OCAwLjg4NS0wLjA1NyAxLjg0OC0xLjEyNSAyLjEzNS0wLjIxOSAwLjA2My0wLjM4NSAwLjA3My0xLjMyMyAwLjA5My0xLjQ0OCAwLjAzNy0xMi4wMjcgMC4wMzItMTIuNDg5LTAuMDA0ek0yOS4wNzkgMzEuNDMyYzAuMTM1LTAuMTE1IDAuMTg3LTAuNDE2IDAuMTA0LTAuNTc3LTAuMDc5LTAuMTUyLTAuMTg4LTAuMTk5LTAuNTExLTAuMjI0LTAuMzY5LTAuMDI3LTAuNDc1LTAuMDg0LTAuNDc1LTAuMjQgMC0wLjIwMyAwLjAzNy0wLjIxMyAwLjg1NS0wLjIyNCAwLjc5Ny0wLjAxMSAxLjAzNi0wLjA0NyAxLjM4NS0wLjIyNCAwLjMwOC0wLjE1NiAwLjY5OS0wLjY0IDAuNzM1LTAuOTEybDAuMDE2LTAuMTI0LTAuMjE5IDAuMDYzYy0wLjgzMyAwLjIzMy0xLjk1OSAwLjI3Ni0yLjc4MSAwLjEwNC0wLjg4NS0wLjE4OC0xLjcwNC0wLjY5My0xLjk5NS0xLjIzNWwtMC4wNzMtMC4xMzYtMC4wMzcgMC4wOTVjLTAuMDM2IDAuMTQ1LTAuMDQ3IDAuMjk2LTAuMDQxIDAuNDQ4LTAuMDA1IDAuMzI4IDAuMDA1IDAuMzY0IDAuMDk5IDAuNTU3IDAuMTkzIDAuNDA1IDAuNjA5IDAuODAxIDEuMTIgMS4wNTcgMC4yNjcgMC4xMzUgMC4yNzYgMC4xNCAwLjI1NiAwLjIzOWwtMC4wNTIgMC4zMjNjLTAuMDUyIDAuMjgxLTAuMDI3IDAuNDMzIDAuMTA0IDAuNTg0IDAuMTM1IDAuMTUxIDAuMzMzIDAuMjQgMC41NDEgMC4yMjkgMC4xMjUgMCAwLjIwMyAwLjAyMCAwLjI1NSAwLjA2MyAwLjI3NiAwLjIxMyAwLjU2MyAwLjI3MSAwLjcxNSAwLjEzNXpNMjIuNDA3IDMxLjE4OGMwLjYyLTAuMDg5IDAuODE3LTAuMDk1IDEuMTUxLTAuMDE2IDAuNjc3IDAuMTQ1IDEuMzggMC4wMjUgMS42ODgtMC4yOTIgMC4yMDMtMC4yMTMgMC4yNjUtMC41NDcgMC4xNC0wLjc1NS0wLjE1Ni0wLjI1Ni0wLjU2My0wLjQyOC0xLjAxMS0wLjQyOC0wLjMxMiAwLTAuNDczIDAuMDQ4LTEuMDE1IDAuMjc2LTAuMTY3IDAuMDczLTAuMzMzIDAuMTQxLTAuNTA1IDAuMTkzLTAuMjI5IDAuMDQ3LTAuMzU1LTAuMDg0LTAuMzU1LTAuMzY5IDAtMC4zMTMgMC4wODgtMC40MTIgMC43NTEtMC44OCAwLjU2Ny0wLjQwMSAwLjkwNS0wLjg2NSAwLjk4OS0xLjM0OSAwLjAzNi0wLjIyNC0wLjAwNS0wLjUzNy0wLjA4NC0wLjYwOS0wLjEyNS0wLjA2My0wLjI1NS0wLjEwOS0wLjM5MS0wLjE0MS0xLjEwOS0wLjMyOC0xLjYxNS0wLjc0OS0yLjA5OS0xLjc0NC0wLjE4OC0wLjM5MS0wLjM0NC0wLjc5Ny0wLjQ2NC0xLjIxMy0wLjA1Ny0wLjE5OS0wLjEyNC0wLjM5MS0wLjIwMy0wLjU3OS0wLjM2LTAuNzk3LTEuMjQtMS41MTEtMi4yNDUtMS44MzktMC40MjctMC4xMzYtMC42OTctMC4xODgtMS4zOC0wLjI0NS0wLjI0OS0wLjAyMC0wLjUtMC4wNDctMC43NDktMC4wNzJsLTAuMTYxLTAuMDI3IDAuMjI0LTAuMTE1YzAuMjc2LTAuMTQgMC40NzMtMC4yMDMgMC43NzEtMC4yNDQgMC40MTYtMC4wNjMgMC43MDMtMC4wNzkgMS4wMTEtMC4wNDMgMS4yMjggMC4xNDEgMi4xNTYgMC43NzIgMi44MDcgMS45MTcgMC4yNDUgMC40MjcgMC40MTcgMC44NjQgMC41ODggMS40NjggMC4xOTkgMC43MDQgMC4zNzYgMS4wNTcgMC43MTUgMS40MTIgMC41NDcgMC41ODQgMS4yNzYgMC44NDQgMi4zNTMgMC44NDQgMC4yNCAwIDAuNTM3LTAuMDE2IDAuNjU2LTAuMDM2IDAuNTA1LTAuMDY4IDEuMDMyLTAuMjUxIDEuNDE3LTAuNDg1IDAuNDIxLTAuMjQ5IDAuODE3LTAuNzE5IDAuOTQ4LTEuMTIgMC4wMzYtMC4xMTkgMC4wODMtMC4yMTkgMC4wOTktMC4yMTkgMC4wMjEgMCAwLjE0MSAwLjAyNyAwLjI3MSAwLjA1MiAwLjIxOSAwLjA1MyAwLjI1MSAwLjA1MyAwLjUxNiAwIDAuNDIxLTAuMDc3IDAuNTM2LTAuMDY3IDAuNjQgMC4wNDggMC4xNjcgMC4xNzEgMC4zNzEgMC4yMDMgMC42MDQgMC4wOTMgMC4wODktMC4wNTIgMC4xNzItMC4xMiAwLjIzNS0wLjIwMyAwLjA3OS0wLjEwNSAwLjA5NS0wLjE1NyAwLjA4OS0wLjI3Ni0wLjAxMS0wLjE0MS0wLjAxNi0wLjE0Ny0wLjI2MS0wLjMwOC0wLjA4OC0wLjA1Mi0wLjE3Mi0wLjEwOS0wLjI0NC0wLjE3NyAwLTAuMDA1IDAuMDU3LTAuMDU3IDAuMTI5LTAuMTA0IDAuMTA1LTAuMDY4IDAuMTY3LTAuMDgzIDAuMjYxLTAuMDc3IDAuMTM1IDAuMDA5IDAuMTM1LTAuMDA1IDAuMDA1LTAuMjYxLTAuMTE1LTAuMjM1LTAuMzAzLTAuNDIxLTAuNTM3LTAuNTMxLTAuNDQ4LTAuMjE5LTAuOTU3LTAuMjE5LTEuNTI1IDAtMC4zNDQgMC4xMzUtMC4zOTYgMC4xMzUtMC42MzEgMC4wMzEtMC4zMDctMC4xMzUtMC42Mi0wLjE4MS0xLjA0MS0wLjE1Ni0wLjUyNyAwLjAzMS0wLjg2OS0wLjAyNS0xLTAuMTU2bC0wLjA5OS0wLjA5OSAwLjQxNi0wLjA0M2MwLjY1Ni0wLjA1NyAwLjg0NC0wLjExNSAxLjQyMy0wLjQzMiAwLjM1OS0wLjE5NyAwLjU3Mi0wLjI0OSAxLjEwOS0wLjI4MSAwLjc3MS0wLjA0NyAxLjE0LTAuMTc3IDEuMzQzLTAuNDg0IDAuMDczLTAuMTA5IDAuMTE1LTAuMTQxIDAuMTQ3LTAuMTIgMC40NjggMC4xMTUgMC45MzctMC4xNzcgMS4wMzYtMC42NTEgMC4wMjEtMC4xMDkgMC4wMTYtMC4xMTUtMC4zMTctMC40MTItMC4xMi0wLjA5OS0wLjIzNS0wLjIwOC0wLjMzOS0wLjMyMyAwLTAuMDExIDAuMDUyLTAuMDY4IDAuMTE1LTAuMTIgMC4xODgtMC4xNjcgMC4zMjMtMC4xNCAwLjcwOCAwLjE0MSAwLjA2OCAwLjA1MiAwLjA3MyAwLjA1MiAwLjA3My0wLjAwNSAwLTAuMTI1LTAuMDc5LTAuMzMzLTAuMzAzLTAuODEzLTAuMjY1LTAuNTYxLTAuMjg3LTAuNjI0LTAuMzM5LTEuMDcyLTAuMTYxLTEuMzc2LTAuOS0yLjUyMS0yLjA1Ny0zLjE5My0wLjA4OC0wLjA1Ny0wLjE4MS0wLjEwOS0wLjI4MS0wLjE1MS0wLjAwOSAwLTAuMDY3IDAuMDkzLTAuMTI0IDAuMjA4LTAuMDU3IDAuMTItMC4xMzYgMC4yMzUtMC4yMjQgMC4zMzMtMC4xIDAuMTA0LTAuMTQxIDAuMTMxLTAuMjQgMC4xMzEtMC4xNCAwLTAuMjQtMC4wNzMtMC4yNC0wLjE3NyAwLTAuMDQxIDAuMDQzLTAuMTY3IDAuMDk1LTAuMjc2IDAuMTYxLTAuMzQ5IDAuMjA4LTAuNTg4IDAuMTYxLTAuODYtMC4xMDktMC42NC0wLjcwOC0xLjM1My0xLjQ1OS0xLjc0OS0wLjI5Mi0wLjE1MS0wLjMyMy0wLjE0NS0wLjM0NCAwLjA0MS0wLjAyMCAwLjIxOSAwLjAyNyAwLjY1NiAwLjEwNCAwLjk0OCAwLjAzMiAwLjEzNiAwLjE1NiAwLjQ2NCAwLjI2NyAwLjcxOSAwLjI5MSAwLjY2NyAwLjM4IDAuOTY0IDAuMzggMS4yNTYgMC4wMDUgMC4xMjQtMC4wMTEgMC4yNDQtMC4wNTIgMC4zNTktMC4wODQgMC4xNzctMC4yMTUgMC4zMjMtMC4zNzYgMC40MjctMC4xMDkgMC4wNTctMC4yMzMgMC4wNjMtMC4yMDggMC4wMDUgMC4xNjctMC4zODUgMC4yMjQtMC41NzIgMC4yNC0wLjgwNyAwLjAxNi0wLjMzMy0wLjAyNy0wLjQ4OS0wLjMxMy0xLjA3My0wLjI4NS0wLjU4OC0wLjM2NC0wLjkwNy0wLjM0OC0xLjM5MWwwLjAxNS0wLjMzOS0wLjA3NyAwLjE1MmMtMC4xMDQgMC4xODctMC4yMTMgMC4zNjktMC4zMzMgMC41NDctMC40MDcgMC42MjktMC41MzYgMC45NjgtMC41MzYgMS4zOTEgMCAwLjM5NiAwLjE1MSAwLjk0MyAwLjM2OSAxLjMzMyAwLjA0MSAwLjA3NyAwLjA3MyAwLjE0NSAwLjA2MyAwLjE1Ni0wLjA3My0wLjA0MS0wLjEzNi0wLjA5My0wLjE5My0wLjE1MS0wLjE3Ny0wLjE3Mi0wLjQzMi0wLjYwNS0wLjQzMi0wLjc0IDAtMC4wOTMtMC4wNTctMC4wNzMtMC4zMTcgMC4wOTMtMC40ODkgMC4zMTMtMC44MzkgMC42MzEtMS4zMDMgMS4xNzctMC42NzcgMC44MDMtMS41OTMgMS40MDEtMi43MTkgMS43NzEtMC4yNjUgMC4wODktMS4xMzEgMC4zMTctMS45MTYgMC41MTYtMi4xNjMgMC41MzYtMi45MTcgMC44MDEtMy45MTcgMS4zOC0xLjk3OSAxLjEzNi0zLjAxNiAyLjY2Ny0zLjIxOSA0Ljc1MS0wLjA3MyAwLjc0OSAwLjAzMSAxLjg4IDAuMjQ1IDIuNjkyIDAuMDM2IDAuMTItMC4xNzItMC4xNTEtMC4zMDMtMC40MDEtMC4yMjktMC40NDMtMC4zOC0wLjk5NS0wLjQ1My0xLjY4MS0wLjA2OC0wLjYxNSAwLjAwNS0xLjgzOSAwLjE1MS0yLjQ5NmwwLjAyMS0wLjA5My0wLjQ3OSAwLjAyMWMtMS4xNzcgMC4wNTItMi4xNTYgMC4zODUtMi45NTMgMS4wMTYtMC4xMiAwLjA4OC0wLjIzNSAwLjE5Mi0wLjM0NCAwLjI5NmwtMC4wNzkgMC4wOTkgMC4wMjEtMC4wOTNjMC4wMzYtMC4xNzIgMC4yMjQtMC41NDEgMC4zOC0wLjc0IDAuMzE5LTAuNDI3IDAuOTY0LTAuODI4IDEuNjM2LTEuMDMxIDAuMTc3LTAuMDUyIDAuNzE5LTAuMTgzIDEuMTk3LTAuMjkyIDAuNDg5LTAuMTA5IDAuOTA3LTAuMjAzIDAuOTM3LTAuMjA4IDAuMDI3LTAuMDExIDAuMTItMC4xNDUgMC4yMDQtMC4zMDMgMC4wODMtMC4xNjEgMC4yMzktMC40MDUgMC4zNDQtMC41NDcgMC4xMDQtMC4xNDUgMC4xODEtMC4yNzEgMC4xNzEtMC4yNzYtMC4xNzEgMC4wMTYtMC4zNDggMC4wMzctMC41MiAwLjA2OC0wLjI3NiAwLjA0MS0wLjg5NiAwLjEzMS0xLjM3MSAwLjE5Mi0wLjk1NyAwLjEyNS0xLjUgMC4yMjQtMiAwLjM3MS0xLjU0NyAwLjQ0OC0yLjQ0MyAxLjMxMi0yLjkwNSAyLjgxMmwtMC4xMiAwLjM5MSAwLjA2MyAwLjE4M2MwLjA5OSAwLjI5NyAwLjQzNyAwLjk1OSAwLjY2NyAxLjI5NyAwLjg4NSAxLjMxNyAyLjI3MSAyLjM5MSAzLjk3MyAzLjA2MSAwLjM4NSAwLjE1NyAwLjQzMyAwLjE4MyAwLjYzMSAwLjM4MSAwLjEyIDAuMTE1IDAuMjEzIDAuMjEzIDAuMjA4IDAuMjE5LTAuMDI1IDAuMDI1LTEuMDA1LTAuMjI5LTEuNDMyLTAuMzcxLTEuMDIxLTAuMzM5LTEuOTc5LTAuODUzLTIuODE3LTEuNTMxLTAuMTgzLTAuMTQxLTAuMzgtMC4yNzEtMC41ODktMC4zNzUtMC42OTctMC4zNTUtMS4zMjgtMC44MjQtMS44NjktMS4zODEtMC4yNi0wLjI2NS0wLjQ3OS0wLjU2Ny0wLjY1MS0wLjg5NWwtMC4xMzYtMC4yNTYgMC4xOTMgMC4xODNjMC40MjcgMC4zOTEgMS4wNDcgMC43OTIgMS4zNDggMC44NzUgMC4wNzMgMC4wMjEgMC4wNjggMC4wMDUtMC4wNTctMC4yMTMtMC4xODctMC4zMzktMC4zNDgtMC42ODgtMC40ODQtMS4wNDctMC4wODMtMC4yNC0wLjIxMy0wLjQ2NC0wLjM3NS0wLjY1Ni0wLjk5NS0xLjI5Ny0xLjcyNC0yLjYtMi4yMzUtMy45OTFsLTAuMTU2LTAuNDMyLTAuMDI3IDAuMTQ3Yy0wLjAyMCAwLjIzMy0wLjAzMSAwLjQ3My0wLjAzMSAwLjcxOWwtMC4wMDUgMC41NzIgMC4xODggMC41MTZjMC4xOTIgMC41MjcgMC44ODUgMi4zOTYgMC45NDMgMi41NTIgMC4wMjAgMC4wNDcgMC4wMjUgMC4wODkgMC4wMjAgMC4wODlzLTAuMTItMC4xNDEtMC4yNDktMC4zMDhjLTAuMzA4LTAuMzg1LTAuNjQ3LTAuODk2LTAuNzA4LTEuMDU3bC0wLjA1My0wLjEyNSAwLjAyMSAwLjEwOWMwLjA5OSAwLjYgMC4zNjUgMS40OTUgMC42MiAyLjEgMC43ODEgMS44MzMgMi4wNjggMy40NDMgMy42MzEgNC41NDEgMS41MiAxLjA3MyAzLjU4OCAxLjgyMyA1LjQxNiAxLjk3MyAwLjE3NyAwLjAxMSAyLjc3NiAwLjAyNyA1Ljc4MSAwLjAzMiA0LjY5MyAwIDUuNTA1LTAuMDA1IDUuNzk3LTAuMDQ3ek0yNC42NTEgMjIuMjk3Yy0wLjM1My0wLjA3My0wLjY5Mi0wLjE5My0xLjAxMS0wLjM2NS0wLjYxMy0wLjM1OS0xLjA1Mi0wLjk4OS0xLjA5My0xLjU3Ny0wLjAxNi0wLjIwOS0wLjAxNi0wLjIwOSAwLjAzMi0wLjEgMC4yNzYgMC43MDQgMC44MTIgMS4yNzIgMS41NDcgMS42NDcgMC4zMzkgMC4xNjcgMC41MjUgMC4yMzkgMC45MjEgMC4zMzlsMC4zNTUgMC4wOTMtMC4yOTItMC4wMDVjLTAuMTU2IDAtMC4zNjQtMC4wMTYtMC40NTktMC4wMzF6TTI4LjE2MSAxOS4wOTljLTAuMzIzLTAuMDc3LTAuNjgzLTAuMzY0LTAuNzgxLTAuNjI1LTAuMDYzLTAuMjEzLTAuMDUyLTAuNDM3IDAuMDI3LTAuNjRsMC4wNTItMC4wOTMgMC4wMjAgMC4xMjljMC4wNjMgMC4zMTkgMC4yODcgMC41OTUgMC42MDkgMC43MzUgMC4xIDAuMDQ3IDAuMzQ0IDAuMTA5IDAuNTQ4IDAuMTQ1IDAuMzA3IDAuMDUzIDAuNTA0IDAuMTExIDAuNjE5IDAuMTgzIDAuMDExIDAuMDA1IDAuMDIxLTAuMTQgMC4wMjctMC4zMTcgMC4wMDUtMC4zMTcgMC4wMDUtMC4zMjgtMC4wNDctMC4yNTEtMC4xMDkgMC4xNjMtMC4yNjUgMC4yODctMC4zNjUgMC4yODctMC4xMjQgMC0wLjY4MS0wLjIwMy0wLjgzMy0wLjMwMS0wLjE5Mi0wLjEyNS0wLjI0OS0wLjI1MS0wLjI0OS0wLjUxMSAwLTAuMTg4LTAuMDE2LTAuMjM1LTAuMDczLTAuMzAzbC0wLjA3My0wLjA3MiAwLjE1Mi0wLjE0MWMwLjI1NS0wLjIyOSAwLjQwNS0wLjI4NyAwLjc2LTAuMjg3IDAuMzQ0IDAgMC40ODkgMC4wNTIgMC43MjkgMC4yNTYgMC4zNDQgMC4yOTIgMC40NTkgMS4wMTEgMC4yNTUgMS42MDRsLTAuMDcyIDAuMjE5LTAuNTg5IDAuMDA1Yy0wLjIzOSAwLjAxMS0wLjQ3OSAwLTAuNzEzLTAuMDIxek0yOC41NDcgMTcuOTY0YzAuMTE1LTAuMDU3IDAuMTgzLTAuMTgzIDAuMTc3LTAuMzI4LTAuMDA1LTAuMDk1LTAuMDMxLTAuMTQxLTAuMTItMC4yMjQtMC4xODgtMC4xNzItMC40MzctMC4xMi0wLjU0NyAwLjEwOS0wLjE0NSAwLjMwMSAwLjE4OCAwLjYwNCAwLjQ4OSAwLjQ0OHpNMjUuODMzIDI5LjQxNmMtMC4xNTYtMC4yNDQtMC4yNzEtMC41MTUtMC4zNDQtMC43OTYtMC4xMDQtMC40OC0wLjAxMS0xLjI0IDAuMjA0LTEuNjA0bDAuMDgzLTAuMTQ3LTAuMjY1IDAuMDIxYy0wLjE0MSAwLjAxMS0wLjI4MSAwLjAyMS0wLjQyMyAwLjAyMWgtMC4xNTZ2MC4yMzljMCAwLjQ2OS0wLjIxOSAxLjA0Ny0wLjU2MyAxLjQ3NWwtMC4xNzYgMC4yMjQgMC4zMjggMC4wMjVjMC4xNzYgMC4wMTEgMC40MTYgMC4wNDcgMC41MzYgMC4wODQgMC4yNCAwLjA3MiAwLjU0MSAwLjI1NSAwLjcwOCAwLjQzMiAwLjEzMSAwLjE0IDAuMTU2IDAuMTUxIDAuMDY4IDAuMDI1ek0zMC4yMjQgMjguMjk3YzAuMjQtMC4wOTUgMC40MzctMC4yNzEgMC41NTctMC41IDAuMTE1LTAuMjM1IDAuMjM1LTAuODQ5IDAuMjYtMS4zMDMgMC4wMTEtMC4yODcgMC4wMDUtMC40MjctMC4wMzYtMC42MjUtMC4wNTItMC4yNDktMC4yNDUtMC42OTItMC4zNjUtMC44MzlsLTAuMDYxLTAuMDc3LTAuMTU3IDAuMTE1Yy0wLjM0MyAwLjI0NC0wLjYxOSAwLjI4Ny0wLjk3MyAwLjEyOS0wLjE2Ny0wLjA3Mi0wLjI2NS0wLjA5My0wLjUzMS0wLjEwNGwtMC4zMjQtMC4wMTEtMC4xMDQgMC4xODNjLTAuMzA3IDAuNTQ3LTAuNzgxIDAuOTgtMS4zNTMgMS4yMjlsLTAuMjQ1IDAuMTE1LTAuMDIxIDAuMTcyYy0wLjA4OCAwLjY5NyAwLjM3NiAxLjE4MyAxLjQwMSAxLjQ0MyAwLjUzNiAwLjE0IDAuNzEzIDAuMTU2IDEuMjc2IDAuMTUxIDAuNDIzLTAuMDExIDAuNTIxLTAuMDIwIDAuNjc3LTAuMDc3ek00LjQ3MyAyMy4zMzljMC4yOTItMS40MjEgMS4zNzEtMi4zNzUgMy4yMDQtMi44MjggMC40NTMtMC4xMTUgMS4yMDgtMC4yNiAyLjU3My0wLjUxMSAxLjc5Ni0wLjMyMyAyLjM0OC0wLjQ5NSAzLjAwOS0wLjkzN2wwLjQwMS0wLjI2NS0xLjY4OC0wLjAxMWMtMi4wNjctMC4wMTEtMi4zMzcgMC4wMTYtMy4xNDUgMC4yODEtMC41MTEgMC4xNzItMS4wMTYgMC4zOTYtMi40MDEgMS4wNzctMC42NTYgMC4zMjQtMS4yMDMgMC41ODQtMS4yMDggMC41NzktMC4wMTEtMC4wMTYgMC41LTAuNDY0IDAuNzYtMC42NjcgMC44NTUtMC42NzIgMi4yNTYtMS40NTMgMy4xNTItMS43NTEgMS41MzEtMC41MTUgMi43MDgtMC42MTMgNS4xODctMC40MzdsMS4xODggMC4wODkgMC40NjQtMC4xMTVjMC40NTItMC4xMTUgMC45MTYtMC4yMDQgMS43OTEtMC4zNDQgMC4xNTItMC4wMjEgMC4yOTctMC4wNTIgMC40NDgtMC4wODQgMC4wMDUtMC4wMDQtMC4wMTUtMC4wMjAtMC4wNTItMC4wMzEtMC4xNzItMC4wNTctMC4zMzMtMC4xNC0wLjQ4NC0wLjI0NS0wLjA2OC0wLjA0MS0wLjEzNi0wLjA4OC0wLjE5OS0wLjE0NSAwLTAuMDA1IDAuNDEyLTAuMDA1IDAuOTIzIDAgMC45MTYgMC4wMTEgMC45MjEgMC4wMTEgMS4yNDQtMC4wNzcgMi0wLjU0MyAzLjY0Ny0yLjAxNiA0LjUyMS00LjA2MyAwLjE4My0wLjQyOCAwLjUtMS4zMzMgMC40NzktMS4zNi0wLjAwOS0wLjAxMS0wLjExOSAwLjA0MS0wLjIzOSAwLjExNS0wLjMwOCAwLjE5My0wLjk1OSAwLjUxNi0xLjMzOSAwLjY2Ny0wLjk0MyAwLjM3NS0xLjkzMiAwLjU5OS0yLjk0MyAwLjY2MWwtMC4yODcgMC4wMjEtMC4yMjkgMC4yMTNjLTAuNzk3IDAuNzU1LTIgMS40NjgtMy4wOTkgMS44NDktMC42MTUgMC4yMTMtMC45OTUgMC4yOTYtMi45NjkgMC42NzItMC45NzkgMC4xODctMi4wODggMC40LTIuNDY4IDAuNDg0LTIuNzU2IDAuNTc3LTQuNTIxIDEuMzAxLTUuNDc1IDIuMjQ5LTAuMzIzIDAuMzE5LTAuNSAwLjU2OC0wLjY4NyAwLjk3NS0wLjEgMC4yMDMtMC4yMDQgMC4zNjQtMC4zNTUgMC41MzEtMC4yNjUgMC4zMTMtMC40NTMgMC42NzctMC41NjMgMS4wNzMtMC4xMiAwLjQ5NS0wLjA2OCAxLjIxOSAwLjE0NyAxLjgzOSAwLjA3MiAwLjIyNCAwLjI3MSAwLjY3NyAwLjI5MSAwLjY3NyAwLjAyMS0wLjA2MyAwLjAzNy0wLjEyIDAuMDQ3LTAuMTgzek0zLjM4IDIyLjE3N2wtMC4wMzEtMC40ODQtMC4zNDktMC41MjFjLTAuMjEzLTAuMzIzLTAuNDIxLTAuNjUxLTAuNjI1LTAuOTg0LTAuMjQ5LTAuNDI4LTAuODM5LTEuNTUyLTEtMS45MzdsLTAuMDY4LTAuMTU3IDAuMDE2IDAuMTI1YzAuMDM3IDAuMjQ1IDAuMTk5IDAuOTAxIDAuMzE3IDEuMjYgMC4yNTYgMC43OTcgMC42ODMgMS42NzcgMS4xNDcgMi4zNzYgMC4yMDggMC4zMTIgMC42MDQgMC44MzkgMC42MiAwLjgyMyAwLTAuMTY3LTAuMDExLTAuMzMzLTAuMDI3LTAuNXpNMy4zNjkgMjAuMzEyYy0wLjEwNC0wLjUyNS0wLjA1Ny0xLjI0NCAwLjExNS0xLjY2NyAwLjA2OC0wLjE3NiAwLjIxMy0wLjQ3MyAwLjIzNS0wLjQ3MyAwLjAwNSAwIDAuMDU3IDAuMTI1IDAuMTE1IDAuMjgxIDAuMDk5IDAuMjgxIDAuMjQgMC41NTIgMC4yODEgMC41NTIgMC4wMTEgMCAwLjA3OS0wLjA5MyAwLjE0NS0wLjIxMyAwLjA2OC0wLjExNSAwLjIxMy0wLjMyOCAwLjMyNC0wLjQ4bDAuMjA4LTAuMjcxLTAuMTMxLTAuMDc3Yy0wLjQwNy0wLjI2MS0wLjc3Ni0wLjg0OS0wLjkzNy0xLjQ5MS0wLjE1Ni0wLjYzNS0wLjIwMy0xLjU5OS0wLjEyLTIuMzkxIDAuMDI3LTAuMjE5IDAuMDQxLTAuNCAwLjAzMi0wLjQxMS0wLjAyMS0wLjAyMS0wLjQ2NCAwLjUzMS0wLjc0NSAwLjkyMS0wLjQ2NCAwLjY2MS0wLjg0OSAxLjM3Ni0xLjE1MSAyLjEybC0wLjE0MSAwLjM1NSAwLjEzNiAwLjM5MWMwLjQwNSAxLjEyIDAuOTczIDIuMTcyIDEuNjc3IDMuMTM1LTAuMDA1LTAuMDkzLTAuMDIxLTAuMTg3LTAuMDQzLTAuMjgxek01LjMyOCAxNy44MTJjLTAuMDkzLTAuMzg1LTAuMTM1LTAuODk1LTAuMTM1LTEuODAxIDAtMC44NzEgMC4wMDQtMSAwLjA3Mi0xLjM3NSAwLjA5NS0wLjQ5NiAwLjI1Ni0xLjA1NyAwLjQwNy0xLjM4NSAwLjExNS0wLjI0IDAuNDMyLTAuNzkyIDAuNDUzLTAuNzcyIDAuMDA1IDAuMDA1LTAuMDMyIDAuMzE5LTAuMDg0IDAuNjg4LTAuMTQgMS4wNzktMC4xNzIgMS40NzMtMC4xNTEgMi4wOTMgMC4wMjcgMC43MDkgMC4xNTEgMS42IDAuMjI5IDEuNiAwLjAzMSAwIDAuMDQxLTAuMTUyIDAuMDM2LTAuNjY3LTAuMDE2LTAuNzkyIDAuMDk1LTEuNTg0IDAuMzIzLTIuMzQ0IDAuMjY3LTAuOTMyIDAuODI4LTIuMTU2IDEuMzQ0LTIuOTI4IDAuMDQxLTAuMDU3IDAuMDc5LTAuMTE5IDAuMTA5LTAuMTgxIDAtMC4wMTEtMC4wODMtMC4wMDUtMC4xODcgMC4wMDktMS4yMjkgMC4xODgtMi4yMjQgMS4wMTEtMi43MjQgMi4yNTFsLTAuMTI1IDAuMzA3IDAuMDE2LTAuMjE5YzAuMDQxLTAuNjI0IDAuMTY3LTEuNSAwLjI0OS0xLjc5MSAwLjAxMS0wLjAzMi0wLjAyMSAwLjAxNS0wLjA2OCAwLjA5OS0wLjM2NCAwLjY4My0wLjcxOSAyLjYzNS0wLjcxOSA0LjAwNSAwIDEuMDA1IDAuMTgzIDEuNzI5IDAuNTQzIDIuMjEzIDAuMTcxIDAuMjI0IDAuNDQ3IDAuMzU5IDAuNDExIDAuMTk3ek03LjAyNyAxNi41ODhjMC4yOC0wLjE0IDAuNjcxLTAuMjQ5IDIuMzU5LTAuNjc2IDAuNzQ1LTAuMTg4IDEuNTIxLTAuMzk2IDEuNzM1LTAuNDY0IDAuNzgxLTAuMjU1IDEuNDk1LTAuNjg4IDIuMDg4LTEuMjYgMC42MTUtMC41OTUgMC44MjMtMC45MDcgMS4wMTYtMS41NTIgMC4wODgtMC4yOTcgMC4wODgtMC4yOTcgMC4xNDUtMC4yMjQgMC4yNTEgMC4zMjggMC4yNDUgMS4xMDktMC4wMDUgMS42MDQtMC4wMzYgMC4wNjMtMC4wNTIgMC4xMi0wLjAzNiAwLjEyIDAuMDY4IDAgMC40MjEtMC4yNjEgMC41NjgtMC40MTcgMC4zOTEtMC40MTYgMC41NjgtMC43OTcgMC44OC0xLjg1NSAwLjA0Ny0wLjE2NyAwLjA5OS0wLjMyOCAwLjE2MS0wLjQ4OSAwLjAyNy0wLjAzMSAwLjE0NSAwLjIzNSAwLjIxMyAwLjQ5NSAwLjAzNyAwLjE0MSAwLjA1MiAwLjMyNCAwLjA1MiAwLjU4OS0wLjAwNSAwLjQzNy0wLjA4MyAwLjc3MS0wLjI4NSAxLjE3MmwtMC4xMTUgMC4yMjQgMC4xNzEtMC4wODljMC40MTItMC4yMjQgMS4xNjctMS4xNDUgMS40OTEtMS44MjMgMC4xOTItMC4zNjQgMC4yODUtMC43NzEgMC4yODEtMS4xODMgMC0wLjU2Ny0wLjEyLTAuOTQzLTAuNDU5LTEuNDM3LTAuNDQ4LTAuNjQ1LTEuNDU5LTEuMzk2LTIuMzQ0LTEuNzQ0LTAuMTM2LTAuMDUyLTAuMjI0LTAuMTItMC4zNzUtMC4yOTItMC4xMTUtMC4xMjUtMC4xODgtMC4yMjQtMC4xNzItMC4yMjQgMC4wNDEgMCAwLjYzMSAwLjE1NiAxLjAyNSAwLjI3NiAwLjk0MyAwLjI4MSAxLjY3NyAwLjY5MiAyLjI1MSAxLjI1NSAwLjY1NiAwLjY1MiAwLjk2OCAxLjMzOSAwLjk2NCAyLjExNS0wLjAwNSAwLjY5My0wLjI1MSAxLjMxOS0wLjc4MSAyLjAyNy0wLjEwNSAwLjEzNS0wLjE4OCAwLjI1NS0wLjE4OCAwLjI2NSAwIDAuMDI3IDAuNTExLTAuMjAzIDAuODMzLTAuMzY5IDAuNDAxLTAuMjE1IDEuMDUyLTAuNjU3IDEuMzA3LTAuODgxIDAuMzQ0LTAuMzE3IDAuODEzLTEuMDkzIDEuMDExLTEuNjk3IDAuMTkzLTAuNTgzIDAuMjI0LTEuMjQ1IDAuMDg0LTEuNzkyLTAuMTItMC40NzktMC40MzctMS4wMzYtMC44MzMtMS40NjNsLTAuMTY3LTAuMTgzaDAuMTYxYzAuMDg4IDAgMC4xNzItMC4wMTYgMC4xNzctMC4wMzEgMC4wNDEtMC4wNjMtMC4wNTItMC4yMDQtMC4xOTktMC4yOTItMC4yNDQtMC4xNTYtMC4zNDgtMC4xNzItMC44MDctMC4xMTUtMC41MTEgMC4wNjgtMS4zMjggMC4wNjgtMS43MjQgMC0wLjM0NC0wLjA1Mi0wLjcyNC0wLjE3Mi0wLjkxMi0wLjI4MWwtMC4xMjUtMC4wNzkgMS4xNjctMC4wMTVjMC44ODctMC4wMTEgMS4yMjQtMC4wMzIgMS40MzMtMC4wNjggMC4yOTYtMC4wNTcgMC41MDUtMC4xNDEgMC41NzItMC4yMjQgMC4wNDMtMC4wNDcgMC4wMzItMC4wNjgtMC4wNzctMC4xODMtMC4zNi0wLjM2OS0xLjAyMS0wLjgyOC0xLjY5My0xLjE2Ny0xLjE1MS0wLjU4OC0yLjQyNy0wLjg4NS0zLjcxOS0wLjg4LTAuNTE2IDAtMS4xNDUgMC4wNTItMS40MjEgMC4xMmwtMC4wNzkgMC4wMTUgMC4wOTMtMC4wOTljMC4xMjUtMC4xMzUgMC41NDgtMC4zMzkgMC44NTUtMC40MTYgMC41NDctMC4xNDEgMS4zMDgtMC4xODggMi4wNDEtMC4xMzYgMS4wMzcgMC4wNzkgMS43NzYgMC4yNjUgMi43NzEgMC43MDggMC4yMTUgMC4wOTUgMC40MTIgMC4xNzIgMC40NDQgMC4xNjcgMC4wODMtMC4wMDQgMC4xODEtMC4wOTkgMC4yMjgtMC4yMTNsMC4wNDMtMC4wOTkgMC4wOTkgMC4yMTljMC4wNTcgMC4xMiAwLjA5OSAwLjIyOSAwLjA5OSAwLjI1MSAwIDAuMDc3IDAuMDYzLTAuMDExIDAuMDk5LTAuMTQ3IDAuMDExLTAuMDU3IDAuMDM3LTAuMTE1IDAuMDY4LTAuMTYxIDAuMDMyLTAuMDIwIDAuMTIgMC4xNjcgMC4yMjQgMC40ODlsMC4wNzMgMC4yMzUgMC4xNjctMC4xNjdjMC4xOTItMC4xOTIgMC4xOTctMC4xODcgMC4yMjkgMC4yMzVsMC4wMTUgMC4yNzYgMC4xNDctMC4wOTNjMC4wODMtMC4wNDggMC4xNjEtMC4wNzkgMC4xNzItMC4wNjggMC4wMDkgMC4wMTYgMC4wNDcgMC4xMjUgMC4wODggMC4yNDQgMC4xMTUgMC4zNjUgMC4yNzEgMC42NjMgMC40NTkgMC44NzEgMC4wODggMC4xMDkgMC4yMTkgMC4yOTIgMC4yODEgMC40MTEgMC4wNjMgMC4xMTUgMC4xMjQgMC4yMDQgMC4xNCAwLjIwNCAwLjA0Ny0wLjAyMSAwLjI3MS0wLjQxMiAwLjM3NS0wLjY3MiAwLjAzMi0wLjA4OSAwLjA3My0wLjE3MiAwLjEyNS0wLjI1MSAwLjA0NyAwIDAuMDczIDAuMzYgMC4wNTcgMC43NTYtMC4wMTEgMC4xMzUtMC4wMTEgMC4yNjUgMCAwLjM5NiAwLjA1Ny0wLjAzMiAwLjExNS0wLjA2OCAwLjE2Ny0wLjEwOSAwLjA1Mi0wLjA0OCAwLjExNS0wLjA4NCAwLjE3Ny0wLjExNSAwLjA2OCAwLTAuMDg0IDEtMC4xOTMgMS4yOTEtMC4wNDcgMC4xMDUgMC4wNDggMC4wNTIgMC4yNTYtMC4xNTYgMC4xMTUtMC4xMTUgMC4yMDgtMC4xODcgMC4yMDgtMC4xNjcgMCAwLjA4NC0wLjE4OCAwLjc4MS0wLjI1NSAwLjk1My0wLjA2MyAwLjE1MS0wLjEzMSAwLjI5Mi0wLjIwOSAwLjQzMi0wLjEyOSAwLjIzNS0wLjIzMyAwLjQ4LTAuMzE3IDAuNzI5bC0wLjAyMCAwLjA4OSAwLjE1Ni0wLjEwNWMwLjE3Mi0wLjExOSAwLjI0OS0wLjE1NiAxLjE4Ny0wLjUyIDAuODI4LTAuMzI4IDEuMjk3LTAuNTUyIDEuNDg1LTAuNzE5IDAuMTk3LTAuMTc3IDAuMzEyLTAuMzk2IDAuMzEyLTAuNjE1di0wLjE2N2wtMC4wOTMgMC4xMjVjLTAuMTc3IDAuMjQ0LTAuNTk1IDAuNTg4LTAuOTggMC44MTdsLTAuMTI5IDAuMDczIDAuMDk5LTAuMTExYzAuNDI3LTAuNDY4IDAuNzE5LTEuMTEzIDAuNzE5LTEuNjA0IDAtMC4xNzYtMC4wNDctMC40MzItMC4xMDQtMC41NjctMC4wNDEtMC4xLTAuMDQxLTAuMS0wLjI3NiAwLjQ4NC0wLjI3NiAwLjY3Mi0wLjUzNyAxLjIwOC0wLjcwOCAxLjQ2OC0wLjI2MSAwLjM4MS0wLjY0NyAwLjcyNC0wLjg4MSAwLjc4MS0wLjA3NyAwLjAyMS0wLjA4MyAwLjAxNi0wLjA1Ny0wLjAzNiAwLjA1Ny0wLjEwNCAwLjEzMS0wLjQyNyAwLjE2Ny0wLjcxMyAwLjAxNi0wLjE1MSAwLjAzNy0wLjg5NiAwLjA0OC0xLjY1MSAwLjAyMC0xLjM0OSAwLjA0MS0xLjcwOSAwLjEyNC0yLjA2OCAwLjA0My0wLjE3NyAwLjA0My0wLjE4My0wLjA5My0wLjU0Ny0wLjA2OC0wLjE3Ny0wLjE0NS0wLjM2LTAuMjI0LTAuNTM3LTAuMDg4LTAuMTc2LTAuMjg3LTAuNDUzLTAuMzI4LTAuNDUzLTAuMDExIDAtMC4wOTMgMC4xNjMtMC4xODMgMC4zNmwtMC4xNjEgMC4zNTUtMC4wMTYtMC4zMDNjLTAuMDA5LTAuMjQtMC4wMjUtMC4zMTctMC4wODMtMC4zOTYtMC4xNjEtMC4yMDMtMC4zNi0wLjM3NS0wLjU4NC0wLjUxMS0wLjMwNy0wLjE4Ny0wLjYyOS0wLjM0OC0wLjk1Ny0wLjQ4NC0wLjA3OS0wLjAyMS0wLjA3OS0wLjAyMS0wLjA1NyAwLjE1MSAwLjAxNSAwLjA5NSAwLjAzMSAwLjIwOSAwLjA0MSAwLjI1MSAwLjAyMSAwLjA3MyAwLjAxNiAwLjA3My0wLjEwNCAwLjA1Mi0wLjIwOC0wLjA0MS0wLjQwMS0wLjE1MS0wLjU0MS0wLjMxMi0wLjA4NC0wLjA4OS0wLjE1Ny0wLjE1Mi0wLjE2Ny0wLjE0NyAwLjAxNSAwLjEwNCAwLjA0MSAwLjIwNCAwLjA4MyAwLjMwMyAwLjA0NyAwLjE1NiAwLjA4OCAwLjI5MiAwLjA3OSAwLjI5Ni0wLjAyMSAwLjAyMS0wLjI0NS0wLjA2MS0wLjMzOS0wLjEyOS0wLjA5OS0wLjA5OS0wLjE4My0wLjIxMy0wLjI1MS0wLjMzMy0wLjA3Ny0wLjEzNi0wLjE3Ny0wLjI2NS0wLjI5Mi0wLjM4LTAuMjA4LTAuMTc3LTAuMzAxLTAuMjA0LTEuMjkxLTAuMzAzLTAuMjA4LTAuMDE2LTAuNDEyLTAuMDY4LTAuNTk5LTAuMTQ1LTAuMDUzLTAuMDIxLTAuMDQ4IDAgMC4wMjAgMC4xNTEgMC4wNDEgMC4wOTMgMC4wODkgMC4yMjQgMC4wOTkgMC4yODdsMC4wMjEgMC4xMTUtMC4xNC0wLjAzMmMtMC4yMTUtMC4wMzYtMC40NzUtMC4xNC0wLjcxNS0wLjI4Ny0wLjIwOC0wLjEyNC0wLjIyNC0wLjEyOS0wLjU5OS0wLjE1Ni0wLjQzNy0wLjAyNS0wLjg3NSAwLTEuMzA3IDAuMDg5bC0wLjI0IDAuMDU3IDAuMjQgMC4wMjVjMC4zMjMgMC4wMzcgMC41OTkgMC4xMjUgMC43NzEgMC4yNTEgMC4xMzUgMC4wOTkgMC4yNDkgMC4yMTMgMC4yNDkgMC4yNTUgMCAwLjAxMS0wLjI0OSAwLjAyNy0wLjU2MyAwLjAzNi0wLjkgMC4wMjEtMS40NjggMC4xNjctMi4yNzEgMC41NjMtMC40IDAuMjA0LTEuNSAwLjkxMi0xLjc3MSAxLjE0Ny0wLjE2MSAwLjEzNS0wLjQ1MyAwLjUyLTAuNDUzIDAuNTkzIDAgMC4wNDEgMC4wNjMgMC4wNzMgMC4yMzUgMC4xMiAxLjI5MiAwLjM2OSAyLjEwNCAxLjMxMiAyLjI2IDIuNjI1IDAuMTIgMC45NDcgMC4xIDEuNTMxLTAuMDU3IDIuMTYxLTAuMjQ0IDAuOTY4LTAuODc1IDEuOS0xLjU4MyAyLjMzOS0wLjI2IDAuMTYxLTAuNzk3IDAuMzY5LTAuOTU5IDAuMzY5aC0wLjA5M2wwLjE2Ny0wLjE4M2MwLjM4NS0wLjQyMSAwLjY2Ny0wLjk1OSAwLjg1NS0xLjY0IDAuMTA5LTAuMzggMC4xMTktMC43ODEgMC4wMjUtMS4wODQtMC4wNjMtMC4yMTktMC4wODMtMC4yMjQtMC4xNDUtMC4wMjUtMC4wODQgMC4yNDktMC4xOTkgMC40ODktMC4zMzkgMC43MTktMC4wNjggMC4wOTktMC41MTYgMC41NzItMS4wMjEgMS4wNzctMS4xNTEgMS4xNDEtMS42MjkgMS43MzUtMi4wNzcgMi41NTctMC4zNjUgMC42ODMtMC42MDUgMS40MTctMC43MjQgMi4xODMtMC4wNjMgMC41MjctMC4wNDggMS40MjEgMC4wMzEgMS40MjEgMC4wMTEgMCAwLjEyNS0wLjA0NyAwLjI1MS0wLjEwOXpNMjIuMjYgMTEuNzg3YzAuODI4LTAuMjc2IDEuNDc1LTAuNTc5IDIuMDE2LTAuOTM3IDAuMzkxLTAuMjYxIDAuOTA3LTAuNzY3IDEuMTk3LTEuMTc3IDAuMjg3LTAuNDA3IDAuNzA0LTEuMjg3IDAuNjM2LTEuMzQ5LTAuMDM2LTAuMDM2LTAuNTk5IDAuMTc3LTAuNzg3IDAuMjk3LTAuMjAzIDAuMTI5LTAuMzI4IDAuMjI5LTAuOTMyIDAuNzQ5LTAuNTkzIDAuNTExLTAuNzEzIDAuNTk1LTEuMDE2IDAuNzQtMC4zMTcgMC4xNTYtMC41MTEgMC4xNzItMC43MTMgMC4wNTItMC4wNDctMC4wMjEtMC4wODgtMC4wNTItMC4xMzEtMC4wODggMC0wLjAxMSAwLjA2My0wLjA1MiAwLjEzMS0wLjA5NSAwLjE0MS0wLjA4OCAwLjQwNy0wLjM0MyAwLjM4LTAuMzY5LTAuMTQ1IDAuMDU3LTAuMjgxIDAuMTI1LTAuNDExIDAuMjA4LTEuMDg0IDAuNjItMS42NTIgMS4xMzYtMS43NDUgMS41ODktMC4wMjUgMC4xMjkgMC4wMDUgMC4xMzUgMC4zNDkgMC4wMjAgMC44MzktMC4yNzEgMS44MjgtMC43OTEgMy4wNzctMS42MTUgMC4zNjUtMC4yMzkgMC41NDMtMC4zMzkgMC43MDQtMC4zODUgMC4wNzItMC4wMjUgMC4xNTEtMC4wNDEgMC4yMzUtMC4wNDcgMC4wMzYgMC4wNDEtMC4zNjUgMC41LTAuNjg4IDAuNzkyLTAuODA4IDAuNzI0LTEuNTQ3IDEuMjA4LTIuMzk2IDEuNTgzLTAuMjEzIDAuMDk1LTAuMzY5IDAuMTcyLTAuMzU1IDAuMTcyIDAuMDIxIDAgMC4yMTktMC4wNjMgMC40NDgtMC4xNHpNMjMuNDQ4IDYuNzM1YzAuMzQ0LTAuNTExIDAuNDQ4LTAuODk2IDAuNDk1LTEuNzcxIDAuMDQxLTAuODI4IDAuMTMxLTEuMzE5IDAuMzU1LTEuOTU5IDAuMDUyLTAuMTU2IDAuMDg4LTAuMjgxIDAuMDc3LTAuMjkyLTAuMDMxLTAuMDMxLTAuMzUzIDAuMzkxLTAuNDYzIDAuNjE1LTAuMzI0IDAuNjUxLTAuNTczIDEuNzkyLTAuNjkzIDMuMTQ1LTAuMDI1IDAuMjk3LTAuMDQ3IDAuNTUzLTAuMDQ3IDAuNTY4IDAgMC4wNTcgMC4xMzUtMC4wOTMgMC4yNzYtMC4zMDd6Ii8+JiN4YTs8L3N2Zz4=;" vertex="1" parent="1">
          <mxGeometry x="490" y="183.24" width="54.79" height="55" as="geometry" />
        </mxCell>
        <mxCell id="TRhWoTdORYvuP8BCEGIG-20" value="&lt;font style=&quot;font-size: 11px;&quot;&gt;Data Transformation&amp;nbsp;&lt;/font&gt;&lt;div&gt;&lt;font style=&quot;font-size: 11px;&quot;&gt;Layer&lt;/font&gt;&lt;/div&gt;" style="text;html=1;align=center;verticalAlign=middle;resizable=0;points=[];autosize=1;strokeColor=none;fillColor=none;" vertex="1" parent="1">
          <mxGeometry x="455" y="233.74" width="130" height="40" as="geometry" />
        </mxCell>
        <mxCell id="TRhWoTdORYvuP8BCEGIG-21" value="&lt;font style=&quot;font-size: 11px;&quot;&gt;Warehouse&lt;/font&gt;&lt;div&gt;&lt;font style=&quot;font-size: 11px;&quot;&gt;(Persistent Storage&lt;/font&gt;&lt;span style=&quot;font-size: 11px; background-color: transparent; color: light-dark(rgb(0, 0, 0), rgb(255, 255, 255));&quot;&gt;)&lt;/span&gt;&lt;/div&gt;" style="text;html=1;align=center;verticalAlign=middle;resizable=0;points=[];autosize=1;strokeColor=none;fillColor=none;" vertex="1" parent="1">
          <mxGeometry x="460" y="400.74" width="120" height="40" as="geometry" />
        </mxCell>
        <mxCell id="TRhWoTdORYvuP8BCEGIG-22" value="&lt;font style=&quot;font-size: 11px;&quot;&gt;kafka sink&lt;/font&gt;" style="text;html=1;align=center;verticalAlign=middle;resizable=0;points=[];autosize=1;strokeColor=none;fillColor=none;" vertex="1" parent="1">
          <mxGeometry x="332.51" y="378.74" width="70" height="30" as="geometry" />
        </mxCell>
        <mxCell id="TRhWoTdORYvuP8BCEGIG-23" value="" style="edgeStyle=orthogonalEdgeStyle;rounded=0;orthogonalLoop=1;jettySize=auto;html=1;entryX=0;entryY=0.5;entryDx=0;entryDy=0;" edge="1" parent="1">
          <mxGeometry relative="1" as="geometry">
            <mxPoint x="670" y="209.314807904965" as="sourcePoint" />
            <mxPoint x="744.98" y="209.56" as="targetPoint" />
          </mxGeometry>
        </mxCell>
        <mxCell id="TRhWoTdORYvuP8BCEGIG-24" value="" style="edgeStyle=orthogonalEdgeStyle;rounded=0;orthogonalLoop=1;jettySize=auto;html=1;exitX=1.001;exitY=0.468;exitDx=0;exitDy=0;exitPerimeter=0;" edge="1" parent="1" source="TRhWoTdORYvuP8BCEGIG-25" target="TRhWoTdORYvuP8BCEGIG-32">
          <mxGeometry relative="1" as="geometry" />
        </mxCell>
        <mxCell id="TRhWoTdORYvuP8BCEGIG-25" value="" style="rounded=0;whiteSpace=wrap;html=1;rotation=90;" vertex="1" parent="1">
          <mxGeometry x="564.72" y="174.01" width="146.11" height="69.05" as="geometry" />
        </mxCell>
        <mxCell id="TRhWoTdORYvuP8BCEGIG-26" value="" style="shape=image;verticalLabelPosition=bottom;labelBackgroundColor=default;verticalAlign=top;aspect=fixed;imageAspect=0;editableCssRules=.*;image=data:image/svg+xml,PHN2ZyB4bWxucz0iaHR0cDovL3d3dy53My5vcmcvMjAwMC9zdmciIHJvbGU9ImltZyIgdmlld0JveD0iNC42MDk5OTk2NTY2NzcyNDYgLTIuMzg0MTg1NzkxMDE1NjI1ZS03IDE0Ljc4MTk5ODYzNDMzODM3OSAyNCIgaGVpZ2h0PSI4MDAiIHdpZHRoPSI0OTIuNzMzMjg3ODExMjc5MyIgZmlsbD0iIzAwMDAwMCI+PHRpdGxlPkFwYWNoZSBLYWZrYSBpY29uPC90aXRsZT48cGF0aCBkPSJNMTYuMjYyLDEzLjI5M2MtMC45MzUsMC0xLjc3MiwwLjQxNC0yLjM0NiwxLjA2NmwtMS40Ny0xLjA0MWMwLjE1Ni0wLjQzLDAuMjQ2LTAuODkxLDAuMjQ2LTEuMzc0IGMwLTAuNDc1LTAuMDg2LTAuOTI4LTAuMjM3LTEuMzUybDEuNDY3LTEuMDNjMC41NzQsMC42NDksMS40MDksMS4wNiwyLjM0MSwxLjA2YzEuNzI1LDAsMy4xMjktMS40MDMsMy4xMjktMy4xMjkgcy0xLjQwNC0zLjEyOS0zLjEyOS0zLjEyOXMtMy4xMjksMS40MDMtMy4xMjksMy4xMjljMCwwLjMwOSwwLjA0NywwLjYwNywwLjEzLDAuODg5bC0xLjQ2OCwxLjAzIEMxMS4xODMsOC42NTMsMTAuMyw4LjEyMSw5LjI5NCw3Ljk1OVY2LjE5YzEuNDE3LTAuMjk4LDIuNDg1LTEuNTU3LDIuNDg1LTMuMDYxQzExLjc3OSwxLjQwMywxMC4zNzUsMCw4LjY1LDAgUzUuNTIyLDEuNDAzLDUuNTIyLDMuMTI5YzAsMS40ODQsMS4wNCwyLjcyOCwyLjQyOSwzLjA0N3YxLjc5MmMtMS44OTUsMC4zMzMtMy4zNDEsMS45ODctMy4zNDEsMy45NzYgYzAsMS45OTksMS40NiwzLjY1OSwzLjM3LDMuOTgxdjEuODkyYy0xLjQwMywwLjMwOC0yLjQ1NywxLjU2LTIuNDU3LDMuMDU0QzUuNTIyLDIyLjU5Nyw2LjkyNSwyNCw4LjY1LDI0czMuMTI5LTEuNDAzLDMuMTI5LTMuMTI5IGMwLTEuNDk1LTEuMDU0LTIuNzQ2LTIuNDU3LTMuMDU0di0xLjg5MmMwLjk2Ni0wLjE2MywxLjg0LTAuNjcxLDIuNDYtMS40MzFsMS40OCwxLjA0OGMtMC4wODIsMC4yNzktMC4xMjgsMC41NzQtMC4xMjgsMC44OCBjMCwxLjcyNSwxLjQwNCwzLjEyOSwzLjEyOSwzLjEyOXMzLjEyOS0xLjQwMywzLjEyOS0zLjEyOVMxNy45ODcsMTMuMjkzLDE2LjI2MiwxMy4yOTN6IE0xNi4yNjIsNS45NzcgYzAuODM3LDAsMS41MTcsMC42ODEsMS41MTcsMS41MTdzLTAuNjgsMS41MTctMS41MTcsMS41MTdjLTAuODM2LDAtMS41MTctMC42ODEtMS41MTctMS41MTdTMTUuNDI2LDUuOTc3LDE2LjI2Miw1Ljk3N3ogTTcuMTMzLDMuMTI5YzAtMC44MzYsMC42OC0xLjUxNywxLjUxNy0xLjUxN3MxLjUxNywwLjY4MSwxLjUxNywxLjUxN1M5LjQ4Nyw0LjY0Niw4LjY1LDQuNjQ2UzcuMTMzLDMuOTY1LDcuMTMzLDMuMTI5eiBNMTAuMTY3LDIwLjg3MWMwLDAuODM2LTAuNjgsMS41MTctMS41MTcsMS41MTdzLTEuNTE3LTAuNjgxLTEuNTE3LTEuNTE3czAuNjgtMS41MTcsMS41MTctMS41MTdTMTAuMTY3LDIwLjAzNSwxMC4xNjcsMjAuODcxeiBNOC42NSwxNC4wNmMtMS4xNjcsMC0yLjExNi0wLjk0OS0yLjExNi0yLjExNmMwLTEuMTY3LDAuOTQ5LTIuMTE2LDIuMTE2LTIuMTE2YzEuMTY3LDAsMi4xMTYsMC45NDksMi4xMTYsMi4xMTYgQzEwLjc2NiwxMy4xMTEsOS44MTcsMTQuMDYsOC42NSwxNC4wNnogTTE2LjI2MiwxNy45MzljLTAuODM3LDAtMS41MTctMC42ODEtMS41MTctMS41MTdjMC0wLjgzNiwwLjY4LTEuNTE3LDEuNTE3LTEuNTE3IHMxLjUxNywwLjY4MSwxLjUxNywxLjUxN0MxNy43NzksMTcuMjU4LDE3LjA5OSwxNy45MzksMTYuMjYyLDE3LjkzOXoiLz48L3N2Zz4=;" vertex="1" parent="1">
          <mxGeometry x="631.12" y="150.73999999999998" width="21.29" height="34.53" as="geometry" />
        </mxCell>
        <mxCell id="TRhWoTdORYvuP8BCEGIG-27" value="" style="shape=image;verticalLabelPosition=bottom;labelBackgroundColor=default;verticalAlign=top;aspect=fixed;imageAspect=0;editableCssRules=.*;image=data:image/svg+xml,PHN2ZyB4bWxucz0iaHR0cDovL3d3dy53My5vcmcvMjAwMC9zdmciIHJvbGU9ImltZyIgdmlld0JveD0iNC42MDk5OTk2NTY2NzcyNDYgLTIuMzg0MTg1NzkxMDE1NjI1ZS03IDE0Ljc4MTk5ODYzNDMzODM3OSAyNCIgaGVpZ2h0PSI4MDAiIHdpZHRoPSI0OTIuNzMzMjg3ODExMjc5MyIgZmlsbD0iIzAwMDAwMCI+PHRpdGxlPkFwYWNoZSBLYWZrYSBpY29uPC90aXRsZT48cGF0aCBkPSJNMTYuMjYyLDEzLjI5M2MtMC45MzUsMC0xLjc3MiwwLjQxNC0yLjM0NiwxLjA2NmwtMS40Ny0xLjA0MWMwLjE1Ni0wLjQzLDAuMjQ2LTAuODkxLDAuMjQ2LTEuMzc0IGMwLTAuNDc1LTAuMDg2LTAuOTI4LTAuMjM3LTEuMzUybDEuNDY3LTEuMDNjMC41NzQsMC42NDksMS40MDksMS4wNiwyLjM0MSwxLjA2YzEuNzI1LDAsMy4xMjktMS40MDMsMy4xMjktMy4xMjkgcy0xLjQwNC0zLjEyOS0zLjEyOS0zLjEyOXMtMy4xMjksMS40MDMtMy4xMjksMy4xMjljMCwwLjMwOSwwLjA0NywwLjYwNywwLjEzLDAuODg5bC0xLjQ2OCwxLjAzIEMxMS4xODMsOC42NTMsMTAuMyw4LjEyMSw5LjI5NCw3Ljk1OVY2LjE5YzEuNDE3LTAuMjk4LDIuNDg1LTEuNTU3LDIuNDg1LTMuMDYxQzExLjc3OSwxLjQwMywxMC4zNzUsMCw4LjY1LDAgUzUuNTIyLDEuNDAzLDUuNTIyLDMuMTI5YzAsMS40ODQsMS4wNCwyLjcyOCwyLjQyOSwzLjA0N3YxLjc5MmMtMS44OTUsMC4zMzMtMy4zNDEsMS45ODctMy4zNDEsMy45NzYgYzAsMS45OTksMS40NiwzLjY1OSwzLjM3LDMuOTgxdjEuODkyYy0xLjQwMywwLjMwOC0yLjQ1NywxLjU2LTIuNDU3LDMuMDU0QzUuNTIyLDIyLjU5Nyw2LjkyNSwyNCw4LjY1LDI0czMuMTI5LTEuNDAzLDMuMTI5LTMuMTI5IGMwLTEuNDk1LTEuMDU0LTIuNzQ2LTIuNDU3LTMuMDU0di0xLjg5MmMwLjk2Ni0wLjE2MywxLjg0LTAuNjcxLDIuNDYtMS40MzFsMS40OCwxLjA0OGMtMC4wODIsMC4yNzktMC4xMjgsMC41NzQtMC4xMjgsMC44OCBjMCwxLjcyNSwxLjQwNCwzLjEyOSwzLjEyOSwzLjEyOXMzLjEyOS0xLjQwMywzLjEyOS0zLjEyOVMxNy45ODcsMTMuMjkzLDE2LjI2MiwxMy4yOTN6IE0xNi4yNjIsNS45NzcgYzAuODM3LDAsMS41MTcsMC42ODEsMS41MTcsMS41MTdzLTAuNjgsMS41MTctMS41MTcsMS41MTdjLTAuODM2LDAtMS41MTctMC42ODEtMS41MTctMS41MTdTMTUuNDI2LDUuOTc3LDE2LjI2Miw1Ljk3N3ogTTcuMTMzLDMuMTI5YzAtMC44MzYsMC42OC0xLjUxNywxLjUxNy0xLjUxN3MxLjUxNywwLjY4MSwxLjUxNywxLjUxN1M5LjQ4Nyw0LjY0Niw4LjY1LDQuNjQ2UzcuMTMzLDMuOTY1LDcuMTMzLDMuMTI5eiBNMTAuMTY3LDIwLjg3MWMwLDAuODM2LTAuNjgsMS41MTctMS41MTcsMS41MTdzLTEuNTE3LTAuNjgxLTEuNTE3LTEuNTE3czAuNjgtMS41MTcsMS41MTctMS41MTdTMTAuMTY3LDIwLjAzNSwxMC4xNjcsMjAuODcxeiBNOC42NSwxNC4wNmMtMS4xNjcsMC0yLjExNi0wLjk0OS0yLjExNi0yLjExNmMwLTEuMTY3LDAuOTQ5LTIuMTE2LDIuMTE2LTIuMTE2YzEuMTY3LDAsMi4xMTYsMC45NDksMi4xMTYsMi4xMTYgQzEwLjc2NiwxMy4xMTEsOS44MTcsMTQuMDYsOC42NSwxNC4wNnogTTE2LjI2MiwxNy45MzljLTAuODM3LDAtMS41MTctMC42ODEtMS41MTctMS41MTdjMC0wLjgzNiwwLjY4LTEuNTE3LDEuNTE3LTEuNTE3IHMxLjUxNywwLjY4MSwxLjUxNywxLjUxN0MxNy43NzksMTcuMjU4LDE3LjA5OSwxNy45MzksMTYuMjYyLDE3LjkzOXoiLz48L3N2Zz4=;" vertex="1" parent="1">
          <mxGeometry x="631.91" y="221.29" width="19.71" height="31.97" as="geometry" />
        </mxCell>
        <mxCell id="TRhWoTdORYvuP8BCEGIG-28" value="&lt;font style=&quot;font-size: 7px;&quot;&gt;loan&lt;/font&gt;" style="text;html=1;align=center;verticalAlign=middle;resizable=0;points=[];autosize=1;strokeColor=none;fillColor=none;fontStyle=1" vertex="1" parent="1">
          <mxGeometry x="617.77" y="175.74" width="40" height="30" as="geometry" />
        </mxCell>
        <mxCell id="TRhWoTdORYvuP8BCEGIG-29" value="&lt;font style=&quot;font-size: 7px;&quot;&gt;loan_txn&lt;/font&gt;" style="text;html=1;align=center;verticalAlign=middle;resizable=0;points=[];autosize=1;strokeColor=none;fillColor=none;fontStyle=1" vertex="1" parent="1">
          <mxGeometry x="614.6100000000001" y="245.74" width="50" height="30" as="geometry" />
        </mxCell>
        <mxCell id="TRhWoTdORYvuP8BCEGIG-30" value="" style="html=1;verticalLabelPosition=bottom;align=center;labelBackgroundColor=#ffffff;verticalAlign=top;strokeWidth=2;strokeColor=#004C99;shadow=0;dashed=0;shape=mxgraph.ios7.icons.data;fillColor=light-dark(#FFFFFF,var(--ge-dark-color, #121212));" vertex="1" parent="1">
          <mxGeometry x="1090" y="180.74" width="50" height="60" as="geometry" />
        </mxCell>
        <mxCell id="TRhWoTdORYvuP8BCEGIG-31" value="" style="edgeStyle=orthogonalEdgeStyle;rounded=0;orthogonalLoop=1;jettySize=auto;html=1;entryX=0.517;entryY=1.003;entryDx=0;entryDy=0;entryPerimeter=0;" edge="1" parent="1" source="TRhWoTdORYvuP8BCEGIG-32" target="TRhWoTdORYvuP8BCEGIG-36">
          <mxGeometry relative="1" as="geometry" />
        </mxCell>
        <mxCell id="TRhWoTdORYvuP8BCEGIG-32" value="" style="shape=image;verticalLabelPosition=bottom;labelBackgroundColor=default;verticalAlign=top;aspect=fixed;imageAspect=0;image=data:image/png,iVBORw0KGgoAAAANSUhEUgAAAKAAAACgCAMAAAC8EZcfAAACUlBMVEUAAAAAf6QAf78AgKoAgL////8AcJ8AcKDP7+/P7//Q7+8AcJ8Ad58AeJ/X7+/X7/cAd58AcJ8AdZ8AdaXU7/Ta7/Ta7/oAdZ8Ac58Ac6MAdKPT7/PW7vLX7/MAdKXY7/nY8vjY8vkAc6IAc6MAdqLW7PLW7/LW7/UAc6QAdqTX7/fZ8ffZ8vcAcqIAdaLU7PTU7/TV7PTX7/QAc6MAdaPY7/bY8fYAcqIAc6MAdKIAdKTW7fTW7fbW7/YAdKMAdKXX7/cAc6EAc6MAdKEAdKMAdKVqr8vV7fXX7/UAdKIAdKQAdaNgq8fW7fbW7/TY7/YAc6EAc6MAdaPW7fTX7/cAc6IAc6PW7fXX7/XX7/cAc6IAdKHW7fTW7fXY7/YAc6MAdaPW7/bY7/YAdKLW7vYAdKPX7/YAdKPX7/XX7/YAdKIAdKMAdKS23OnW7/XY7/YAdKIAdKMAdKS23OnW7/XY7/XY7/YAc6I+l7rX7/YAc6IAc6MAdaM+l7q33Oq43urX7/YAc6LW7/UAc6IAc6MAdKPW7/XX7/bY7/YAdKPJ5/HX7/YAdKMBdKMNfKgOfKgbg60cg60oirIoi7Ioi7MpirIpirMpi7Ipi7M1krc2krc2k7hDmrxDmr1Dm71EmrxQocJQosJRosJRo8Jeqcdeqsdeqshrscxsss15udF5udJ5utKFwdeGwNaGwdeTyNyTydyUyNyUydyg0OGh0OGt2Oau2Oav1+av2Oa73+u73+y83+u83+y84Ou84OzI5vHI5/HJ5/HK5/HW7vbW7/bX7/Z1t2gOAAAAjHRSTlMAAAAAAAAQEBAQECAgICAgITAwMDAwMDFAQEBAQEBPT09PUFBQUFBQX19fX19gYGBgYGBvb29vcHBwcHBwcH9/f4CAgICAgICAj4+Pj4+Pj5CQkJCen5+fn5+goKCgrq+vr6+wsL6+v7+/zs7Ozs7Oz8/Pz8/Pz97e3t/f39/f39/u7u/v7+/v7/7+/jMA3kAAAAtQSURBVHja5Vz7fxRXFZ+WdF3cuFsjPkKMWrSBWgkYqCgWSqC62EprSIMEpUa0WddHbWMEQ6IuCQnG3UzGlljKptCNhM1CXCHZlrwIAnv/Lzc7rzsz5z7mGT4fz0+QTGa/e875fs+5585cQfh/scjXmls7unoGBjJVGxhIJDpad9fXPQrY6po7es5nCHY+0fbMeqKM7O4iYsNQdu1eF5BfaBvIcFv/sfqg0Z3P2LT+Y4H5MbQ7kXFkPc8EAm+/1XlDb3W0Nm+pi0SU3IzU1ze3diWGADfW+gyv9oQZW6JtS4RI8S1tFmf7CtEML3GwPsT8o/rWREAQTcFN7Apx69F2I8b9vkDchcMbOhiyqZnbz+K56D1danEfJBypWn0XzmiPnYhFd+hYxHHpwXN4v0/uOxpycyccYn+tD9nXFXF7Mwzi8He8Ie8PwNwLb9oZ7zx1OpVCVUulksnO+M6GMPuGn9bp8lLIg/D2aMm3V8W2sz05ggg2kmzfGmXcc8+Qd2Gu69fcV41ueGt7CjHt9PGtVFdGtKTu/4w7fNsM7gs/l0Tclvw6zZF7tDC7SsQX1LucjQjhJhvoVIwUJ571QG9e0LUlemAEObDUcaIbQ22uEWr49jYkkWM73kC6/0GXCFV8Q993Aa8aaRLELUNuEKr4pL8i15aMMhJxvwt8d5EXRshF5wh3eYuvYgfoCLfZ1GfP8VUYHaUitKXYtf3e4yM5UUVop+qF/MFHcKKKsIe/c1D6F9FrfAhdeB5CqKjNS3YJMod8sFehxYC9slyr9Kd55IudjhJbh2G+NFQScBr5ZFAiKnU5YUOhpft+AUQXPmulpUKUVo4AK/lwF/lo3yARhSPIb8n4CggFi3APZ5Cb5eveRyhohAkuJislRLyLAkeoBjnEw5CC7/gApuzh4InCEAkFYBeicJBpPIn+WQb4cRAArXqoFJRjZIB/kK/IoWDstPnzlfEX0YWvTgUggbS6HKG78LmVYB1YsefhigcTOTrCduANkbDDIM14QpTQEIXIKSSxHFikbIIUnaWhaYRzgqyFB9SPJztwRaIAvOJJGkaI5SSK0ATLgVO0bSSnxbER0sIEFOA78geVyA6k7nMVnaohqIX11gAr/qEUkSwFnui8OMaNSGSaHLUGWKFIkcWQnM8lT54oDZsA/hShEosikj8rUYROGZUGinFUYwA51Wc4+5yFLGNT1iqZjQBNjDFOsiO8wtnnrIjsfeOb5tkX0HUN1GA/aqhcdIcR4SlOrk5xbGyL92kuVGIcMTmwQI9wiZMhJa6t9+tUFybMWr3mQDRJX6tLnH2OxPdwQInmQpnHvzBQGCGRqtJFzllDkfPphSzNhbJWD2/AKaymIL0IM9fyHNddg3M5am1p6gwOLFJT0CZDaNc9EMHvELcmYbNehbUvNk2VmHeZEsMjRQUwWy7gbdePqld0KP/bgdXZW/A9L3EyJMt1nXw3cdn40y9jAL9aveJtTGNUjnzsqghzXlcCeZK0NIXDNTpFFI6I7oow73VZUGrClo4mgkW4ROEIbxEGr1sp5JfNF66KUKri6yd5i/pLWIQL5K6duwhD182JkLjmoZKMx/gnOo3D+J/kKdIx50hiqlG/aJEaCSrJWIwPVX9/aO2fT8u/zFV/8m/gc2/bK8I5KOqkmxpL8lfMM8AOTaXVvC25L8J3gahf5ONJu1lnqtW4lwHQZhHOcxYWSGpST5g24t7WREb9/sveFmFai3YNyOxPmoRwQE9BIkBXRZiWHVBJ/iYAsF35HamXEV0UYXp2ACUZS0L5l5oKsgBmnRRhVnZYS3ISADjCAJjnEkGwCLOyw8qTvz1hARhGDICE7o2jCLNbNKvUhC0AG1gACd0bRxFmt2hKScZU8nMWgDuYAAndGy9DqAXIUpI1GteoAOOIITOk7o1TYuitl6Ukxy0yc5INkNC98RXhgr3y02kBqD1RNEFuqOHujasIS3zypPXJvzQuPBMYwEnKkiQPD1Q4ijCzRbtkBPhHFeBmFaD2qCK53SJ1bzQ55m3RZk3XpSztVsroJYKY3IYHKs6KMGb3zUxKWRpWU6BytlY5xGS7wdmizVi+nArwZ+r4yOSki7YWimv2AaUIO+gwjKOFzRjAVdqykzhQUQXeXhGmMEnBt0EbzpjblmV7AxXlz+wWYdn+A3w5Q0O9NkfXfzVBG32QS3LBSREmM0l9MFPbzDEHcdrmQKXCrvcn5xzNSWahr2wYHh0VMJlR7pu1OVDhkA7GIgbcdEpoTzzqAO9QxBjna8m2dNjoMBSAj2e0AWavmSUlVvcmeTAhrNiSfN174IRrs77X9HP9l5Mscc3zyO8Un58JTEridaS6bD9p5mnWRvfmYpI4C18nt1s1Pfo2RByZpDpD+XhaSXY0J7EwSW5YP6WnoN7ya39UYC8umeagCMu2A2tlzlb/vclSzmg6ssCHz9kkUdvOqUlgj6aErUpHS7FrXACdFGFs2alEeLNMmBHLFCHP3uOg26STIixvRVgijPX8mn9Ejj0OqjkqwrrKPN5vePio3RpjqoblWZuF75Y4JQaIVLuu0to+2A4rS5nl1p1RZkpPrVFEbqZ/o70cBwRw2QdYDzWjtLMxnSLbBMNGnZEDU95gKl2iZMJ7wB+sLTprThgoYkpCpdyKnjxAvWKbSZ26A7Hn8542yAi7mHFbnoYPLNZPaQ7En1cwJKGyfvckC2mKBLezYciBRiVUO4YrHgBcpYg6WPArKrjB6kBB+C7kwpIHCG+/U73VmMXG4YbkWUH4PPSEaBj63j5rIWgx4bF+wIGmGDNGWT5aUqhR3rM5ZHqurAnqB8TloAE+Kzwpv2dzxvwOeHgEYl/QQU4JjyVI79fFwb454CB31nxb/tzfWh8OjYH6EHCQY09mQIYANFF54uMrQ4ADP9EPM6RqjfDi6HqAAL+ovMl3Bn5GPgkXgeDS8Fffkz/xHOEUh0ZCHS0FBfCH6pvgpNcgkvDyLSii/EV50/Bl4nskZhc+UJpNKRCES8pC5wzlbaZT5l5ECg6hho92jEhshDBF8B+him+UfupVnDCo8h2hio9MEGD1ZOjZ/UWo4TvEeiOxEa0HQn58pvWdAaE45xe+eZEfnxDuJa/MZnyBV76RsYEPYDKG8LoPncN//2UPnyDso6xuvU9ELf1GefFBaYgtb296HF41/Ua32zj/oReY+2oDt6yHTlzS5t1nbJ1KGAOOM1rVEIo3PXdf5tc2j8kCiIIe6KNpyYvXZsvzmvtGX7Z9rNUm6OCggj7GmHIb5/LSB9rNzu0V7FsLOGjBJr+uIJbvXdfv9IazU9BamNM0xxDLS1N6LM696PQoJhjh6j9xiE4WAw/nsa2q0TdcHCIHI0RFfMIvFZdtxnYGn8c5yj4GUypONE5Ns9wYy/cKhn2+cy+6PZMuRjjebTVnejUpX3pYLlOxle/Nzxh3Icf+5PqIwArCXsQHsQJy+tZHIMpy+eHiremsadI6lvtdzJNTB9uJs92cdbdJzF7Jz87PLy7KeyGLix/dms1PXbROgcfzf3/Fq2Mb95HPeiu+4+ik3bHLhfuD+7w7+DJGOWdwISfZRTc+XdGm38cEL+0wdScp948xbnTSGjqUfmWj4K3F6Ic1LhSujo8xUI6NjV8tyHrU1yh4b4dZGrdQnL4Mo1zbcZiYLi4oFw4eFnyx2EkOJV4oFfIfXr4sSfJOiCRNXP0wX7yNCXn69Zjgl8WSrlvAdHej4Kc1Jh9peFWIJx9peHIuppygGzwcEwKzFpuRTqe7t24UArUYP8YKum8FjE62jU0/fjOdZoHrO9K0LuhURzYd6R5MQzArPxzsPtKynuB0Vza2xF/r7u7rS1etr+/N11+Lt2zyFNv/AHtiKr4WqVJEAAAAAElFTkSuQmCC;" vertex="1" parent="1">
          <mxGeometry x="622.11" y="348.24" width="35" height="35" as="geometry" />
        </mxCell>
        <mxCell id="TRhWoTdORYvuP8BCEGIG-33" value="" style="edgeStyle=orthogonalEdgeStyle;rounded=0;orthogonalLoop=1;jettySize=auto;html=1;entryX=0.429;entryY=0.999;entryDx=0;entryDy=0;entryPerimeter=0;" edge="1" parent="1" source="TRhWoTdORYvuP8BCEGIG-34" target="TRhWoTdORYvuP8BCEGIG-39">
          <mxGeometry relative="1" as="geometry">
            <Array as="points" />
          </mxGeometry>
        </mxCell>
        <mxCell id="TRhWoTdORYvuP8BCEGIG-34" value="" style="shape=image;verticalLabelPosition=bottom;labelBackgroundColor=default;verticalAlign=top;aspect=fixed;imageAspect=0;editableCssRules=.*;image=data:image/svg+xml,PHN2ZyB4bWxucz0iaHR0cDovL3d3dy53My5vcmcvMjAwMC9zdmciIHZpZXdCb3g9IjAuMDYxMzgzMTMxODkxNDg5MDMgLTQuNjE5MzU5OTcwMDkyNzczNGUtNyAzMS44Nzc3OTgwODA0NDQzMzYgMzIuMDAxMDc1NzQ0NjI4OTA2IiBoZWlnaHQ9IjgwMC4wMjY4OTM2MTU3MjI3IiB3aWR0aD0iNzk2Ljk0NDk1MjAxMTEwODQiIGZpbGw9IiMwMDAwMDAiPiYjeGE7ICA8cGF0aCBkPSJNMTEuMDY4IDMxLjk2OWMtMC43NzEtMC4wNTctMS43ODctMC4yNTEtMi42MzYtMC40OTYtMS40MjEtMC40MjctMi43NTUtMS4xMDktMy45MjctMi4wMTUtMC40ODktMC4zOC0xLjUzNi0xLjQyOC0xLjk2NC0xLjk2NC0xLjU4OC0yLTIuMzk2LTQuMTc3LTIuNDczLTYuNjY3LTAuMDQxLTEuMTcyIDAuMTA5LTIuMzQ0IDAuNDM3LTMuNDY4IDAuMDg4LTAuMzA4IDAuMDkzLTAuMzM5IDAuMDczLTAuNzA5LTAuMDIxLTAuNSAwLjAyNS0xIDAuMTM1LTEuNDg0IDAuMDg0LTAuMzI4IDAuMzA4LTAuODEyIDAuNDUzLTAuOTg5bDAuMDg4LTAuMTA5LTAuMDA5IDAuNTc3Yy0wLjAxNiAwLjgzMy0wLjAxNiAwLjgzMyAwLjI0OSAwLjM3MSAwLjU5OS0xLjA3OSAxLjM3NS0yLjA0NyAyLjI5Mi0yLjg3MSAwLjI2LTAuMjMzIDAuNDk1LTAuNDQ4IDAuNTE2LTAuNDc5IDAuMDI1LTAuMDI3IDAuMTE5LTAuMjM1IDAuMjEzLTAuNDY0IDAuMjc2LTAuNjg3IDAuNTItMS4wNjMgMC43OTEtMS4xOTcgMC4yMzUtMC4xMiAwLjQ0My0wLjA1NyAwLjQ5NiAwLjE0IDAuMDA5IDAuMDk1IDAuMDA0IDAuMTkzLTAuMDExIDAuMjg3LTAuMDE2IDAuMDczLTAuMDIxIDAuMTQxLTAuMDE2IDAuMjEzIDAuMDA1IDAgMC4yMDgtMC4xMDQgMC40NTMtMC4yMzMgMC44NjQtMC40NTkgMS40ODQtMC43MjQgMi43OTItMS4xODggMC40MjctMC4xNTEgMC44MzMtMC4zMDMgMC45LTAuMzI4IDAuMzY1LTAuMTU2IDAuNTYzLTAuNjc3IDAuNTMyLTEuMzg1LTAuMDA1LTAuMjI5LTAuMDUyLTAuNDU5LTAuMTQxLTAuNjcyLTAuMDQ3LTAuMTQ1LTAuMDk5LTAuMjg3LTAuMTYxLTAuNDIzLTAuMDY4LTAuMTI5LTAuMDU3LTAuMTU2IDAuMDUyLTAuMTI0IDAuMzEzIDAuMDg4IDAuNjgzIDAuMzkxIDAuOTE3IDAuNzM5IDAuMTM1IDAuMjA5IDAuMzY0IDAuNjk5IDAuMzY0IDAuNzkyIDAgMC4wNzMgMC4wNDcgMC4wMzcgMC4xNTItMC4xMTUgMC40MDUtMC42MDQgMC40MTEtMS4yOTIgMC4wMDQtMS45ODQtMC4xNTEtMC4yNTEtMC41NzItMC42NzItMC44NTktMC44NDktMC4zNjktMC4yMjQtMC41OTMtMC4yOTEtMC45ODktMC4yODctMC4zMDMgMC0wLjMzMy0wLjAwNC0wLjQyMy0wLjA3Ny0wLjEwOS0wLjA5NS0wLjE3Mi0wLjI5Mi0wLjE0NS0wLjQ1OSAwLjAzNi0wLjE4OCAwLjM1NS0wLjc5NyAwLjU3OS0xLjA5MyAwLjI2LTAuMzQ0IDAuODQzLTAuOTEyIDEuMjE5LTEuMTc3IDEuMjE5LTAuODY0IDIuNzQ0LTEuMzg1IDQuNTE1LTEuNTQ3IDAuNDI4LTAuMDQxIDAuNDQzLTAuMDQxIDAuNTMyLTAuMTM2IDAuMDgzLTAuMDg4IDAuMTA5LTAuMDk5IDAuMjkyLTAuMDk5IDAuMTc2IDAgMC4yMjggMC4wMTYgMC40MjcgMC4xMzEgMC4yMDggMC4xMiAwLjIyOSAwLjEyNCAwLjMxNyAwLjA4OCAwLjA2OC0wLjAzMSAwLjE3Ny0wLjAzNiAwLjM3NS0wLjAyNSAwLjIyNCAwLjAxNSAwLjI5MiAwLjAwOSAwLjM0OS0wLjAzMiAwLjEwNC0wLjA3MyAwLjIyOS0wLjA2MyAwLjQxNyAwLjAzMiAwLjA4OCAwLjA0NyAwLjM0OCAwLjEyNCAwLjU4MyAwLjE3NiAxLjA5MyAwLjI0IDEuOTY5IDAuNTc5IDIuODAzIDEuMDg0IDAuMTUxIDAuMDg4IDAuMjc2IDAuMTY3IDAuMjgxIDAuMTY3IDAuMDE1IDAgMC0wLjEyLTAuMDQzLTAuMzI4bC0wLjAxNS0wLjA5NSAwLjIwMyAwLjEyYzAuMjY1IDAuMTYxIDAuNTA1IDAuNDEyIDAuNjM2IDAuNjYxIDAuMDkzIDAuMTc3IDAuMTEzIDAuMjA0IDAuMTYxIDAuMTcyIDAuMDQxLTAuMDIwIDAuMDg4LTAuMDI1IDAuMTUxLTAuMDA1IDAuMDY4IDAuMDI3IDAuMTIgMC4xIDAuMjY1IDAuMzkxIDAuMDk5IDAuMTk5IDAuMTg4IDAuMzcxIDAuMTk5IDAuMzgxIDAuMDE1IDAuMDE1IDAuMTE1LTAuMDczIDAuMjI0LTAuMTk5IDAuMjMzLTAuMjU1IDAuNDQ3LTAuMzk2IDAuNzMzLTAuNDk1IDAuMjY3LTAuMDg4IDAuNDI4LTAuMDczIDAuNTQ3IDAuMDYzIDAuMTIgMC4xMzUgMC4xMiAwLjMwNy0wLjAwNCAwLjU3My0wLjI0IDAuNTA0LTAuMzQ5IDAuOTY4LTAuMzA4IDEuMzIzbDAuMDIxIDAuMTgxIDAuMTQ1LTAuMDk5YzAuMTMxLTAuMDkzIDAuMTYxLTAuMTA0IDAuNDA3LTAuMTA0IDAuMjU1IDAgMC41MzEgMC4wNzkgMC41MzEgMC4xNTEgMCAwLjAxNi0wLjA2OCAwLjEwOS0wLjE1MSAwLjIxNS0wLjI0NSAwLjI5Ni0wLjMwOCAwLjQ2OC0wLjMwMyAwLjgzMyAwLjAwNSAwLjMzMyAwLjAyMSAwLjQxMSAwLjIzNSAxLjE1NiAwLjA4NCAwLjI3NiAwLjE3MiAwLjYyOSAwLjIwMyAwLjc5MSAwLjAxNiAwLjEwNSAwLjA0MyAwLjIwNCAwLjA4NCAwLjI5NyAwLjA1MiAwIDAuNDE3LTAuMzAxIDAuNjM2LTAuNTI1IDAuMTI5LTAuMTMxIDAuMjQ5LTAuMjQgMC4yNi0wLjI0IDAuMDQxIDAgMC4xMiAwLjI0OSAwLjE1NiAwLjUgMC4wNDEgMC4yOTIgMC4wMTEgMC41NzktMC4wOTkgMC45MjEtMC4wNjMgMC4yMDktMC4wNjMgMC4yMjktMC4wMTYgMC4zMjggMC4wODQgMC4xNzIgMC4wOTMgMC4zNiAwLjAzNiAwLjU5NS0wLjA5MyAwLjQwMS0wLjI2NSAwLjY4MS0wLjcwOCAxLjE0NWwtMC4yMjkgMC4yNC0wLjAzNiAwLjMxN2MtMC4wMjEgMC4xNzctMC4wNjggMC40NDMtMC4xMDQgMC41ODgtMC4wMjcgMC4wOTUtMC4wNDEgMC4xOTMtMC4wNDcgMC4yODcgMC4wMTEgMC4wMTEgMC4wNDEgMCAwLjA2Ny0wLjAyNSAwLjA2OC0wLjA1NyAwLjI4Ny0wLjAyNyAwLjUwNSAwLjA3NyAwLjQ0MyAwLjIxNSAxLjI5MiAwLjk5MSAxLjYyNSAxLjQ5MWwwLjE4MyAwLjI2NSAwLjI4NyAwLjA3MmMxLjE3NyAwLjI5NyAyLjA5OSAxLjE1NyAyLjYwNCAyLjQzMyAwLjE2MSAwLjQgMC4yNzEgMC45MTEgMC4zNDkgMS41NzcgMC4wMjUgMC4yMDkgMC4wODMgMC4zOTEgMC4yMzkgMC43ODcgMC4xMTUgMC4yODcgMC4yMjQgMC41OTkgMC4yNDUgMC42OTMgMC4wNTcgMC4yNTUgMC4wMjUgMC41ODgtMC4wNzkgMC44MzMtMC4wNTIgMC4xMTUtMC4xMTUgMC4zMDctMC4xNTEgMC40MjctMC4xMiAwLjQzMi0wLjMxNyAwLjcxMy0wLjY1MSAwLjkyNy0wLjEwNCAwLjA2OC0wLjI3MSAwLjE0Ny0wLjM3MSAwLjE3Mi0wLjE4MSAwLjA0Ny0wLjc5NiAwLjMzMy0wLjc5NiAwLjM3MSAwIDAuMDA5IDAuMDQxIDAuMDI1IDAuMDk5IDAuMDQxIDAuMjkyIDAuMDU3IDAuNjc3IDAuMzMzIDAuNzc2IDAuNTU3IDAuMDE2IDAuMDQ3IDAuMDkzIDAuMTY3IDAuMTcyIDAuMjYgMC4yODEgMC4zNzUgMC4zNDkgMC43MTkgMC4yNDkgMS4yNmwtMC4wNTcgMC4yODEgMC4wODQgMC4xMDRjMC4yOTcgMC4zNiAwLjU0NyAwLjgyOSAwLjY0IDEuMTg4IDAuMTMxIDAuNTA1IDAuMTI1IDAuOTk1LTAuMDA5IDEuNzRsLTAuMDU3IDAuMzEyIDAuMTA5IDAuMTU2YzAuMjAzIDAuMjk3IDAuMjQ0IDAuNTc5IDAuMTQgMC45OC0wLjI2IDEuMDA1LTEuMDIxIDEuNzQ5LTIuMDgzIDIuMDMxbC0wLjIwOSAwLjA1MnYwLjI4MWMwIDAuMjEzLTAuMDE1IDAuMzEyLTAuMDY3IDAuNDIzLTAuMDg5IDAuMTg3LTAuMjQgMC4zMzctMC40MjggMC40MjctMC4yOTYgMC4xMjktMC43NDQtMC4wMTEtMC45NjMtMC4zMDgtMC4xMDktMC4xNTEtMC4xMi0wLjE1MS0wLjI3Ni0wLjE1MS0wLjEwNS0wLjAwNS0wLjIwNC0wLjAyMS0wLjMwMy0wLjA1Mi0wLjMyOC0wLjExNS0wLjQ4NC0wLjM0NC0wLjQ4OS0wLjcyOWwtMC4wMDUtMC4yMjQtMC4yMDgtMC4xMjVjLTAuMjgxLTAuMTYxLTAuNTMyLTAuMzY5LTAuNzUxLTAuNjA5bC0wLjIwMy0wLjIxOSAwLjEwNCAwLjIwOWMwLjQ0OCAwLjg4NS0wLjA1NyAxLjg0OC0xLjEyNSAyLjEzNS0wLjIxOSAwLjA2My0wLjM4NSAwLjA3My0xLjMyMyAwLjA5My0xLjQ0OCAwLjAzNy0xMi4wMjcgMC4wMzItMTIuNDg5LTAuMDA0ek0yOS4wNzkgMzEuNDMyYzAuMTM1LTAuMTE1IDAuMTg3LTAuNDE2IDAuMTA0LTAuNTc3LTAuMDc5LTAuMTUyLTAuMTg4LTAuMTk5LTAuNTExLTAuMjI0LTAuMzY5LTAuMDI3LTAuNDc1LTAuMDg0LTAuNDc1LTAuMjQgMC0wLjIwMyAwLjAzNy0wLjIxMyAwLjg1NS0wLjIyNCAwLjc5Ny0wLjAxMSAxLjAzNi0wLjA0NyAxLjM4NS0wLjIyNCAwLjMwOC0wLjE1NiAwLjY5OS0wLjY0IDAuNzM1LTAuOTEybDAuMDE2LTAuMTI0LTAuMjE5IDAuMDYzYy0wLjgzMyAwLjIzMy0xLjk1OSAwLjI3Ni0yLjc4MSAwLjEwNC0wLjg4NS0wLjE4OC0xLjcwNC0wLjY5My0xLjk5NS0xLjIzNWwtMC4wNzMtMC4xMzYtMC4wMzcgMC4wOTVjLTAuMDM2IDAuMTQ1LTAuMDQ3IDAuMjk2LTAuMDQxIDAuNDQ4LTAuMDA1IDAuMzI4IDAuMDA1IDAuMzY0IDAuMDk5IDAuNTU3IDAuMTkzIDAuNDA1IDAuNjA5IDAuODAxIDEuMTIgMS4wNTcgMC4yNjcgMC4xMzUgMC4yNzYgMC4xNCAwLjI1NiAwLjIzOWwtMC4wNTIgMC4zMjNjLTAuMDUyIDAuMjgxLTAuMDI3IDAuNDMzIDAuMTA0IDAuNTg0IDAuMTM1IDAuMTUxIDAuMzMzIDAuMjQgMC41NDEgMC4yMjkgMC4xMjUgMCAwLjIwMyAwLjAyMCAwLjI1NSAwLjA2MyAwLjI3NiAwLjIxMyAwLjU2MyAwLjI3MSAwLjcxNSAwLjEzNXpNMjIuNDA3IDMxLjE4OGMwLjYyLTAuMDg5IDAuODE3LTAuMDk1IDEuMTUxLTAuMDE2IDAuNjc3IDAuMTQ1IDEuMzggMC4wMjUgMS42ODgtMC4yOTIgMC4yMDMtMC4yMTMgMC4yNjUtMC41NDcgMC4xNC0wLjc1NS0wLjE1Ni0wLjI1Ni0wLjU2My0wLjQyOC0xLjAxMS0wLjQyOC0wLjMxMiAwLTAuNDczIDAuMDQ4LTEuMDE1IDAuMjc2LTAuMTY3IDAuMDczLTAuMzMzIDAuMTQxLTAuNTA1IDAuMTkzLTAuMjI5IDAuMDQ3LTAuMzU1LTAuMDg0LTAuMzU1LTAuMzY5IDAtMC4zMTMgMC4wODgtMC40MTIgMC43NTEtMC44OCAwLjU2Ny0wLjQwMSAwLjkwNS0wLjg2NSAwLjk4OS0xLjM0OSAwLjAzNi0wLjIyNC0wLjAwNS0wLjUzNy0wLjA4NC0wLjYwOS0wLjEyNS0wLjA2My0wLjI1NS0wLjEwOS0wLjM5MS0wLjE0MS0xLjEwOS0wLjMyOC0xLjYxNS0wLjc0OS0yLjA5OS0xLjc0NC0wLjE4OC0wLjM5MS0wLjM0NC0wLjc5Ny0wLjQ2NC0xLjIxMy0wLjA1Ny0wLjE5OS0wLjEyNC0wLjM5MS0wLjIwMy0wLjU3OS0wLjM2LTAuNzk3LTEuMjQtMS41MTEtMi4yNDUtMS44MzktMC40MjctMC4xMzYtMC42OTctMC4xODgtMS4zOC0wLjI0NS0wLjI0OS0wLjAyMC0wLjUtMC4wNDctMC43NDktMC4wNzJsLTAuMTYxLTAuMDI3IDAuMjI0LTAuMTE1YzAuMjc2LTAuMTQgMC40NzMtMC4yMDMgMC43NzEtMC4yNDQgMC40MTYtMC4wNjMgMC43MDMtMC4wNzkgMS4wMTEtMC4wNDMgMS4yMjggMC4xNDEgMi4xNTYgMC43NzIgMi44MDcgMS45MTcgMC4yNDUgMC40MjcgMC40MTcgMC44NjQgMC41ODggMS40NjggMC4xOTkgMC43MDQgMC4zNzYgMS4wNTcgMC43MTUgMS40MTIgMC41NDcgMC41ODQgMS4yNzYgMC44NDQgMi4zNTMgMC44NDQgMC4yNCAwIDAuNTM3LTAuMDE2IDAuNjU2LTAuMDM2IDAuNTA1LTAuMDY4IDEuMDMyLTAuMjUxIDEuNDE3LTAuNDg1IDAuNDIxLTAuMjQ5IDAuODE3LTAuNzE5IDAuOTQ4LTEuMTIgMC4wMzYtMC4xMTkgMC4wODMtMC4yMTkgMC4wOTktMC4yMTkgMC4wMjEgMCAwLjE0MSAwLjAyNyAwLjI3MSAwLjA1MiAwLjIxOSAwLjA1MyAwLjI1MSAwLjA1MyAwLjUxNiAwIDAuNDIxLTAuMDc3IDAuNTM2LTAuMDY3IDAuNjQgMC4wNDggMC4xNjcgMC4xNzEgMC4zNzEgMC4yMDMgMC42MDQgMC4wOTMgMC4wODktMC4wNTIgMC4xNzItMC4xMiAwLjIzNS0wLjIwMyAwLjA3OS0wLjEwNSAwLjA5NS0wLjE1NyAwLjA4OS0wLjI3Ni0wLjAxMS0wLjE0MS0wLjAxNi0wLjE0Ny0wLjI2MS0wLjMwOC0wLjA4OC0wLjA1Mi0wLjE3Mi0wLjEwOS0wLjI0NC0wLjE3NyAwLTAuMDA1IDAuMDU3LTAuMDU3IDAuMTI5LTAuMTA0IDAuMTA1LTAuMDY4IDAuMTY3LTAuMDgzIDAuMjYxLTAuMDc3IDAuMTM1IDAuMDA5IDAuMTM1LTAuMDA1IDAuMDA1LTAuMjYxLTAuMTE1LTAuMjM1LTAuMzAzLTAuNDIxLTAuNTM3LTAuNTMxLTAuNDQ4LTAuMjE5LTAuOTU3LTAuMjE5LTEuNTI1IDAtMC4zNDQgMC4xMzUtMC4zOTYgMC4xMzUtMC42MzEgMC4wMzEtMC4zMDctMC4xMzUtMC42Mi0wLjE4MS0xLjA0MS0wLjE1Ni0wLjUyNyAwLjAzMS0wLjg2OS0wLjAyNS0xLTAuMTU2bC0wLjA5OS0wLjA5OSAwLjQxNi0wLjA0M2MwLjY1Ni0wLjA1NyAwLjg0NC0wLjExNSAxLjQyMy0wLjQzMiAwLjM1OS0wLjE5NyAwLjU3Mi0wLjI0OSAxLjEwOS0wLjI4MSAwLjc3MS0wLjA0NyAxLjE0LTAuMTc3IDEuMzQzLTAuNDg0IDAuMDczLTAuMTA5IDAuMTE1LTAuMTQxIDAuMTQ3LTAuMTIgMC40NjggMC4xMTUgMC45MzctMC4xNzcgMS4wMzYtMC42NTEgMC4wMjEtMC4xMDkgMC4wMTYtMC4xMTUtMC4zMTctMC40MTItMC4xMi0wLjA5OS0wLjIzNS0wLjIwOC0wLjMzOS0wLjMyMyAwLTAuMDExIDAuMDUyLTAuMDY4IDAuMTE1LTAuMTIgMC4xODgtMC4xNjcgMC4zMjMtMC4xNCAwLjcwOCAwLjE0MSAwLjA2OCAwLjA1MiAwLjA3MyAwLjA1MiAwLjA3My0wLjAwNSAwLTAuMTI1LTAuMDc5LTAuMzMzLTAuMzAzLTAuODEzLTAuMjY1LTAuNTYxLTAuMjg3LTAuNjI0LTAuMzM5LTEuMDcyLTAuMTYxLTEuMzc2LTAuOS0yLjUyMS0yLjA1Ny0zLjE5My0wLjA4OC0wLjA1Ny0wLjE4MS0wLjEwOS0wLjI4MS0wLjE1MS0wLjAwOSAwLTAuMDY3IDAuMDkzLTAuMTI0IDAuMjA4LTAuMDU3IDAuMTItMC4xMzYgMC4yMzUtMC4yMjQgMC4zMzMtMC4xIDAuMTA0LTAuMTQxIDAuMTMxLTAuMjQgMC4xMzEtMC4xNCAwLTAuMjQtMC4wNzMtMC4yNC0wLjE3NyAwLTAuMDQxIDAuMDQzLTAuMTY3IDAuMDk1LTAuMjc2IDAuMTYxLTAuMzQ5IDAuMjA4LTAuNTg4IDAuMTYxLTAuODYtMC4xMDktMC42NC0wLjcwOC0xLjM1My0xLjQ1OS0xLjc0OS0wLjI5Mi0wLjE1MS0wLjMyMy0wLjE0NS0wLjM0NCAwLjA0MS0wLjAyMCAwLjIxOSAwLjAyNyAwLjY1NiAwLjEwNCAwLjk0OCAwLjAzMiAwLjEzNiAwLjE1NiAwLjQ2NCAwLjI2NyAwLjcxOSAwLjI5MSAwLjY2NyAwLjM4IDAuOTY0IDAuMzggMS4yNTYgMC4wMDUgMC4xMjQtMC4wMTEgMC4yNDQtMC4wNTIgMC4zNTktMC4wODQgMC4xNzctMC4yMTUgMC4zMjMtMC4zNzYgMC40MjctMC4xMDkgMC4wNTctMC4yMzMgMC4wNjMtMC4yMDggMC4wMDUgMC4xNjctMC4zODUgMC4yMjQtMC41NzIgMC4yNC0wLjgwNyAwLjAxNi0wLjMzMy0wLjAyNy0wLjQ4OS0wLjMxMy0xLjA3My0wLjI4NS0wLjU4OC0wLjM2NC0wLjkwNy0wLjM0OC0xLjM5MWwwLjAxNS0wLjMzOS0wLjA3NyAwLjE1MmMtMC4xMDQgMC4xODctMC4yMTMgMC4zNjktMC4zMzMgMC41NDctMC40MDcgMC42MjktMC41MzYgMC45NjgtMC41MzYgMS4zOTEgMCAwLjM5NiAwLjE1MSAwLjk0MyAwLjM2OSAxLjMzMyAwLjA0MSAwLjA3NyAwLjA3MyAwLjE0NSAwLjA2MyAwLjE1Ni0wLjA3My0wLjA0MS0wLjEzNi0wLjA5My0wLjE5My0wLjE1MS0wLjE3Ny0wLjE3Mi0wLjQzMi0wLjYwNS0wLjQzMi0wLjc0IDAtMC4wOTMtMC4wNTctMC4wNzMtMC4zMTcgMC4wOTMtMC40ODkgMC4zMTMtMC44MzkgMC42MzEtMS4zMDMgMS4xNzctMC42NzcgMC44MDMtMS41OTMgMS40MDEtMi43MTkgMS43NzEtMC4yNjUgMC4wODktMS4xMzEgMC4zMTctMS45MTYgMC41MTYtMi4xNjMgMC41MzYtMi45MTcgMC44MDEtMy45MTcgMS4zOC0xLjk3OSAxLjEzNi0zLjAxNiAyLjY2Ny0zLjIxOSA0Ljc1MS0wLjA3MyAwLjc0OSAwLjAzMSAxLjg4IDAuMjQ1IDIuNjkyIDAuMDM2IDAuMTItMC4xNzItMC4xNTEtMC4zMDMtMC40MDEtMC4yMjktMC40NDMtMC4zOC0wLjk5NS0wLjQ1My0xLjY4MS0wLjA2OC0wLjYxNSAwLjAwNS0xLjgzOSAwLjE1MS0yLjQ5NmwwLjAyMS0wLjA5My0wLjQ3OSAwLjAyMWMtMS4xNzcgMC4wNTItMi4xNTYgMC4zODUtMi45NTMgMS4wMTYtMC4xMiAwLjA4OC0wLjIzNSAwLjE5Mi0wLjM0NCAwLjI5NmwtMC4wNzkgMC4wOTkgMC4wMjEtMC4wOTNjMC4wMzYtMC4xNzIgMC4yMjQtMC41NDEgMC4zOC0wLjc0IDAuMzE5LTAuNDI3IDAuOTY0LTAuODI4IDEuNjM2LTEuMDMxIDAuMTc3LTAuMDUyIDAuNzE5LTAuMTgzIDEuMTk3LTAuMjkyIDAuNDg5LTAuMTA5IDAuOTA3LTAuMjAzIDAuOTM3LTAuMjA4IDAuMDI3LTAuMDExIDAuMTItMC4xNDUgMC4yMDQtMC4zMDMgMC4wODMtMC4xNjEgMC4yMzktMC40MDUgMC4zNDQtMC41NDcgMC4xMDQtMC4xNDUgMC4xODEtMC4yNzEgMC4xNzEtMC4yNzYtMC4xNzEgMC4wMTYtMC4zNDggMC4wMzctMC41MiAwLjA2OC0wLjI3NiAwLjA0MS0wLjg5NiAwLjEzMS0xLjM3MSAwLjE5Mi0wLjk1NyAwLjEyNS0xLjUgMC4yMjQtMiAwLjM3MS0xLjU0NyAwLjQ0OC0yLjQ0MyAxLjMxMi0yLjkwNSAyLjgxMmwtMC4xMiAwLjM5MSAwLjA2MyAwLjE4M2MwLjA5OSAwLjI5NyAwLjQzNyAwLjk1OSAwLjY2NyAxLjI5NyAwLjg4NSAxLjMxNyAyLjI3MSAyLjM5MSAzLjk3MyAzLjA2MSAwLjM4NSAwLjE1NyAwLjQzMyAwLjE4MyAwLjYzMSAwLjM4MSAwLjEyIDAuMTE1IDAuMjEzIDAuMjEzIDAuMjA4IDAuMjE5LTAuMDI1IDAuMDI1LTEuMDA1LTAuMjI5LTEuNDMyLTAuMzcxLTEuMDIxLTAuMzM5LTEuOTc5LTAuODUzLTIuODE3LTEuNTMxLTAuMTgzLTAuMTQxLTAuMzgtMC4yNzEtMC41ODktMC4zNzUtMC42OTctMC4zNTUtMS4zMjgtMC44MjQtMS44NjktMS4zODEtMC4yNi0wLjI2NS0wLjQ3OS0wLjU2Ny0wLjY1MS0wLjg5NWwtMC4xMzYtMC4yNTYgMC4xOTMgMC4xODNjMC40MjcgMC4zOTEgMS4wNDcgMC43OTIgMS4zNDggMC44NzUgMC4wNzMgMC4wMjEgMC4wNjggMC4wMDUtMC4wNTctMC4yMTMtMC4xODctMC4zMzktMC4zNDgtMC42ODgtMC40ODQtMS4wNDctMC4wODMtMC4yNC0wLjIxMy0wLjQ2NC0wLjM3NS0wLjY1Ni0wLjk5NS0xLjI5Ny0xLjcyNC0yLjYtMi4yMzUtMy45OTFsLTAuMTU2LTAuNDMyLTAuMDI3IDAuMTQ3Yy0wLjAyMCAwLjIzMy0wLjAzMSAwLjQ3My0wLjAzMSAwLjcxOWwtMC4wMDUgMC41NzIgMC4xODggMC41MTZjMC4xOTIgMC41MjcgMC44ODUgMi4zOTYgMC45NDMgMi41NTIgMC4wMjAgMC4wNDcgMC4wMjUgMC4wODkgMC4wMjAgMC4wODlzLTAuMTItMC4xNDEtMC4yNDktMC4zMDhjLTAuMzA4LTAuMzg1LTAuNjQ3LTAuODk2LTAuNzA4LTEuMDU3bC0wLjA1My0wLjEyNSAwLjAyMSAwLjEwOWMwLjA5OSAwLjYgMC4zNjUgMS40OTUgMC42MiAyLjEgMC43ODEgMS44MzMgMi4wNjggMy40NDMgMy42MzEgNC41NDEgMS41MiAxLjA3MyAzLjU4OCAxLjgyMyA1LjQxNiAxLjk3MyAwLjE3NyAwLjAxMSAyLjc3NiAwLjAyNyA1Ljc4MSAwLjAzMiA0LjY5MyAwIDUuNTA1LTAuMDA1IDUuNzk3LTAuMDQ3ek0yNC42NTEgMjIuMjk3Yy0wLjM1My0wLjA3My0wLjY5Mi0wLjE5My0xLjAxMS0wLjM2NS0wLjYxMy0wLjM1OS0xLjA1Mi0wLjk4OS0xLjA5My0xLjU3Ny0wLjAxNi0wLjIwOS0wLjAxNi0wLjIwOSAwLjAzMi0wLjEgMC4yNzYgMC43MDQgMC44MTIgMS4yNzIgMS41NDcgMS42NDcgMC4zMzkgMC4xNjcgMC41MjUgMC4yMzkgMC45MjEgMC4zMzlsMC4zNTUgMC4wOTMtMC4yOTItMC4wMDVjLTAuMTU2IDAtMC4zNjQtMC4wMTYtMC40NTktMC4wMzF6TTI4LjE2MSAxOS4wOTljLTAuMzIzLTAuMDc3LTAuNjgzLTAuMzY0LTAuNzgxLTAuNjI1LTAuMDYzLTAuMjEzLTAuMDUyLTAuNDM3IDAuMDI3LTAuNjRsMC4wNTItMC4wOTMgMC4wMjAgMC4xMjljMC4wNjMgMC4zMTkgMC4yODcgMC41OTUgMC42MDkgMC43MzUgMC4xIDAuMDQ3IDAuMzQ0IDAuMTA5IDAuNTQ4IDAuMTQ1IDAuMzA3IDAuMDUzIDAuNTA0IDAuMTExIDAuNjE5IDAuMTgzIDAuMDExIDAuMDA1IDAuMDIxLTAuMTQgMC4wMjctMC4zMTcgMC4wMDUtMC4zMTcgMC4wMDUtMC4zMjgtMC4wNDctMC4yNTEtMC4xMDkgMC4xNjMtMC4yNjUgMC4yODctMC4zNjUgMC4yODctMC4xMjQgMC0wLjY4MS0wLjIwMy0wLjgzMy0wLjMwMS0wLjE5Mi0wLjEyNS0wLjI0OS0wLjI1MS0wLjI0OS0wLjUxMSAwLTAuMTg4LTAuMDE2LTAuMjM1LTAuMDczLTAuMzAzbC0wLjA3My0wLjA3MiAwLjE1Mi0wLjE0MWMwLjI1NS0wLjIyOSAwLjQwNS0wLjI4NyAwLjc2LTAuMjg3IDAuMzQ0IDAgMC40ODkgMC4wNTIgMC43MjkgMC4yNTYgMC4zNDQgMC4yOTIgMC40NTkgMS4wMTEgMC4yNTUgMS42MDRsLTAuMDcyIDAuMjE5LTAuNTg5IDAuMDA1Yy0wLjIzOSAwLjAxMS0wLjQ3OSAwLTAuNzEzLTAuMDIxek0yOC41NDcgMTcuOTY0YzAuMTE1LTAuMDU3IDAuMTgzLTAuMTgzIDAuMTc3LTAuMzI4LTAuMDA1LTAuMDk1LTAuMDMxLTAuMTQxLTAuMTItMC4yMjQtMC4xODgtMC4xNzItMC40MzctMC4xMi0wLjU0NyAwLjEwOS0wLjE0NSAwLjMwMSAwLjE4OCAwLjYwNCAwLjQ4OSAwLjQ0OHpNMjUuODMzIDI5LjQxNmMtMC4xNTYtMC4yNDQtMC4yNzEtMC41MTUtMC4zNDQtMC43OTYtMC4xMDQtMC40OC0wLjAxMS0xLjI0IDAuMjA0LTEuNjA0bDAuMDgzLTAuMTQ3LTAuMjY1IDAuMDIxYy0wLjE0MSAwLjAxMS0wLjI4MSAwLjAyMS0wLjQyMyAwLjAyMWgtMC4xNTZ2MC4yMzljMCAwLjQ2OS0wLjIxOSAxLjA0Ny0wLjU2MyAxLjQ3NWwtMC4xNzYgMC4yMjQgMC4zMjggMC4wMjVjMC4xNzYgMC4wMTEgMC40MTYgMC4wNDcgMC41MzYgMC4wODQgMC4yNCAwLjA3MiAwLjU0MSAwLjI1NSAwLjcwOCAwLjQzMiAwLjEzMSAwLjE0IDAuMTU2IDAuMTUxIDAuMDY4IDAuMDI1ek0zMC4yMjQgMjguMjk3YzAuMjQtMC4wOTUgMC40MzctMC4yNzEgMC41NTctMC41IDAuMTE1LTAuMjM1IDAuMjM1LTAuODQ5IDAuMjYtMS4zMDMgMC4wMTEtMC4yODcgMC4wMDUtMC40MjctMC4wMzYtMC42MjUtMC4wNTItMC4yNDktMC4yNDUtMC42OTItMC4zNjUtMC44MzlsLTAuMDYxLTAuMDc3LTAuMTU3IDAuMTE1Yy0wLjM0MyAwLjI0NC0wLjYxOSAwLjI4Ny0wLjk3MyAwLjEyOS0wLjE2Ny0wLjA3Mi0wLjI2NS0wLjA5My0wLjUzMS0wLjEwNGwtMC4zMjQtMC4wMTEtMC4xMDQgMC4xODNjLTAuMzA3IDAuNTQ3LTAuNzgxIDAuOTgtMS4zNTMgMS4yMjlsLTAuMjQ1IDAuMTE1LTAuMDIxIDAuMTcyYy0wLjA4OCAwLjY5NyAwLjM3NiAxLjE4MyAxLjQwMSAxLjQ0MyAwLjUzNiAwLjE0IDAuNzEzIDAuMTU2IDEuMjc2IDAuMTUxIDAuNDIzLTAuMDExIDAuNTIxLTAuMDIwIDAuNjc3LTAuMDc3ek00LjQ3MyAyMy4zMzljMC4yOTItMS40MjEgMS4zNzEtMi4zNzUgMy4yMDQtMi44MjggMC40NTMtMC4xMTUgMS4yMDgtMC4yNiAyLjU3My0wLjUxMSAxLjc5Ni0wLjMyMyAyLjM0OC0wLjQ5NSAzLjAwOS0wLjkzN2wwLjQwMS0wLjI2NS0xLjY4OC0wLjAxMWMtMi4wNjctMC4wMTEtMi4zMzcgMC4wMTYtMy4xNDUgMC4yODEtMC41MTEgMC4xNzItMS4wMTYgMC4zOTYtMi40MDEgMS4wNzctMC42NTYgMC4zMjQtMS4yMDMgMC41ODQtMS4yMDggMC41NzktMC4wMTEtMC4wMTYgMC41LTAuNDY0IDAuNzYtMC42NjcgMC44NTUtMC42NzIgMi4yNTYtMS40NTMgMy4xNTItMS43NTEgMS41MzEtMC41MTUgMi43MDgtMC42MTMgNS4xODctMC40MzdsMS4xODggMC4wODkgMC40NjQtMC4xMTVjMC40NTItMC4xMTUgMC45MTYtMC4yMDQgMS43OTEtMC4zNDQgMC4xNTItMC4wMjEgMC4yOTctMC4wNTIgMC40NDgtMC4wODQgMC4wMDUtMC4wMDQtMC4wMTUtMC4wMjAtMC4wNTItMC4wMzEtMC4xNzItMC4wNTctMC4zMzMtMC4xNC0wLjQ4NC0wLjI0NS0wLjA2OC0wLjA0MS0wLjEzNi0wLjA4OC0wLjE5OS0wLjE0NSAwLTAuMDA1IDAuNDEyLTAuMDA1IDAuOTIzIDAgMC45MTYgMC4wMTEgMC45MjEgMC4wMTEgMS4yNDQtMC4wNzcgMi0wLjU0MyAzLjY0Ny0yLjAxNiA0LjUyMS00LjA2MyAwLjE4My0wLjQyOCAwLjUtMS4zMzMgMC40NzktMS4zNi0wLjAwOS0wLjAxMS0wLjExOSAwLjA0MS0wLjIzOSAwLjExNS0wLjMwOCAwLjE5My0wLjk1OSAwLjUxNi0xLjMzOSAwLjY2Ny0wLjk0MyAwLjM3NS0xLjkzMiAwLjU5OS0yLjk0MyAwLjY2MWwtMC4yODcgMC4wMjEtMC4yMjkgMC4yMTNjLTAuNzk3IDAuNzU1LTIgMS40NjgtMy4wOTkgMS44NDktMC42MTUgMC4yMTMtMC45OTUgMC4yOTYtMi45NjkgMC42NzItMC45NzkgMC4xODctMi4wODggMC40LTIuNDY4IDAuNDg0LTIuNzU2IDAuNTc3LTQuNTIxIDEuMzAxLTUuNDc1IDIuMjQ5LTAuMzIzIDAuMzE5LTAuNSAwLjU2OC0wLjY4NyAwLjk3NS0wLjEgMC4yMDMtMC4yMDQgMC4zNjQtMC4zNTUgMC41MzEtMC4yNjUgMC4zMTMtMC40NTMgMC42NzctMC41NjMgMS4wNzMtMC4xMiAwLjQ5NS0wLjA2OCAxLjIxOSAwLjE0NyAxLjgzOSAwLjA3MiAwLjIyNCAwLjI3MSAwLjY3NyAwLjI5MSAwLjY3NyAwLjAyMS0wLjA2MyAwLjAzNy0wLjEyIDAuMDQ3LTAuMTgzek0zLjM4IDIyLjE3N2wtMC4wMzEtMC40ODQtMC4zNDktMC41MjFjLTAuMjEzLTAuMzIzLTAuNDIxLTAuNjUxLTAuNjI1LTAuOTg0LTAuMjQ5LTAuNDI4LTAuODM5LTEuNTUyLTEtMS45MzdsLTAuMDY4LTAuMTU3IDAuMDE2IDAuMTI1YzAuMDM3IDAuMjQ1IDAuMTk5IDAuOTAxIDAuMzE3IDEuMjYgMC4yNTYgMC43OTcgMC42ODMgMS42NzcgMS4xNDcgMi4zNzYgMC4yMDggMC4zMTIgMC42MDQgMC44MzkgMC42MiAwLjgyMyAwLTAuMTY3LTAuMDExLTAuMzMzLTAuMDI3LTAuNXpNMy4zNjkgMjAuMzEyYy0wLjEwNC0wLjUyNS0wLjA1Ny0xLjI0NCAwLjExNS0xLjY2NyAwLjA2OC0wLjE3NiAwLjIxMy0wLjQ3MyAwLjIzNS0wLjQ3MyAwLjAwNSAwIDAuMDU3IDAuMTI1IDAuMTE1IDAuMjgxIDAuMDk5IDAuMjgxIDAuMjQgMC41NTIgMC4yODEgMC41NTIgMC4wMTEgMCAwLjA3OS0wLjA5MyAwLjE0NS0wLjIxMyAwLjA2OC0wLjExNSAwLjIxMy0wLjMyOCAwLjMyNC0wLjQ4bDAuMjA4LTAuMjcxLTAuMTMxLTAuMDc3Yy0wLjQwNy0wLjI2MS0wLjc3Ni0wLjg0OS0wLjkzNy0xLjQ5MS0wLjE1Ni0wLjYzNS0wLjIwMy0xLjU5OS0wLjEyLTIuMzkxIDAuMDI3LTAuMjE5IDAuMDQxLTAuNCAwLjAzMi0wLjQxMS0wLjAyMS0wLjAyMS0wLjQ2NCAwLjUzMS0wLjc0NSAwLjkyMS0wLjQ2NCAwLjY2MS0wLjg0OSAxLjM3Ni0xLjE1MSAyLjEybC0wLjE0MSAwLjM1NSAwLjEzNiAwLjM5MWMwLjQwNSAxLjEyIDAuOTczIDIuMTcyIDEuNjc3IDMuMTM1LTAuMDA1LTAuMDkzLTAuMDIxLTAuMTg3LTAuMDQzLTAuMjgxek01LjMyOCAxNy44MTJjLTAuMDkzLTAuMzg1LTAuMTM1LTAuODk1LTAuMTM1LTEuODAxIDAtMC44NzEgMC4wMDQtMSAwLjA3Mi0xLjM3NSAwLjA5NS0wLjQ5NiAwLjI1Ni0xLjA1NyAwLjQwNy0xLjM4NSAwLjExNS0wLjI0IDAuNDMyLTAuNzkyIDAuNDUzLTAuNzcyIDAuMDA1IDAuMDA1LTAuMDMyIDAuMzE5LTAuMDg0IDAuNjg4LTAuMTQgMS4wNzktMC4xNzIgMS40NzMtMC4xNTEgMi4wOTMgMC4wMjcgMC43MDkgMC4xNTEgMS42IDAuMjI5IDEuNiAwLjAzMSAwIDAuMDQxLTAuMTUyIDAuMDM2LTAuNjY3LTAuMDE2LTAuNzkyIDAuMDk1LTEuNTg0IDAuMzIzLTIuMzQ0IDAuMjY3LTAuOTMyIDAuODI4LTIuMTU2IDEuMzQ0LTIuOTI4IDAuMDQxLTAuMDU3IDAuMDc5LTAuMTE5IDAuMTA5LTAuMTgxIDAtMC4wMTEtMC4wODMtMC4wMDUtMC4xODcgMC4wMDktMS4yMjkgMC4xODgtMi4yMjQgMS4wMTEtMi43MjQgMi4yNTFsLTAuMTI1IDAuMzA3IDAuMDE2LTAuMjE5YzAuMDQxLTAuNjI0IDAuMTY3LTEuNSAwLjI0OS0xLjc5MSAwLjAxMS0wLjAzMi0wLjAyMSAwLjAxNS0wLjA2OCAwLjA5OS0wLjM2NCAwLjY4My0wLjcxOSAyLjYzNS0wLjcxOSA0LjAwNSAwIDEuMDA1IDAuMTgzIDEuNzI5IDAuNTQzIDIuMjEzIDAuMTcxIDAuMjI0IDAuNDQ3IDAuMzU5IDAuNDExIDAuMTk3ek03LjAyNyAxNi41ODhjMC4yOC0wLjE0IDAuNjcxLTAuMjQ5IDIuMzU5LTAuNjc2IDAuNzQ1LTAuMTg4IDEuNTIxLTAuMzk2IDEuNzM1LTAuNDY0IDAuNzgxLTAuMjU1IDEuNDk1LTAuNjg4IDIuMDg4LTEuMjYgMC42MTUtMC41OTUgMC44MjMtMC45MDcgMS4wMTYtMS41NTIgMC4wODgtMC4yOTcgMC4wODgtMC4yOTcgMC4xNDUtMC4yMjQgMC4yNTEgMC4zMjggMC4yNDUgMS4xMDktMC4wMDUgMS42MDQtMC4wMzYgMC4wNjMtMC4wNTIgMC4xMi0wLjAzNiAwLjEyIDAuMDY4IDAgMC40MjEtMC4yNjEgMC41NjgtMC40MTcgMC4zOTEtMC40MTYgMC41NjgtMC43OTcgMC44OC0xLjg1NSAwLjA0Ny0wLjE2NyAwLjA5OS0wLjMyOCAwLjE2MS0wLjQ4OSAwLjAyNy0wLjAzMSAwLjE0NSAwLjIzNSAwLjIxMyAwLjQ5NSAwLjAzNyAwLjE0MSAwLjA1MiAwLjMyNCAwLjA1MiAwLjU4OS0wLjAwNSAwLjQzNy0wLjA4MyAwLjc3MS0wLjI4NSAxLjE3MmwtMC4xMTUgMC4yMjQgMC4xNzEtMC4wODljMC40MTItMC4yMjQgMS4xNjctMS4xNDUgMS40OTEtMS44MjMgMC4xOTItMC4zNjQgMC4yODUtMC43NzEgMC4yODEtMS4xODMgMC0wLjU2Ny0wLjEyLTAuOTQzLTAuNDU5LTEuNDM3LTAuNDQ4LTAuNjQ1LTEuNDU5LTEuMzk2LTIuMzQ0LTEuNzQ0LTAuMTM2LTAuMDUyLTAuMjI0LTAuMTItMC4zNzUtMC4yOTItMC4xMTUtMC4xMjUtMC4xODgtMC4yMjQtMC4xNzItMC4yMjQgMC4wNDEgMCAwLjYzMSAwLjE1NiAxLjAyNSAwLjI3NiAwLjk0MyAwLjI4MSAxLjY3NyAwLjY5MiAyLjI1MSAxLjI1NSAwLjY1NiAwLjY1MiAwLjk2OCAxLjMzOSAwLjk2NCAyLjExNS0wLjAwNSAwLjY5My0wLjI1MSAxLjMxOS0wLjc4MSAyLjAyNy0wLjEwNSAwLjEzNS0wLjE4OCAwLjI1NS0wLjE4OCAwLjI2NSAwIDAuMDI3IDAuNTExLTAuMjAzIDAuODMzLTAuMzY5IDAuNDAxLTAuMjE1IDEuMDUyLTAuNjU3IDEuMzA3LTAuODgxIDAuMzQ0LTAuMzE3IDAuODEzLTEuMDkzIDEuMDExLTEuNjk3IDAuMTkzLTAuNTgzIDAuMjI0LTEuMjQ1IDAuMDg0LTEuNzkyLTAuMTItMC40NzktMC40MzctMS4wMzYtMC44MzMtMS40NjNsLTAuMTY3LTAuMTgzaDAuMTYxYzAuMDg4IDAgMC4xNzItMC4wMTYgMC4xNzctMC4wMzEgMC4wNDEtMC4wNjMtMC4wNTItMC4yMDQtMC4xOTktMC4yOTItMC4yNDQtMC4xNTYtMC4zNDgtMC4xNzItMC44MDctMC4xMTUtMC41MTEgMC4wNjgtMS4zMjggMC4wNjgtMS43MjQgMC0wLjM0NC0wLjA1Mi0wLjcyNC0wLjE3Mi0wLjkxMi0wLjI4MWwtMC4xMjUtMC4wNzkgMS4xNjctMC4wMTVjMC44ODctMC4wMTEgMS4yMjQtMC4wMzIgMS40MzMtMC4wNjggMC4yOTYtMC4wNTcgMC41MDUtMC4xNDEgMC41NzItMC4yMjQgMC4wNDMtMC4wNDcgMC4wMzItMC4wNjgtMC4wNzctMC4xODMtMC4zNi0wLjM2OS0xLjAyMS0wLjgyOC0xLjY5My0xLjE2Ny0xLjE1MS0wLjU4OC0yLjQyNy0wLjg4NS0zLjcxOS0wLjg4LTAuNTE2IDAtMS4xNDUgMC4wNTItMS40MjEgMC4xMmwtMC4wNzkgMC4wMTUgMC4wOTMtMC4wOTljMC4xMjUtMC4xMzUgMC41NDgtMC4zMzkgMC44NTUtMC40MTYgMC41NDctMC4xNDEgMS4zMDgtMC4xODggMi4wNDEtMC4xMzYgMS4wMzcgMC4wNzkgMS43NzYgMC4yNjUgMi43NzEgMC43MDggMC4yMTUgMC4wOTUgMC40MTIgMC4xNzIgMC40NDQgMC4xNjcgMC4wODMtMC4wMDQgMC4xODEtMC4wOTkgMC4yMjgtMC4yMTNsMC4wNDMtMC4wOTkgMC4wOTkgMC4yMTljMC4wNTcgMC4xMiAwLjA5OSAwLjIyOSAwLjA5OSAwLjI1MSAwIDAuMDc3IDAuMDYzLTAuMDExIDAuMDk5LTAuMTQ3IDAuMDExLTAuMDU3IDAuMDM3LTAuMTE1IDAuMDY4LTAuMTYxIDAuMDMyLTAuMDIwIDAuMTIgMC4xNjcgMC4yMjQgMC40ODlsMC4wNzMgMC4yMzUgMC4xNjctMC4xNjdjMC4xOTItMC4xOTIgMC4xOTctMC4xODcgMC4yMjkgMC4yMzVsMC4wMTUgMC4yNzYgMC4xNDctMC4wOTNjMC4wODMtMC4wNDggMC4xNjEtMC4wNzkgMC4xNzItMC4wNjggMC4wMDkgMC4wMTYgMC4wNDcgMC4xMjUgMC4wODggMC4yNDQgMC4xMTUgMC4zNjUgMC4yNzEgMC42NjMgMC40NTkgMC44NzEgMC4wODggMC4xMDkgMC4yMTkgMC4yOTIgMC4yODEgMC40MTEgMC4wNjMgMC4xMTUgMC4xMjQgMC4yMDQgMC4xNCAwLjIwNCAwLjA0Ny0wLjAyMSAwLjI3MS0wLjQxMiAwLjM3NS0wLjY3MiAwLjAzMi0wLjA4OSAwLjA3My0wLjE3MiAwLjEyNS0wLjI1MSAwLjA0NyAwIDAuMDczIDAuMzYgMC4wNTcgMC43NTYtMC4wMTEgMC4xMzUtMC4wMTEgMC4yNjUgMCAwLjM5NiAwLjA1Ny0wLjAzMiAwLjExNS0wLjA2OCAwLjE2Ny0wLjEwOSAwLjA1Mi0wLjA0OCAwLjExNS0wLjA4NCAwLjE3Ny0wLjExNSAwLjA2OCAwLTAuMDg0IDEtMC4xOTMgMS4yOTEtMC4wNDcgMC4xMDUgMC4wNDggMC4wNTIgMC4yNTYtMC4xNTYgMC4xMTUtMC4xMTUgMC4yMDgtMC4xODcgMC4yMDgtMC4xNjcgMCAwLjA4NC0wLjE4OCAwLjc4MS0wLjI1NSAwLjk1My0wLjA2MyAwLjE1MS0wLjEzMSAwLjI5Mi0wLjIwOSAwLjQzMi0wLjEyOSAwLjIzNS0wLjIzMyAwLjQ4LTAuMzE3IDAuNzI5bC0wLjAyMCAwLjA4OSAwLjE1Ni0wLjEwNWMwLjE3Mi0wLjExOSAwLjI0OS0wLjE1NiAxLjE4Ny0wLjUyIDAuODI4LTAuMzI4IDEuMjk3LTAuNTUyIDEuNDg1LTAuNzE5IDAuMTk3LTAuMTc3IDAuMzEyLTAuMzk2IDAuMzEyLTAuNjE1di0wLjE2N2wtMC4wOTMgMC4xMjVjLTAuMTc3IDAuMjQ0LTAuNTk1IDAuNTg4LTAuOTggMC44MTdsLTAuMTI5IDAuMDczIDAuMDk5LTAuMTExYzAuNDI3LTAuNDY4IDAuNzE5LTEuMTEzIDAuNzE5LTEuNjA0IDAtMC4xNzYtMC4wNDctMC40MzItMC4xMDQtMC41NjctMC4wNDEtMC4xLTAuMDQxLTAuMS0wLjI3NiAwLjQ4NC0wLjI3NiAwLjY3Mi0wLjUzNyAxLjIwOC0wLjcwOCAxLjQ2OC0wLjI2MSAwLjM4MS0wLjY0NyAwLjcyNC0wLjg4MSAwLjc4MS0wLjA3NyAwLjAyMS0wLjA4MyAwLjAxNi0wLjA1Ny0wLjAzNiAwLjA1Ny0wLjEwNCAwLjEzMS0wLjQyNyAwLjE2Ny0wLjcxMyAwLjAxNi0wLjE1MSAwLjAzNy0wLjg5NiAwLjA0OC0xLjY1MSAwLjAyMC0xLjM0OSAwLjA0MS0xLjcwOSAwLjEyNC0yLjA2OCAwLjA0My0wLjE3NyAwLjA0My0wLjE4My0wLjA5My0wLjU0Ny0wLjA2OC0wLjE3Ny0wLjE0NS0wLjM2LTAuMjI0LTAuNTM3LTAuMDg4LTAuMTc2LTAuMjg3LTAuNDUzLTAuMzI4LTAuNDUzLTAuMDExIDAtMC4wOTMgMC4xNjMtMC4xODMgMC4zNmwtMC4xNjEgMC4zNTUtMC4wMTYtMC4zMDNjLTAuMDA5LTAuMjQtMC4wMjUtMC4zMTctMC4wODMtMC4zOTYtMC4xNjEtMC4yMDMtMC4zNi0wLjM3NS0wLjU4NC0wLjUxMS0wLjMwNy0wLjE4Ny0wLjYyOS0wLjM0OC0wLjk1Ny0wLjQ4NC0wLjA3OS0wLjAyMS0wLjA3OS0wLjAyMS0wLjA1NyAwLjE1MSAwLjAxNSAwLjA5NSAwLjAzMSAwLjIwOSAwLjA0MSAwLjI1MSAwLjAyMSAwLjA3MyAwLjAxNiAwLjA3My0wLjEwNCAwLjA1Mi0wLjIwOC0wLjA0MS0wLjQwMS0wLjE1MS0wLjU0MS0wLjMxMi0wLjA4NC0wLjA4OS0wLjE1Ny0wLjE1Mi0wLjE2Ny0wLjE0NyAwLjAxNSAwLjEwNCAwLjA0MSAwLjIwNCAwLjA4MyAwLjMwMyAwLjA0NyAwLjE1NiAwLjA4OCAwLjI5MiAwLjA3OSAwLjI5Ni0wLjAyMSAwLjAyMS0wLjI0NS0wLjA2MS0wLjMzOS0wLjEyOS0wLjA5OS0wLjA5OS0wLjE4My0wLjIxMy0wLjI1MS0wLjMzMy0wLjA3Ny0wLjEzNi0wLjE3Ny0wLjI2NS0wLjI5Mi0wLjM4LTAuMjA4LTAuMTc3LTAuMzAxLTAuMjA0LTEuMjkxLTAuMzAzLTAuMjA4LTAuMDE2LTAuNDEyLTAuMDY4LTAuNTk5LTAuMTQ1LTAuMDUzLTAuMDIxLTAuMDQ4IDAgMC4wMjAgMC4xNTEgMC4wNDEgMC4wOTMgMC4wODkgMC4yMjQgMC4wOTkgMC4yODdsMC4wMjEgMC4xMTUtMC4xNC0wLjAzMmMtMC4yMTUtMC4wMzYtMC40NzUtMC4xNC0wLjcxNS0wLjI4Ny0wLjIwOC0wLjEyNC0wLjIyNC0wLjEyOS0wLjU5OS0wLjE1Ni0wLjQzNy0wLjAyNS0wLjg3NSAwLTEuMzA3IDAuMDg5bC0wLjI0IDAuMDU3IDAuMjQgMC4wMjVjMC4zMjMgMC4wMzcgMC41OTkgMC4xMjUgMC43NzEgMC4yNTEgMC4xMzUgMC4wOTkgMC4yNDkgMC4yMTMgMC4yNDkgMC4yNTUgMCAwLjAxMS0wLjI0OSAwLjAyNy0wLjU2MyAwLjAzNi0wLjkgMC4wMjEtMS40NjggMC4xNjctMi4yNzEgMC41NjMtMC40IDAuMjA0LTEuNSAwLjkxMi0xLjc3MSAxLjE0Ny0wLjE2MSAwLjEzNS0wLjQ1MyAwLjUyLTAuNDUzIDAuNTkzIDAgMC4wNDEgMC4wNjMgMC4wNzMgMC4yMzUgMC4xMiAxLjI5MiAwLjM2OSAyLjEwNCAxLjMxMiAyLjI2IDIuNjI1IDAuMTIgMC45NDcgMC4xIDEuNTMxLTAuMDU3IDIuMTYxLTAuMjQ0IDAuOTY4LTAuODc1IDEuOS0xLjU4MyAyLjMzOS0wLjI2IDAuMTYxLTAuNzk3IDAuMzY5LTAuOTU5IDAuMzY5aC0wLjA5M2wwLjE2Ny0wLjE4M2MwLjM4NS0wLjQyMSAwLjY2Ny0wLjk1OSAwLjg1NS0xLjY0IDAuMTA5LTAuMzggMC4xMTktMC43ODEgMC4wMjUtMS4wODQtMC4wNjMtMC4yMTktMC4wODMtMC4yMjQtMC4xNDUtMC4wMjUtMC4wODQgMC4yNDktMC4xOTkgMC40ODktMC4zMzkgMC43MTktMC4wNjggMC4wOTktMC41MTYgMC41NzItMS4wMjEgMS4wNzctMS4xNTEgMS4xNDEtMS42MjkgMS43MzUtMi4wNzcgMi41NTctMC4zNjUgMC42ODMtMC42MDUgMS40MTctMC43MjQgMi4xODMtMC4wNjMgMC41MjctMC4wNDggMS40MjEgMC4wMzEgMS40MjEgMC4wMTEgMCAwLjEyNS0wLjA0NyAwLjI1MS0wLjEwOXpNMjIuMjYgMTEuNzg3YzAuODI4LTAuMjc2IDEuNDc1LTAuNTc5IDIuMDE2LTAuOTM3IDAuMzkxLTAuMjYxIDAuOTA3LTAuNzY3IDEuMTk3LTEuMTc3IDAuMjg3LTAuNDA3IDAuNzA0LTEuMjg3IDAuNjM2LTEuMzQ5LTAuMDM2LTAuMDM2LTAuNTk5IDAuMTc3LTAuNzg3IDAuMjk3LTAuMjAzIDAuMTI5LTAuMzI4IDAuMjI5LTAuOTMyIDAuNzQ5LTAuNTkzIDAuNTExLTAuNzEzIDAuNTk1LTEuMDE2IDAuNzQtMC4zMTcgMC4xNTYtMC41MTEgMC4xNzItMC43MTMgMC4wNTItMC4wNDctMC4wMjEtMC4wODgtMC4wNTItMC4xMzEtMC4wODggMC0wLjAxMSAwLjA2My0wLjA1MiAwLjEzMS0wLjA5NSAwLjE0MS0wLjA4OCAwLjQwNy0wLjM0MyAwLjM4LTAuMzY5LTAuMTQ1IDAuMDU3LTAuMjgxIDAuMTI1LTAuNDExIDAuMjA4LTEuMDg0IDAuNjItMS42NTIgMS4xMzYtMS43NDUgMS41ODktMC4wMjUgMC4xMjkgMC4wMDUgMC4xMzUgMC4zNDkgMC4wMjAgMC44MzktMC4yNzEgMS44MjgtMC43OTEgMy4wNzctMS42MTUgMC4zNjUtMC4yMzkgMC41NDMtMC4zMzkgMC43MDQtMC4zODUgMC4wNzItMC4wMjUgMC4xNTEtMC4wNDEgMC4yMzUtMC4wNDcgMC4wMzYgMC4wNDEtMC4zNjUgMC41LTAuNjg4IDAuNzkyLTAuODA4IDAuNzI0LTEuNTQ3IDEuMjA4LTIuMzk2IDEuNTgzLTAuMjEzIDAuMDk1LTAuMzY5IDAuMTcyLTAuMzU1IDAuMTcyIDAuMDIxIDAgMC4yMTktMC4wNjMgMC40NDgtMC4xNHpNMjMuNDQ4IDYuNzM1YzAuMzQ0LTAuNTExIDAuNDQ4LTAuODk2IDAuNDk1LTEuNzcxIDAuMDQxLTAuODI4IDAuMTMxLTEuMzE5IDAuMzU1LTEuOTU5IDAuMDUyLTAuMTU2IDAuMDg4LTAuMjgxIDAuMDc3LTAuMjkyLTAuMDMxLTAuMDMxLTAuMzUzIDAuMzkxLTAuNDYzIDAuNjE1LTAuMzI0IDAuNjUxLTAuNTczIDEuNzkyLTAuNjkzIDMuMTQ1LTAuMDI1IDAuMjk3LTAuMDQ3IDAuNTUzLTAuMDQ3IDAuNTY4IDAgMC4wNTcgMC4xMzUtMC4wOTMgMC4yNzYtMC4zMDd6Ii8+JiN4YTs8L3N2Zz4=;" vertex="1" parent="1">
          <mxGeometry x="740" y="184.05" width="54.79" height="55" as="geometry" />
        </mxCell>
        <mxCell id="TRhWoTdORYvuP8BCEGIG-35" value="&lt;span style=&quot;font-size: 11px;&quot;&gt;Business Logic&lt;/span&gt;&lt;div&gt;&lt;span style=&quot;font-size: 11px;&quot;&gt;Layer&lt;/span&gt;&lt;/div&gt;" style="text;html=1;align=center;verticalAlign=middle;resizable=0;points=[];autosize=1;strokeColor=none;fillColor=none;" vertex="1" parent="1">
          <mxGeometry x="717.4" y="233.74" width="100" height="40" as="geometry" />
        </mxCell>
        <mxCell id="TRhWoTdORYvuP8BCEGIG-36" value="&lt;font style=&quot;font-size: 11px;&quot;&gt;Database&lt;br&gt;&lt;/font&gt;" style="text;html=1;align=center;verticalAlign=middle;resizable=0;points=[];autosize=1;strokeColor=none;fillColor=none;" vertex="1" parent="1">
          <mxGeometry x="1080" y="247.28" width="70" height="30" as="geometry" />
        </mxCell>
        <mxCell id="TRhWoTdORYvuP8BCEGIG-37" value="&lt;font style=&quot;font-size: 11px;&quot;&gt;kafka sink&lt;/font&gt;" style="text;html=1;align=center;verticalAlign=middle;resizable=0;points=[];autosize=1;strokeColor=none;fillColor=none;" vertex="1" parent="1">
          <mxGeometry x="604.61" y="378.74" width="70" height="30" as="geometry" />
        </mxCell>
        <mxCell id="TRhWoTdORYvuP8BCEGIG-38" value="" style="edgeStyle=orthogonalEdgeStyle;rounded=0;orthogonalLoop=1;jettySize=auto;html=1;entryX=0;entryY=0.5;entryDx=0;entryDy=0;exitX=0.432;exitY=0.006;exitDx=0;exitDy=0;exitPerimeter=0;" edge="1" parent="1" source="TRhWoTdORYvuP8BCEGIG-39" target="TRhWoTdORYvuP8BCEGIG-43">
          <mxGeometry relative="1" as="geometry" />
        </mxCell>
        <mxCell id="TRhWoTdORYvuP8BCEGIG-39" value="" style="rounded=0;whiteSpace=wrap;html=1;rotation=90;" vertex="1" parent="1">
          <mxGeometry x="848.99" y="187.47" width="104.53" height="63.58" as="geometry" />
        </mxCell>
        <mxCell id="TRhWoTdORYvuP8BCEGIG-40" value="" style="shape=image;verticalLabelPosition=bottom;labelBackgroundColor=default;verticalAlign=top;aspect=fixed;imageAspect=0;editableCssRules=.*;image=data:image/svg+xml,PHN2ZyB4bWxucz0iaHR0cDovL3d3dy53My5vcmcvMjAwMC9zdmciIHJvbGU9ImltZyIgdmlld0JveD0iNC42MDk5OTk2NTY2NzcyNDYgLTIuMzg0MTg1NzkxMDE1NjI1ZS03IDE0Ljc4MTk5ODYzNDMzODM3OSAyNCIgaGVpZ2h0PSI4MDAiIHdpZHRoPSI0OTIuNzMzMjg3ODExMjc5MyIgZmlsbD0iIzAwMDAwMCI+PHRpdGxlPkFwYWNoZSBLYWZrYSBpY29uPC90aXRsZT48cGF0aCBkPSJNMTYuMjYyLDEzLjI5M2MtMC45MzUsMC0xLjc3MiwwLjQxNC0yLjM0NiwxLjA2NmwtMS40Ny0xLjA0MWMwLjE1Ni0wLjQzLDAuMjQ2LTAuODkxLDAuMjQ2LTEuMzc0IGMwLTAuNDc1LTAuMDg2LTAuOTI4LTAuMjM3LTEuMzUybDEuNDY3LTEuMDNjMC41NzQsMC42NDksMS40MDksMS4wNiwyLjM0MSwxLjA2YzEuNzI1LDAsMy4xMjktMS40MDMsMy4xMjktMy4xMjkgcy0xLjQwNC0zLjEyOS0zLjEyOS0zLjEyOXMtMy4xMjksMS40MDMtMy4xMjksMy4xMjljMCwwLjMwOSwwLjA0NywwLjYwNywwLjEzLDAuODg5bC0xLjQ2OCwxLjAzIEMxMS4xODMsOC42NTMsMTAuMyw4LjEyMSw5LjI5NCw3Ljk1OVY2LjE5YzEuNDE3LTAuMjk4LDIuNDg1LTEuNTU3LDIuNDg1LTMuMDYxQzExLjc3OSwxLjQwMywxMC4zNzUsMCw4LjY1LDAgUzUuNTIyLDEuNDAzLDUuNTIyLDMuMTI5YzAsMS40ODQsMS4wNCwyLjcyOCwyLjQyOSwzLjA0N3YxLjc5MmMtMS44OTUsMC4zMzMtMy4zNDEsMS45ODctMy4zNDEsMy45NzYgYzAsMS45OTksMS40NiwzLjY1OSwzLjM3LDMuOTgxdjEuODkyYy0xLjQwMywwLjMwOC0yLjQ1NywxLjU2LTIuNDU3LDMuMDU0QzUuNTIyLDIyLjU5Nyw2LjkyNSwyNCw4LjY1LDI0czMuMTI5LTEuNDAzLDMuMTI5LTMuMTI5IGMwLTEuNDk1LTEuMDU0LTIuNzQ2LTIuNDU3LTMuMDU0di0xLjg5MmMwLjk2Ni0wLjE2MywxLjg0LTAuNjcxLDIuNDYtMS40MzFsMS40OCwxLjA0OGMtMC4wODIsMC4yNzktMC4xMjgsMC41NzQtMC4xMjgsMC44OCBjMCwxLjcyNSwxLjQwNCwzLjEyOSwzLjEyOSwzLjEyOXMzLjEyOS0xLjQwMywzLjEyOS0zLjEyOVMxNy45ODcsMTMuMjkzLDE2LjI2MiwxMy4yOTN6IE0xNi4yNjIsNS45NzcgYzAuODM3LDAsMS41MTcsMC42ODEsMS41MTcsMS41MTdzLTAuNjgsMS41MTctMS41MTcsMS41MTdjLTAuODM2LDAtMS41MTctMC42ODEtMS41MTctMS41MTdTMTUuNDI2LDUuOTc3LDE2LjI2Miw1Ljk3N3ogTTcuMTMzLDMuMTI5YzAtMC44MzYsMC42OC0xLjUxNywxLjUxNy0xLjUxN3MxLjUxNywwLjY4MSwxLjUxNywxLjUxN1M5LjQ4Nyw0LjY0Niw4LjY1LDQuNjQ2UzcuMTMzLDMuOTY1LDcuMTMzLDMuMTI5eiBNMTAuMTY3LDIwLjg3MWMwLDAuODM2LTAuNjgsMS41MTctMS41MTcsMS41MTdzLTEuNTE3LTAuNjgxLTEuNTE3LTEuNTE3czAuNjgtMS41MTcsMS41MTctMS41MTdTMTAuMTY3LDIwLjAzNSwxMC4xNjcsMjAuODcxeiBNOC42NSwxNC4wNmMtMS4xNjcsMC0yLjExNi0wLjk0OS0yLjExNi0yLjExNmMwLTEuMTY3LDAuOTQ5LTIuMTE2LDIuMTE2LTIuMTE2YzEuMTY3LDAsMi4xMTYsMC45NDksMi4xMTYsMi4xMTYgQzEwLjc2NiwxMy4xMTEsOS44MTcsMTQuMDYsOC42NSwxNC4wNnogTTE2LjI2MiwxNy45MzljLTAuODM3LDAtMS41MTctMC42ODEtMS41MTctMS41MTdjMC0wLjgzNiwwLjY4LTEuNTE3LDEuNTE3LTEuNTE3IHMxLjUxNywwLjY4MSwxLjUxNywxLjUxN0MxNy43NzksMTcuMjU4LDE3LjA5OSwxNy45MzksMTYuMjYyLDE3LjkzOXoiLz48L3N2Zz4=;" vertex="1" parent="1">
          <mxGeometry x="890" y="187.47" width="22.52" height="36.55" as="geometry" />
        </mxCell>
        <mxCell id="TRhWoTdORYvuP8BCEGIG-41" value="llr" style="text;html=1;align=center;verticalAlign=middle;resizable=0;points=[];autosize=1;strokeColor=none;fillColor=none;fontStyle=1;fontSize=13;" vertex="1" parent="1">
          <mxGeometry x="886.26" y="233.74" width="30" height="30" as="geometry" />
        </mxCell>
        <mxCell id="TRhWoTdORYvuP8BCEGIG-42" value="" style="edgeStyle=orthogonalEdgeStyle;rounded=0;orthogonalLoop=1;jettySize=auto;html=1;entryX=0.008;entryY=0.517;entryDx=0;entryDy=0;entryPerimeter=0;" edge="1" parent="1" source="TRhWoTdORYvuP8BCEGIG-43" target="TRhWoTdORYvuP8BCEGIG-30">
          <mxGeometry relative="1" as="geometry" />
        </mxCell>
        <mxCell id="TRhWoTdORYvuP8BCEGIG-43" value="" style="shape=image;verticalLabelPosition=bottom;labelBackgroundColor=default;verticalAlign=top;aspect=fixed;imageAspect=0;image=data:image/png,iVBORw0KGgoAAAANSUhEUgAAAKAAAACgCAMAAAC8EZcfAAACUlBMVEUAAAAAf6QAf78AgKoAgL////8AcJ8AcKDP7+/P7//Q7+8AcJ8Ad58AeJ/X7+/X7/cAd58AcJ8AdZ8AdaXU7/Ta7/Ta7/oAdZ8Ac58Ac6MAdKPT7/PW7vLX7/MAdKXY7/nY8vjY8vkAc6IAc6MAdqLW7PLW7/LW7/UAc6QAdqTX7/fZ8ffZ8vcAcqIAdaLU7PTU7/TV7PTX7/QAc6MAdaPY7/bY8fYAcqIAc6MAdKIAdKTW7fTW7fbW7/YAdKMAdKXX7/cAc6EAc6MAdKEAdKMAdKVqr8vV7fXX7/UAdKIAdKQAdaNgq8fW7fbW7/TY7/YAc6EAc6MAdaPW7fTX7/cAc6IAc6PW7fXX7/XX7/cAc6IAdKHW7fTW7fXY7/YAc6MAdaPW7/bY7/YAdKLW7vYAdKPX7/YAdKPX7/XX7/YAdKIAdKMAdKS23OnW7/XY7/YAdKIAdKMAdKS23OnW7/XY7/XY7/YAc6I+l7rX7/YAc6IAc6MAdaM+l7q33Oq43urX7/YAc6LW7/UAc6IAc6MAdKPW7/XX7/bY7/YAdKPJ5/HX7/YAdKMBdKMNfKgOfKgbg60cg60oirIoi7Ioi7MpirIpirMpi7Ipi7M1krc2krc2k7hDmrxDmr1Dm71EmrxQocJQosJRosJRo8Jeqcdeqsdeqshrscxsss15udF5udJ5utKFwdeGwNaGwdeTyNyTydyUyNyUydyg0OGh0OGt2Oau2Oav1+av2Oa73+u73+y83+u83+y84Ou84OzI5vHI5/HJ5/HK5/HW7vbW7/bX7/Z1t2gOAAAAjHRSTlMAAAAAAAAQEBAQECAgICAgITAwMDAwMDFAQEBAQEBPT09PUFBQUFBQX19fX19gYGBgYGBvb29vcHBwcHBwcH9/f4CAgICAgICAj4+Pj4+Pj5CQkJCen5+fn5+goKCgrq+vr6+wsL6+v7+/zs7Ozs7Oz8/Pz8/Pz97e3t/f39/f39/u7u/v7+/v7/7+/jMA3kAAAAtQSURBVHja5Vz7fxRXFZ+WdF3cuFsjPkKMWrSBWgkYqCgWSqC62EprSIMEpUa0WddHbWMEQ6IuCQnG3UzGlljKptCNhM1CXCHZlrwIAnv/Lzc7rzsz5z7mGT4fz0+QTGa/e875fs+5585cQfh/scjXmls7unoGBjJVGxhIJDpad9fXPQrY6po7es5nCHY+0fbMeqKM7O4iYsNQdu1eF5BfaBvIcFv/sfqg0Z3P2LT+Y4H5MbQ7kXFkPc8EAm+/1XlDb3W0Nm+pi0SU3IzU1ze3diWGADfW+gyv9oQZW6JtS4RI8S1tFmf7CtEML3GwPsT8o/rWREAQTcFN7Apx69F2I8b9vkDchcMbOhiyqZnbz+K56D1danEfJBypWn0XzmiPnYhFd+hYxHHpwXN4v0/uOxpycyccYn+tD9nXFXF7Mwzi8He8Ie8PwNwLb9oZ7zx1OpVCVUulksnO+M6GMPuGn9bp8lLIg/D2aMm3V8W2sz05ggg2kmzfGmXcc8+Qd2Gu69fcV41ueGt7CjHt9PGtVFdGtKTu/4w7fNsM7gs/l0Tclvw6zZF7tDC7SsQX1LucjQjhJhvoVIwUJ571QG9e0LUlemAEObDUcaIbQ22uEWr49jYkkWM73kC6/0GXCFV8Q993Aa8aaRLELUNuEKr4pL8i15aMMhJxvwt8d5EXRshF5wh3eYuvYgfoCLfZ1GfP8VUYHaUitKXYtf3e4yM5UUVop+qF/MFHcKKKsIe/c1D6F9FrfAhdeB5CqKjNS3YJMod8sFehxYC9slyr9Kd55IudjhJbh2G+NFQScBr5ZFAiKnU5YUOhpft+AUQXPmulpUKUVo4AK/lwF/lo3yARhSPIb8n4CggFi3APZ5Cb5eveRyhohAkuJislRLyLAkeoBjnEw5CC7/gApuzh4InCEAkFYBeicJBpPIn+WQb4cRAArXqoFJRjZIB/kK/IoWDstPnzlfEX0YWvTgUggbS6HKG78LmVYB1YsefhigcTOTrCduANkbDDIM14QpTQEIXIKSSxHFikbIIUnaWhaYRzgqyFB9SPJztwRaIAvOJJGkaI5SSK0ATLgVO0bSSnxbER0sIEFOA78geVyA6k7nMVnaohqIX11gAr/qEUkSwFnui8OMaNSGSaHLUGWKFIkcWQnM8lT54oDZsA/hShEosikj8rUYROGZUGinFUYwA51Wc4+5yFLGNT1iqZjQBNjDFOsiO8wtnnrIjsfeOb5tkX0HUN1GA/aqhcdIcR4SlOrk5xbGyL92kuVGIcMTmwQI9wiZMhJa6t9+tUFybMWr3mQDRJX6tLnH2OxPdwQInmQpnHvzBQGCGRqtJFzllDkfPphSzNhbJWD2/AKaymIL0IM9fyHNddg3M5am1p6gwOLFJT0CZDaNc9EMHvELcmYbNehbUvNk2VmHeZEsMjRQUwWy7gbdePqld0KP/bgdXZW/A9L3EyJMt1nXw3cdn40y9jAL9aveJtTGNUjnzsqghzXlcCeZK0NIXDNTpFFI6I7oow73VZUGrClo4mgkW4ROEIbxEGr1sp5JfNF66KUKri6yd5i/pLWIQL5K6duwhD182JkLjmoZKMx/gnOo3D+J/kKdIx50hiqlG/aJEaCSrJWIwPVX9/aO2fT8u/zFV/8m/gc2/bK8I5KOqkmxpL8lfMM8AOTaXVvC25L8J3gahf5ONJu1lnqtW4lwHQZhHOcxYWSGpST5g24t7WREb9/sveFmFai3YNyOxPmoRwQE9BIkBXRZiWHVBJ/iYAsF35HamXEV0UYXp2ACUZS0L5l5oKsgBmnRRhVnZYS3ISADjCAJjnEkGwCLOyw8qTvz1hARhGDICE7o2jCLNbNKvUhC0AG1gACd0bRxFmt2hKScZU8nMWgDuYAAndGy9DqAXIUpI1GteoAOOIITOk7o1TYuitl6Ukxy0yc5INkNC98RXhgr3y02kBqD1RNEFuqOHujasIS3zypPXJvzQuPBMYwEnKkiQPD1Q4ijCzRbtkBPhHFeBmFaD2qCK53SJ1bzQ55m3RZk3XpSztVsroJYKY3IYHKs6KMGb3zUxKWRpWU6BytlY5xGS7wdmizVi+nArwZ+r4yOSki7YWimv2AaUIO+gwjKOFzRjAVdqykzhQUQXeXhGmMEnBt0EbzpjblmV7AxXlz+wWYdn+A3w5Q0O9NkfXfzVBG32QS3LBSREmM0l9MFPbzDEHcdrmQKXCrvcn5xzNSWahr2wYHh0VMJlR7pu1OVDhkA7GIgbcdEpoTzzqAO9QxBjna8m2dNjoMBSAj2e0AWavmSUlVvcmeTAhrNiSfN174IRrs77X9HP9l5Mscc3zyO8Un58JTEridaS6bD9p5mnWRvfmYpI4C18nt1s1Pfo2RByZpDpD+XhaSXY0J7EwSW5YP6WnoN7ya39UYC8umeagCMu2A2tlzlb/vclSzmg6ssCHz9kkUdvOqUlgj6aErUpHS7FrXACdFGFs2alEeLNMmBHLFCHP3uOg26STIixvRVgijPX8mn9Ejj0OqjkqwrrKPN5vePio3RpjqoblWZuF75Y4JQaIVLuu0to+2A4rS5nl1p1RZkpPrVFEbqZ/o70cBwRw2QdYDzWjtLMxnSLbBMNGnZEDU95gKl2iZMJ7wB+sLTprThgoYkpCpdyKnjxAvWKbSZ26A7Hn8542yAi7mHFbnoYPLNZPaQ7En1cwJKGyfvckC2mKBLezYciBRiVUO4YrHgBcpYg6WPArKrjB6kBB+C7kwpIHCG+/U73VmMXG4YbkWUH4PPSEaBj63j5rIWgx4bF+wIGmGDNGWT5aUqhR3rM5ZHqurAnqB8TloAE+Kzwpv2dzxvwOeHgEYl/QQU4JjyVI79fFwb454CB31nxb/tzfWh8OjYH6EHCQY09mQIYANFF54uMrQ4ADP9EPM6RqjfDi6HqAAL+ovMl3Bn5GPgkXgeDS8Fffkz/xHOEUh0ZCHS0FBfCH6pvgpNcgkvDyLSii/EV50/Bl4nskZhc+UJpNKRCES8pC5wzlbaZT5l5ECg6hho92jEhshDBF8B+him+UfupVnDCo8h2hio9MEGD1ZOjZ/UWo4TvEeiOxEa0HQn58pvWdAaE45xe+eZEfnxDuJa/MZnyBV76RsYEPYDKG8LoPncN//2UPnyDso6xuvU9ELf1GefFBaYgtb296HF41/Ua32zj/oReY+2oDt6yHTlzS5t1nbJ1KGAOOM1rVEIo3PXdf5tc2j8kCiIIe6KNpyYvXZsvzmvtGX7Z9rNUm6OCggj7GmHIb5/LSB9rNzu0V7FsLOGjBJr+uIJbvXdfv9IazU9BamNM0xxDLS1N6LM696PQoJhjh6j9xiE4WAw/nsa2q0TdcHCIHI0RFfMIvFZdtxnYGn8c5yj4GUypONE5Ns9wYy/cKhn2+cy+6PZMuRjjebTVnejUpX3pYLlOxle/Nzxh3Icf+5PqIwArCXsQHsQJy+tZHIMpy+eHiremsadI6lvtdzJNTB9uJs92cdbdJzF7Jz87PLy7KeyGLix/dms1PXbROgcfzf3/Fq2Mb95HPeiu+4+ik3bHLhfuD+7w7+DJGOWdwISfZRTc+XdGm38cEL+0wdScp948xbnTSGjqUfmWj4K3F6Ic1LhSujo8xUI6NjV8tyHrU1yh4b4dZGrdQnL4Mo1zbcZiYLi4oFw4eFnyx2EkOJV4oFfIfXr4sSfJOiCRNXP0wX7yNCXn69Zjgl8WSrlvAdHej4Kc1Jh9peFWIJx9peHIuppygGzwcEwKzFpuRTqe7t24UArUYP8YKum8FjE62jU0/fjOdZoHrO9K0LuhURzYd6R5MQzArPxzsPtKynuB0Vza2xF/r7u7rS1etr+/N11+Lt2zyFNv/AHtiKr4WqVJEAAAAAElFTkSuQmCC;" vertex="1" parent="1">
          <mxGeometry x="990" y="194.05" width="35" height="35" as="geometry" />
        </mxCell>
        <mxCell id="TRhWoTdORYvuP8BCEGIG-44" value="&lt;font style=&quot;font-size: 11px;&quot;&gt;kafka sink&lt;/font&gt;" style="text;html=1;align=center;verticalAlign=middle;resizable=0;points=[];autosize=1;strokeColor=none;fillColor=none;" vertex="1" parent="1">
          <mxGeometry x="972.5" y="233.24" width="70" height="30" as="geometry" />
        </mxCell>
        <mxCell id="TRhWoTdORYvuP8BCEGIG-45" value="" style="rounded=0;whiteSpace=wrap;html=1;rotation=-90;" vertex="1" parent="1">
          <mxGeometry x="1200" y="178.24" width="160" height="80" as="geometry" />
        </mxCell>
        <mxCell id="TRhWoTdORYvuP8BCEGIG-46" value="" style="sketch=0;outlineConnect=0;fontColor=#232F3E;gradientColor=none;fillColor=#000000;strokeColor=#000000;dashed=0;verticalLabelPosition=bottom;verticalAlign=top;align=center;html=1;fontSize=12;fontStyle=0;aspect=fixed;pointerEvents=1;shape=mxgraph.aws4.quicksight_paginated_reports;" vertex="1" parent="1">
          <mxGeometry x="1265" y="150.74" width="30" height="37.74" as="geometry" />
        </mxCell>
        <mxCell id="TRhWoTdORYvuP8BCEGIG-47" value="" style="shape=image;verticalLabelPosition=bottom;labelBackgroundColor=default;verticalAlign=top;aspect=fixed;imageAspect=0;image=data:image/png,iVBORw0KGgoAAAANSUhEUgAAAgAAAAIACAYAAAD0eNT6AAAACXBIWXMAAA7DAAAOwwHHb6hkAAAAGXRFWHRTb2Z0d2FyZQB3d3cuaW5rc2NhcGUub3Jnm+48GgAAIABJREFUeJzt3Xm0ZlV55/FvzcwWVUQZpZAExEAsERWHACKTBkFbEUlM0ppEG8QhxiRGO1EhMWZoTZtooiZ27CxtpY0RGYLMIogJMonKYANFEmWQGmSQqoKq23/s+4br5Q7ve+/Z+9nnnO9nrb1KWHj3c95z6+zf+5wJJEmSJEmSJEmSJEmSJEmSJEmSJEmSJEmSJEmSJEmSJEmSJEmSJEmSJEmSJEmSJEmSJEmSJEmSJEmSJEmSJEmSJEmSJEmSJEmSJEmSJEmKtCC6AGW3DFg5PrYBnjT+75cC20cVJakaDwObx//3j4BHgHXAWmBTVFHKzwDQbguAfYD9gVXA3uNjFbA7sALYIag2Se33ECkI/AC4C1gz/uddwK3AncBYVHGaHwNAe2wDPBs4BDgQ+DngGbjAS4rzEPAd4Cbg28A1wLXYOWgFA0C9VgIvBl4APB84mNS2l6SabQKuA74BXAVcRjqloMoYAOqxCFgNHDU+jgAWRxYkSQ3YClwPXDw+ruDxaw4UyAAQaxlpsX81cCKwc2w5kpTdOuBs4AukQGAYCGIAKG8RcAxwCvByYHlsOZIUZgPwZeCzwEWkboEKMQCUsyfwS8B/I12lL0l63A+AfwA+AdwRXEsvGADyWkj6ln86cOT4P0uSprcVuBT4S+Bc7ApkYwDIYwfgF4G3AwcE1yJJbXUHqSPwcdLpAjXIANCsXYDfIrX5PbcvSc3YAPw18D9IDyZSAwwAzVgJvIX0jf9Js/y3kqS5eQj4FPAB4N7gWlrPADA/TwJ+h7T47xhciyT1xYPAR4A/BR4IrqW1FkUX0FILgV8m3b7yUtL9/JKkMpYBhwFvJD158Fq8WHBkdgBG9xLgQ6Rn8UuS4t0CvBM4L7qQNjEADG834E9I3/wlSfU5FzgN+PfoQtrAUwCzWwD8Cqndf2hwLZKk6e0HvAF4hPRmQl9VPAM7ADM7APhb0hv5JEntcRXwG8DN0YXUyg7A1BaQLi75R2Df4FokSaN7KvBrwGPA1dgNeAI7AE/0FNK3/uOjC5EkNeIi4PXA96MLqYkB4CedQHrIxMroQiRJjbqfFALOjS6kFp4CSBYB7wU+BmwfXIskqXnbkV7Dvi1wGZ4SsANAen7/Z4BjoguRJBVxOfBaev444b4HgEOALwJ7RRciSSrq34BXAtdFFxKlz++nfwXwVVz8JamPngpcAZwYXUiUvl4D8DbSxX5LowuRJIVZCpxEep/AVcG1FNe3ALAI+Cvg9/H0hyQpdcKPIt39dSE9ujiwT4vgEtLFfidFFyJJqtJZwOuAR6MLKaEvAWAZ8DnSeX9JkqZzHumL4iPRheTWhwCwHfAl4OjoQiRJrfBV4OXAg9GF5NT1ALA9cAHwouhCJEmtciVwHPBwdCG5dPk2wKXAF3DxlySN7kXA2cA20YXk0tUOwBLSA358oU+yGVg7PtaN//NmOpxsJQ1te9IXpqWkK+FXjP/pbdLJOcCr6OCFgV0MAIuA/0P/rvbfTHrv9beBm4DbgbvGx32BdUlqpycDe4+PfYGDgAOBA+hfOPgc6e6ALdGFaGYfJd3H2fVxNynovBV4LqnrIUm5LSEdc95GWhjvIf54WGJ8pIkPT/n8JvG/JLnGFuBrwLuA1XSzeyOpfRYAzyIdm64kHauij5e5xlsb+szUsFfQvV+8raRF/3Rg9+Y+KknKZnfgLaQwEH0MbXo8BpzQ3EelJhxCuqAt+pejqXE38EFgvyY/JEkqbH/gT0jHtOjjalPjIeDgJj8kzd1K4E7ifymaGNcDb6TDt51I6qXBS3e+Qfxxtonxb8BPNfoJaWSLgIuJ/2WY77gEOLzhz0aSavRi4DLij7vzHV+h28/Sqd4HiP8lmM+4HDis6Q9FklrgCOAK4o/D8xlnNv2haDgnkC6Si/4FmMu4hfScaUnqu1cAtxF/XJ7L2IoPnCtud+CHxO/8UcePSPfOes++JD1uKfAO0st3oo/To477gF2b/0g0lQWk1zVG7/RRxznAUzN8HpLUFbuT3uESfbwedXwFn81SxFuI39mjjPvp32OJJWk+Tia9uyT6+D3KeHOWT0L/6QDgx8Tv6GHHhfgAH0maiz1p111eDwNPz/JJiIXAVcTv5GHGo8BvY0tIkuZjAekRw48Rf1wfZnwNbw3M4jTid+4w4z7gqEyfgST10WG052mCb8z0GfTWHsAG4nfsbOOb47VKkpq1J3At8cf52cZ6YLdMn0EvfZH4nTrbOBvYPtcHIEliB+DLxB/vZxtn5foA+uZY4nfmbOMjpMcSS5LyWgR8lPjj/mzjJbk+gL5YBHyL+B050/hgtq2XJE3nd4k//s80bsAvhvNyKvE7cabx3nybLkmaRe0h4NfzbXq37QjcQ/wOnG68O9+mS5KG9B7i14Ppxr3ATvk2vbv+iPidN934w4zbLUkaTc1vhn1/xu3upF2AB4jfcVONj2TcbknS3NR6YeAGYOeM2905f0z8TptqnIsXdUhSjRYCXyJ+nZhqnJFxuztlJXV++78W7/OXpJptB/wL8evF5PEjYEXG7e6MGr/934NP+JOkNtiTdPFd9LoxeZyZc6O7YEfSYxSjd9TE8ShweM6NliQ16sWkY3f0+jFxrCM9yVDTeAvxO2ny+O2sWyxJyqHGZwSclnWLW2wh8P+I30ETx4X4Sl9JaqMFwPnEryMTx234uuApvYL4nTNxrAP2yrrFkqSc9gDuJ349mThOyLrFLXUR8Ttm4nhN3s2VJBXwWuLXk4njwryb2z77AFuI3zGDcW7ezZUkFXQ28evKYGwFnpZ3c9vlTOJ3ymA8QLqNRJLUDU8FHiR+fRmM9+bd3PZYBPwb8TtkMN6Wd3MlSQHeSfz6Mhhr8GJAAF5K/M4YjFuAJXk3V5IUYCnwPeLXmcE4Ou/mtsM/EL8jBuP4zNsqSYpT091mn8q8rdVbSj1P/rs876ZKkipwBfHrzRiwlp53nI8nficMxuGZt1WSFO9I4tebwTg287ZW7e+J3wFjwMWZt1OSVI/LiV93xoBPZt7Oai0mPW0vegeM4bd/SeqTlxC/7owBPyTdCdc7LyL+wx8Drs29oZKk6lxP/PozBjwv94ZOJ/I+xFrOfXwougBJUnF/EV3AuFrWwqL+hfjkdTfpTgRJUr8sBe4hfh26KveGTieqA7ASOCRo7ok+DWyOLkKSVNxm0nNooj0PWBFdREmvJj51bQX2y72hkqRqHUD8WjRGekBRcVEdgBcEzTvRVcBt0UVIksLcDFwdXQRBa2KfA8DnoguQJIU7K7oA6lgTi1gGbCS23bIF2D33hkqSqrcn6ZRw5Jq0kbQ2FhXRATiEgA2d5OvAD4JrkCTF+w/gG8E1LAOeVXrSqAAQ7bzoAiRJ1ahhTXhO6QkjAsBBAXNOdkF0AZKkalwYXQBwYHQBJUQ/AOhuYEH2rZQktcVC4D5i16biDwQq3QFYCDyj8JyTXU76sCVJgnQR4BXBNRxI4S+npQPAPsAOheec7OvB80uS6hO9NuwEPLXkhKUDQA1P3qvhoQ+SpLpEBwCA/UtOVjoA7F14vsk2Ad8KrkGSVJ/riX83zKqSk5UOAKsKzzfZLcTvYElSfTYR/3j4Tp8CWFV4vsluCp5fklSvbwfPv6rkZH07BRC9cyVJ9Yr+krhPyclKB4Do5+/fHjy/JKledwTPv1vJyUoHgJWF55tsTfD8kqR6rQmev+gaWTIAbANsX3C+qdwVPL8kqV5rguffCVhaarKSAWBFwbmmshn4YXANkqR63Qs8GlxDsbWyZADYpeBcU1kbPL8kqW5jwPrgGoqdBigZAKIfAWwAkCTNJnqtKLZWlgwASwrONZXoVCdJqt+64PmXlZqoZAAotlHTeCR4fklS/TYGz9/JiwCLbdQ0fASwJGk2m4LnNwBkYACQJM0mOgB08hTAooJzTWVL8PySpPo9Fjz/4lITlX4SoCRJqoABQJKkHjIASJLUQwYASZJ6yAAgSVIPGQAkSeohA4AkST1kAJAkqYcMAJIk9ZABQJKkHjIASJLUQwYASZJ6yAAgSVIPGQAkSeohA4AkST1kAJAkqYcMAJIk9ZABQJKkHjIASJLUQwYASZJ6yAAgSVIPGQAkSeohA4AkST1kAJAkqYcMAJIk9ZABQJKkHjIASJLUQwYASZJ6yAAgSVIPGQAkSeohA4AkST1kAJAkqYcMAJIk9ZABQJKkHlocXYCkTlkEHAb8PPB0YE9gO2AjcD9wM/AN4FLgwaAaJWEAkNSMfYBfA/4rsMcM/92J439uAr4E/CVwVdbKJE3JUwCS5mNb4I+AW4D3MPPiP9Ey4GTgSuA84GlZqpM0LQOApLl6AXAT8G5g6Tx+zsvGf87rmihK0nAMAJLm4jWk8/j7NvTztgP+AXhXQz9P0iwMAJJGdQLwGVIbv2l/DJya4edKmsQAIGkUB5IW/5wXEP8V8PKMP18SBgBJw1sMfBrYIfM8C4GPA0/KPI/UawYAScM6FTi40Fy7AWcWmkvqJQOApGEsA36v8JynArsXnlPqDQOApGG8kvStvKTFwK8UnlPqDQOApGFE3aP/emBB0NxSpxkAJM1mOXB00Nz7AT8dNLfUaQYASbN5BfN70t98PSdwbqmzDACSZnNS8Px2AKQMDACSZrIcOCq4hhXB80udZACQNJPo9j/42nIpCwOApJm8JroA4IHoAqQuMgBIms7OwEuiiwC+H12A1EUGAEnTOZH49j/ATdEFSF1kAJA0nRra/48A10QXIXWRAUDSVGpp/19KCgGSGmYAkDSVGq7+B/i/0QVIXWUAkDSV6If/ADwKfDm6CKmrDACSJltOHe3/C4H10UVIXeUDNtQF2wC7AtsB9wDrYstpvVdi+38qK0m/Zw+Tfs82xpYjzY8BQG3008DJpEfUriZ9Y51oE3AHcAXwReASYEvJAlvO9n86Nh5FCkOHAfsAyyb9NxuA64GLgc8Dt5csUGqTk4CxwHFW/k1UZocC5wNbGW3f3wm8GVhSvuTWWU4KUJF/V8eAc3Nv6DSWAG8F1sxS3+SxlVTzc4tXrKadRezvfg0BvHEGAM3VjsDfMvrCP3l8Bw/Qs3k98Yv/GPCruTd0CocCN8+x3sHYAnwC2KFw7WqOASADA4Dm4meAW2nu92AzcGrRLWiX84lf/DeTnkNQ0pvH521qG27B1xi3VW8CgHcBqGargSuB/Rr8mUuAjwG/3+DP7Iq+Xv3/B8Bf0ewpov2Bq0i/w1KVDACq1WrSxVVPzvTzz8BOwGR9vPr/zcD7M/3sJ5N+hw0BqpIBQDV6JnAR6barnD4CvCDzHG1Sw7nHklf/Pwf4UOY5VgKXAYdknkcamQFAtXkm6VvTLgXmWky6uNC7A/rX/l8KfJoyHY/lpEBrCFBVDACqyWrSPfslFv+BA4A3FZyvVn1r/7+JtO9LWQ5cgKcDVBEDgGoxOOefu+0/lXfiQ7H61P5fDPxWgXkmW4nXBKgiBgDVoNQ5/+nsDRwZNHcN+tb+P4q0zyN4TYCqYQBQtIi2/1ReGTx/pL61/6P3tacDVAUDgCJFtv0nOzy6gEB9av8D/HyheWbi6QCFMwAoSnTbf7KnAQuiiwjQt/b/AtK+roGnAxTKAKAIJW/1G9Yyyj9+tgZ9a/+v4Ilv9YvkLYIKYwBQabWc85/KrtEFBOhb+/8pheYZhdcEKIQBQCXV1vaf7OHoAgrrW/sf4MeF5hmVpwNUnAFApdTY9p/s3ugCCutb+x/gnoJzjcrTASrKAKASam77D6wHNkYXUVjf2v+Q9nHJNw2OytMBKsYAoNxqb/sPXB9dQGF9bP8P3FB4vlF5OkBFGACUUxu++Q9cHF1AYX1s/w+0YV/bCVB2BgDlUtNDfmYzBnw+uojC+tj+H/g8aZ/XzocFKSsDgHJoS9t/4FzgjugiCupz+x/gduD8gHnnwtMBysYAoKa1qe0PsBU4M7qIwvrc/h84g7Tv28DTAcrCAKAmtantP/B3wDXRRRTW5/b/wL+S9n1beDpAjTMAqCltXPxvAd4RXURhfW//T/QO4NbgGkZhCFCjDABqQtvO+QP8EDgReCi6kMJs/z/uIeAXqPvhQJN5TYAaYwDQfLXtnD/AWuAY4LboQgLY/v9JtwMvJf1OtIXXBKgRBgDNRxu/+a8HjqP+h8HkYPt/ajeQPpf7owsZgZ0AzZsBQHPVhmf7T7ae9M3/m9GFBLH9P70bgaNoVwjw3QGaFwOA5mJwwZ+Lf7vY/p+ZIUC9YgDQqNq4+G/Axd/2/3AMAeoNA4BG0cZb/TYAR9PvxR9s/4/CEKBeMABoWC7+7Wb7fzSGAHWeAUDDcPFvN9v/c2MIUKcZADQbF//2s/0/d4YAdZYBQDNx8e8G2//zYwhQJxkANB0X/26w/d8MQ4A6xwCgqbj4d4ft/+YYAtQpBgBN5uLfLbb/mzUIAW17d4AhQE9gANBELv7dYvs/D0OAOsEAoAEX/+6x/Z/PDRgC1HIGAIGLf1fZ/s/LEKBWMwDIxb+bbP+XYQhQaxkA+s3Fv7ts/5djCFArGQD6y8W/22z/l2UIUOsYAPrJxb/bbP/HMASoVQwA/ePi3322/+MYAtQaBoB+aevifwwu/qOw/R/LEKBWMAD0R5sX/2uiC2kR2/91MASoegaAfnDx7w/b//UwBKhqBoDuc/HvF9v/dTEEqFoGgG5z8e8X2/91MgSoSgaA7nLx7x/b//UyBKg6BoBucvHvJ9v/dTMEqCoGgO55Ju1b/NeRWtcu/nNn+78dbiAF3XXRhYxgOXAB6diiDjEAdMu+pL+obVv8jwauiy6k5Wz/t8d1pN/5NoWAlaRjy9OiC1FzDADdsQz4ArBrdCEj2AAch4t/E2z/t8t1pI5Nm04H7Ap8Cdg2uhA1wwDQHWeQzv23xXps+zfF9n87DU4HtOkzOwh4X3QRaoYBoBt+Bnh7dBEjWE+6GMpv/s2w/d9e15H+LrQpBLyddLpRLWcA6IbfoY4FYBgbgGNx8W+S7f92uw44kvacDlhKOuao5QwA7bc9cEp0EUPyVr/m2f7vhrbdIvg6YIfoIjQ/BoD2ezkpBNRu0PZ38W+W7f/uuIHUHWtDkNoOeFl0EZofA0D7HRFdwBDWk257uja6kA6y/d8t15L+rrQhBBwZXYDmxwDQfs+ILmAWg3P+Lv7Ns/3fTdfSjmsCDoguQPNjAGi/3aILmIHn/POy/d9dbbgmoOZjj4ZgAGi/Wh/84+Kfn+3/bqs9BNR67NGQDADtNxZdwAwWRBfQYbb/+6Hmv0M1H3s0BANA+90dXcA0lgNfAZ4bXUhH2f7vvmeR3sRX67s9aj32aEgGgPa7J7qAGRgC8rH93221L/5Q97FHQzAAtN93owuYxeBVos+OLqRDbP9327OBS6h78Qe4OboAzY8BoP0ujy5gCDuTvs0YApph+7+7nk36u7JzdCFDuDS6AM2PAaD9zgUeii5iCDsDFwPPiS6kA2z/d9Nq0imzNiz+Pwb+OboIzY8BoP0eBj4TXcSQlpPaxoaAubP9302rSQG59rb/wP+mHV88NAMDQDf8GbA5uoghDS4MPDi6kJay/d89B5Pa6W1Z/DeRjjlqOQNAN9wOfCi6iBEMTgcYAkZn+79bDib9XWhD23/gw8Ad0UVo/gwA3fE+4ProIkawM+lKZ08HDM/2f7esJn2WbVr8bwLOiC5CzTAAdMcm4FW0697cwS2CdgKGY/u/Ow6mHbf6TXQ3cCLwSHQhaoYBoFvuBI6j3meHT2UF6bYnQ8DsbP93w8Gk3/kV0YWMYC3wUtIxRh1hAOieG0lt4vujCxnBCjwdMBvb/90waPu3afHfQPpicWN0IWqWAaCbbiS9RaxNIcBbBGdm+7/92narH6TF/2jgm9GFqHkGgO4yBHSL7f92c/FXdQwA3WYI6Abb/+3m4q8qGQC6zxDQfrb/28vFX9UyAPSDIaDdbP+3k4u/qmYA6A9DQDvZ/m8nF39VzwDQL4aA9rH93z4u/moFA0D/GALaxfZ/u7j4qzUMAP1kCGgH2//t4uKvVjEA9JchoH62/9vDxV+tYwDoN0NA3Wz/t4OLv1rJACBDQJ1s/7eDi79aywAgMATUyPZ//Vz81WoGAA0YAupi+79uLv5qPQOAJmpzCDgkupAG2f6vm4u/OsEAoMnaGgIuojshwPZ/vVz81RkGAE3FEBDL9n+dXPzVKQYATccQEMP2f51c/NU5BgDNxBBQnu3/+rj4q5MMAJqNIaAs2/91cfFXZxkANAxDQBm2/+vi4q9OMwBoWIaA/Gz/18PFX51nANAoDAF52f6vwzNx8VcPGAA0KkNAHrb/69DGxX89Lv6aAwOA5sIQ0Dzb//EGi/8u0YWMYD1wDC7+mgMDgObKENAs2/+xXPzVOwYAzceNpNbj2uhCRrAcuIB0kVctbP/HWg1cQrsW/7XAkbj4ax4MAJqvG0iLV5s6AStJnYD9owsZZ/s/zr6kQNi2c/7Hkf7uSXNmAFAT2tgJ2AU4G9ghuhBs/0fZETgfeEp0ISPwm78aYwBQU24gXRPQphCwP/AXwTXY/o/zYWC/6CJGsJb0d8xv/mqEAUBNamMIeAPw3MD5bf/HOJS079vCxV+NMwCoaW27JmAB8N7A+W3/x/gD0r5vA8/5KwsDgHJo2zUBLyVdDFaa7f8Y+5IW1DbwnL+yMQAolzadDlgAnBwwr+3/GK+lHd/+bfsrKwOAcmrT6YCjAua0/R8jYl+Pyra/sjMAKLe2nA54VuH5bP/HqekhUFOx7a8iDAAqoQ2dgOXAtgXns/0fY1vSvq6V3/xVjAFApbTh3QG7FpzL9n+M3aILmIHP9ldRBgCVVPvpgG0KzWP7P86y6AKmYdtfxRkAVFrNpwPuKTSP7f8490YXMAXb/gphAFCEGk8HbAI2FJrL9n+c9cDG6CImsO2vMAYARantdMDtwFiBeWz/xxoD7oguYpxtf4UyAChSTQ8L+mqheWz/x/tadAH4kB9VwACgaLVcE/DFQvPY/o9Xal9Px3P+qoIBQDWIPh2wBriswDy2/+twCWmfR7Dtr2oYAFSLyNMBfwZsKTCP7f86bAH+PGBe2/6qigFANYk4HfBd4JOF5rL9X4+PAzcVnM+2v6pjAFBtSt4i+Cjw6+N/5mb7vy6PAW8ANheYy1v9VCUDgGpU6pqAtwJXZ55jwPZ/fb4JvD3zHJ7zV7UMAKrV4JqA+zL9/D8A/ibTz56K7f86/TXpdyGHe/GcvypmAFDNbgBeBNza4M/cDJwKnNngz5yN7f+6nQm8mWZPBd0CvBAXf1XMAKDafQ84BPg75v+kvu+SAkXJb/5g+78NPgb8PHDzPH/OVtJFpc8hPV1SEqkFOhY4zsq/icrsecB5pIPsKPv+TuA0YEn5kgE4f4gac4/NwM65N7QDlgCnk54TMMrnuxU4hxRW1W5nEft3tYbThY0zAKgp+wLvBi4ltbQn7+uNpG/7HyNdTLgopkwgtf83ER8Azs29oR2zGDiWdI3AzaTfqcmf6XrSQ4V+D3haTJnKoDcBYHGpiaQG3Q58YHwAbAPsCmxHeqXvuqC6pmL7v50eA74yPgZWkn7PHib9ntX0VkFpZAYAdcFG4h7tOpsa2nle/d+MtdTx4iqpEV4EKOXj1f+SqmUAkPKx/S+pWgYAKZ9XRRdAuvrf9r+kJzAASHlsS3oEbLSLsP0vaQoGACmPQ0khINoXoguQVCcDgJTHQdEFkNr/Z0cXIalOBgApj72iC8D2v6QZGACkPHaMLgDb/5JmYACQ8mjyzXJznd/2v6RpGQCkPKKfGGf7X9KMDABSHtGvgvXhP5JmZACQ8viXwLlt/0ualQFAyuN74yOCz/6XNCsDgJTHGPC/gub+dNC8klrEACDl8/ek98qX9H1s/0saggFAyudu4GOF5/wj0hMAJWlGBgApr/8O/Eehua4BPlFoLkktZwCQ8noQOI10TUBODwC/AmzJPI+kjjAASPmdQ+oE5LIROAW4JeMckjrGACCV8QHgvRl+7oPAy4DzM/xsSR1mAJDKOQP4JeDhhn7e94Ajgcsa+nmSesQAIJX1WeAg4Lx5/IzNwB8CPwd8s4miJPWPAUAq707geOCFwOeATUP+//4dOBN4OvD7pHP/kjQni6MLkHrs6+NjR+AI4FBgf2AXYAdgA/AD4LvAVeNja0ShkrrHACDFe5B0p8A50YVI6g9PAUiS1EMGAEmSesgAIElSDxkAJEnqIQOAJEk9ZACQJKmHDACSJPWQAUCSpB4yAEiS1EMGAEmSesgAIElSDxkAJEnqIQOAJEk9ZACQJKmHDACSJPWQAUCSpB4yAEiS1EMGAEmSesgAIElSDxkAJEnqIQOAJEk9ZACQJKmHDACSJPWQAUCSpB4yAEiS1EMGAEmSesgAIElSDxkAJEnqIQOAJEk9ZACQJKmHDACSJPWQAUCSpB4yAEiS1EMGAEmSeqhkANhScK6pLAqeX5JUv8XB8z9WaqKSAWBzwbmmsjR4fklS/ZYFz7+p1EQGAEmSHhcdAIqtlSUDQLFUM41tg+eXJNVvm+D5OxkAHi0411RWBM8vSarfyuD5O3kK4IGCc00leqdKkuoXvVYUWytLBoB1BeeaygpgQXANkqR6LQCWB9ewvtREJQPA/QXnmspSYJfgGiRJ9XoKsCRw/jFgbanJSt8F8FDB+aayKnh+SVK9VgXP/wAFr5cr/STAYslmGnsHzy9Jqteq4PmLrpGlA8Ddheeb7KeD55ck1Wvf4PnvKTlZ6QCwpvB8k/1s8PySpHodGDz/nSUnKx0A7io832QHBc8vSapXdABYU3KyvnUAno6PBJYkPdEyYL/gGop+Se5bAFgGrA6uQZJUn4OJ/4K4puRkpQPAbYXnm8rzowuQJFXnhdEFALeWnKx0ALiT+GcBGAAkSZMdGjz/A8C/l5ywdAAYA75TeM7JjsBHAkuSHrcQOCy4hm+T1siX/oPHAAAJsUlEQVRiSgcASBsZ6Sl4HYAk6XGHAD8VXMNNpSeMCADFN3IKx0YXIEmqxjHRBRDQHY8IANcEzDnZ8dEFSJKq8QvRBVDH2pjdMmAj6VxH1NgC7JF7QyVJ1dsL2ErsmvQIAbcgRnQANgHXBcw70ULgvwTXIEmKdxLxF4ZfQ3pjblERAQDg6qB5Jzo5ugBJUriTogsAvhFdQEmvIrbdMkZq+eyfe0MlSdV6BvFr0RhwYu4NnUpUB+BS0nn4SAuA1wfXIEmK84boAkhr4RXRRZT2DeJT193EP/tZklTeMuBe4tehK3Nv6HSiOgAAFwbOPbArXgsgSX30i8CTo4sAvhJdQIQXEp+8xoAbib8CVJJU1g3Erz9jwHNzb2iNFgNrif/wx4AXZ95WSVI9jiZ+3RkD7gMWZd7Wan2K+B0wRrooUZLUD18lft0ZAz6ee0Nr9jLid8BgHJF3UyVJFTiK+PVmMI7OvK1VWwqsJ34njJESoSSp264kfr0ZA+4HlmTe1ur9PfE7YjBCHsYgSSri1cSvM4Pxyczb2grHEr8jBuM2fC6AJHXRMuB24teZwTgq7+a2w0LgLuJ3xmC8I+/mSpIC/C7x68tg3Ensc3iqcgbxO2QwHgL2ybu5kqSCngo8SPz6Mhjvzbu57bKK9Dzk6J0yGOdn3VpJUklfJn5dGYwtwN55N7d9LiJ+x0wcPiJYktrvFOLXk4mjhsfgV+cE4nfMxLGe1DaSJLXTHtTzxNnBOD7rFrfUAuAW4nfOxHE5XqghSW20ELiE+HVk4rgV15RpnU78Dpo8fjfrFkuScvg94tePyePUrFvccttRX7tmC3BMzo2WJDXqSOAx4tePiWMtsH3Oje6CDxC/oyaPe4E9c260JKkRe5Heshe9bkweZ+Tc6K5YCTxA/M6aPK4Fdsi43ZKk+dkBuI749WLy+BGwIuN2d0qNXYAx4DxgccbtliTNzSLgbOLXianG+zNud+fU2gUYAz6acbslSXPz18SvD1ONDcDOGbe7k/6Q+B033fhAxu2WJI3mg8SvC9ON9+Xb7O7aEbib+J033Xh3vk2XJA3pPcSvB9ONe4Cd8m16t72J+B040/hgvk2XJM2ipjf8TTXekG/Tu28R8C3id6IhQJLq8n7ij/8zjRtIa5jm4Wjid+Rs46O4oyWphEXA3xB/3J9tvDjXB9A3XyB+Z842LsBzPZKU0w7AOcQf72cbn8v1AfTR7qRbKaJ36mzjWnxioCTlsBd1PuRn8lgH7JrpM+itU4nfscOMH5JOW0iSmnE46Yr66OP7MOM3Mn0GvbYQuJL4nTvMeJR0deqCLJ+EJPXDQtIt17W92Ge6cQUe97M5APgx8Tt52HERnhKQpLnYC7iE+OP4sONhYP8sn4T+0+nE7+hRxlrgtVk+CUnqplNI59Kjj9+jjNOyfBL6CQuAc4nf2aOO84C9M3wektQVewBfJP54Peq4AFv/xexKutgueqePOh4E3gksbf4jkaTWWka6buoh4o/To457gac0/5FoJscDW4nf+XMZ3wNe2fxHIkmt8yrgduKPy3MZW4CXNf+RaBg1vzFwmHEFPi1KUj+9hPbc2TXdeH/jn4qGtgi4kPhfgvmOr5L+MkhS1x0NfI344+58xz+TblNUoBXAHcT/MjQxbgDeCGzb6CckSbGWAicB/0r8cbaJcRewS6OfkObsYNp58ch04x7gz0jPPZCktnoG8OekC+Wij6tNjQeB1U1+SJq/E2jP06JGGV8H3k56KIYk1W4v0jHrauKPn02Px4BfaO6jUpPeRvwvSK6xlRQG3gMcgueeJNVhIfAc0rHpatp7d9Yw4/SGPjNl8hHif0lKjB+SXpP8DuD5+GwBSWUsJR1z3gH8I3A/8cfDEuPDTXx4Nenik4sWAZ8BTo4upLBHgVuA7wDfIl0YuYZ0sco9cWVJaqldgVWkJ5juCxwEHEh63v2SuLJCfBb4ZVJ3ozO6GAAg/XL+I/Dy6EIq8RjpnQSDsWn83z0YWZSkKuwILAa2Id1VtXJ8LI4sqiJnk+5geDS6kKZ1NQBAalN9CXhpdCGSpFa6hPTU2Y3RheTQ5QAAsD3pJQ0vii5EktQqVwLHkV7z20ldv5L8YeBY0tMCJUkaxuWkZ/x3dvGH7gcAgB+TrgX4p+hCJEnVO5d06rjz10gtii6gkC2kW+ZWAc+MLUWSVKnPAa8FNkcXUkJfAgCk+zjPAXYGnhdciySpLn8BvIn0hbEX+hQAIIWAfwbuJrV4+nAKRJI0vS2kRxefQVojeqPrdwHM5FjgLGCn6EIkSSEeBk4hdYd7p88BANJbBL9IetKVJKk/1gCvJL2GvZf63gK/Dng28JXoQiRJxVxGuhast4s/9O8agKk8Qnp3wCPAkdgVkaSuGgP+FPhV4KHgWsK52P2k44FPAT8VXYgkqVH3Aa8Hzo8upBZ9PwUw2bmkt1318oIQSeqoC4Fn4eL/EwwAT3QfcCLpftBOPwZSkjruEdItfscBPwiupTqeApjZ04FP4suEJKltrgR+Hbg1upBa2QGY2S3AYaQLRtYG1yJJmt0G0rf+w3Hxn5EdgOHtBvxP4KToQiRJU/o8afG/J7qQNrADMLy7gdcAL6Hn945KUmW+S3p972tx8R+aAWB0l5IeHvSr+IsmSZHuJ33j/znSe140Ah8ENDdjwI3AJ4BHgdXANqEVSVJ//Aj4E+Bk4Gv07CU+TfEagGbsCJwGvAtYHlyLJHXVQ8BHSYv/+uBaWs8A0KwVwG+SwsCK4FokqSvWAh8DPowLf2MMAHksI7Wm3gUcEFyLJLXV7cBfAn+LD2ZrnAEgr4Wk9wucTrp7wIsuJWlmW4FLSAv/eeP/rAwMAOXsAbwOeCPwtOBaJKk2/0F6M+sngDuCa+kFA0B5C0ndgFNI7xzwWgFJfbUWOBv4LHAZftsvygAQawlwJPBq4BXALrHlSFJ29wP/BHyB9FyVx2LL6S8DQD0Wkl5XedT4OJwUECSpzbaQnp568fj4Kun5KQpmAKjXcuAI4IXA80lPH/RhQ5JqtxH4JnA1cBVpwd8QWpGmZABoj6WkEHAIcCBwEPCzwE6RRUnqtQeAb4+Pm0gL/3XA5siiNBwDQPutAvYb/3PvCX/uAawkPaVQkubiAWAd8H1gDXDX+J9rgNvG/1ktZQDoviWkILCSdAphJ9I7IBZjOJAED5IuxNtCWvA3kq7OX4vn6iVJkiRJkiRJkiRJkiRJkiRJkiRJkiRJkiRJkiRJkiRJkiRJkiRJkiRJkiRJkiRJkiRJkiRJkiRJkiRJkiRJkiRJkiRJkiRJkiRJkiRJUjb/H89t644p5jXfAAAAAElFTkSuQmCC;" vertex="1" parent="1">
          <mxGeometry x="1259" y="223.98000000000002" width="42" height="42" as="geometry" />
        </mxCell>
        <mxCell id="TRhWoTdORYvuP8BCEGIG-48" value="&lt;div style=&quot;line-height: 90%;&quot;&gt;&lt;font style=&quot;font-size: 9px; line-height: 90%;&quot;&gt;&lt;b&gt;Hourly report&lt;/b&gt;&lt;/font&gt;&lt;div&gt;&lt;font style=&quot;font-size: 9px; line-height: 90%;&quot;&gt;&lt;b&gt;generation&lt;/b&gt;&lt;/font&gt;&lt;/div&gt;&lt;/div&gt;" style="text;html=1;align=center;verticalAlign=middle;resizable=0;points=[];autosize=1;strokeColor=none;fillColor=none;" vertex="1" parent="1">
          <mxGeometry x="1240" y="183.98000000000002" width="80" height="40" as="geometry" />
        </mxCell>
        <mxCell id="TRhWoTdORYvuP8BCEGIG-49" value="&lt;div style=&quot;line-height: 90%;&quot;&gt;&lt;font style=&quot;font-size: 9px; line-height: 90%;&quot;&gt;&lt;b&gt;API to expose&lt;/b&gt;&lt;/font&gt;&lt;div&gt;&lt;font style=&quot;font-size: 9px; line-height: 90%;&quot;&gt;&lt;b&gt;processed data&lt;/b&gt;&lt;/font&gt;&lt;/div&gt;&lt;/div&gt;" style="text;html=1;align=center;verticalAlign=middle;resizable=0;points=[];autosize=1;strokeColor=none;fillColor=none;" vertex="1" parent="1">
          <mxGeometry x="1235" y="258.48" width="90" height="40" as="geometry" />
        </mxCell>
        <mxCell id="TRhWoTdORYvuP8BCEGIG-50" style="edgeStyle=orthogonalEdgeStyle;rounded=0;orthogonalLoop=1;jettySize=auto;html=1;entryX=-0.008;entryY=0.656;entryDx=0;entryDy=0;entryPerimeter=0;" edge="1" parent="1" source="TRhWoTdORYvuP8BCEGIG-30" target="TRhWoTdORYvuP8BCEGIG-48">
          <mxGeometry relative="1" as="geometry">
            <mxPoint x="1409" y="210.74" as="targetPoint" />
          </mxGeometry>
        </mxCell>
        <mxCell id="TRhWoTdORYvuP8BCEGIG-51" value="&lt;font style=&quot;font-size: 11px;&quot;&gt;Output Layer&lt;/font&gt;" style="text;html=1;align=center;verticalAlign=middle;resizable=0;points=[];autosize=1;strokeColor=none;fillColor=none;" vertex="1" parent="1">
          <mxGeometry x="1235" y="298.48" width="90" height="30" as="geometry" />
        </mxCell>
        <mxCell id="TRhWoTdORYvuP8BCEGIG-52" value="" style="endArrow=none;dashed=1;html=1;dashPattern=1 3;strokeWidth=2;rounded=0;" edge="1" parent="1">
          <mxGeometry width="50" height="50" relative="1" as="geometry">
            <mxPoint x="120" y="80" as="sourcePoint" />
            <mxPoint x="1400" y="80" as="targetPoint" />
          </mxGeometry>
        </mxCell>
        <mxCell id="TRhWoTdORYvuP8BCEGIG-53" value="" style="endArrow=none;dashed=1;html=1;dashPattern=1 3;strokeWidth=2;rounded=0;" edge="1" parent="1">
          <mxGeometry width="50" height="50" relative="1" as="geometry">
            <mxPoint x="120" y="500" as="sourcePoint" />
            <mxPoint x="120" y="80" as="targetPoint" />
          </mxGeometry>
        </mxCell>
        <mxCell id="TRhWoTdORYvuP8BCEGIG-54" value="" style="endArrow=none;dashed=1;html=1;dashPattern=1 3;strokeWidth=2;rounded=0;" edge="1" parent="1">
          <mxGeometry width="50" height="50" relative="1" as="geometry">
            <mxPoint x="120" y="500" as="sourcePoint" />
            <mxPoint x="1400" y="500" as="targetPoint" />
          </mxGeometry>
        </mxCell>
        <mxCell id="TRhWoTdORYvuP8BCEGIG-55" value="" style="endArrow=none;dashed=1;html=1;dashPattern=1 3;strokeWidth=2;rounded=0;" edge="1" parent="1">
          <mxGeometry width="50" height="50" relative="1" as="geometry">
            <mxPoint x="1400" y="501" as="sourcePoint" />
            <mxPoint x="1400" y="81" as="targetPoint" />
          </mxGeometry>
        </mxCell>
        <mxCell id="TRhWoTdORYvuP8BCEGIG-56" value="" style="shape=image;verticalLabelPosition=bottom;labelBackgroundColor=default;verticalAlign=top;aspect=fixed;imageAspect=0;editableCssRules=.*;image=data:image/svg+xml,PHN2ZyB4bWxucz0iaHR0cDovL3d3dy53My5vcmcvMjAwMC9zdmciIGZpbGw9Im5vbmUiIHZpZXdCb3g9IjAuOTk5ODc5NDc5NDA4MjY0MiAwLjk5OTk5NzMxNzc5MDk4NTEgMTMuOTk5OTk2MTg1MzAyNzM0IDE0LjAwMDAwMjg2MTAyMjk1IiBoZWlnaHQ9IjcwMC4wMDAxNDMwNTExNDc1IiB3aWR0aD0iNjk5Ljk5OTgwOTI2NTEzNjciPjxwYXRoIGQ9Ik00LjUgMTQuNTY5Yy4yMTQuMjc4LjUzOS40MzEuODc0LjQzMWg1LjI1MWMuMzM1IDAgLjY2LS4xNjUuODc1LS40MzRsMy4yNTgtNC4xNzhjLjIxNC0uMjc4LjI4OC0uNjMzLjIxNC0uOTc4bC0xLjE2NS01LjIwN2ExLjEyOCAxLjEyOCAwIDAwLS42MDYtLjc3N2wtNC43MTQtMi4zMUExLjA2MiAxLjA2MiAwIDAwOC4wMDIgMWMtLjE2OCAwLS4zMzUuMDM4LS40ODUuMTE1bC00LjcxNSAyLjMyYTEuMTI5IDEuMTI5IDAgMDAtLjYwNS43NzdMMS4wMzIgOS40MmMtLjA4NC4zNDUgMCAuNy4yMTQuOTc4TDQuNSAxNC41Njh6IiBmaWxsPSIjMzI2REU2Ii8+PHBhdGggY2xpcC1ydWxlPSJldmVub2RkIiBkPSJNMTIuNzQxIDkuMTI4Yy4wOTguMDAyLjE5Ni4wMS4yOTMuMDI0bC4wNTguMDEzLjAzMS4wMDhhLjMwOC4zMDggMCAwMS4yNi4zNzEuMzA2LjMwNiAwIDAxLS4zOTYuMjIzaC0uMDA0bC0uMDAzLS4wMDEtLjAwMy0uMDAyYTEuNTggMS41OCAwIDAwLS4wMy0uMDA2bC0uMDUtLjAxYTIuNTUgMi41NSAwIDAxLS4yNzQtLjEwNiAyLjg2NyAyLjg2NyAwIDAwLS41MzMtLjE1Ny4yNDIuMjQyIDAgMDAtLjE3MS4wNjQgNC42NTYgNC42NTYgMCAwMC0uMTMxLS4wMjMgMy45NzEgMy45NzEgMCAwMS0xLjc2NCAyLjIxMmMuMDE1LjA0Mi4wMzIuMDgzLjA1MS4xMjNhLjIzOS4yMzkgMCAwMC0uMDIzLjE4Yy4wNzQuMTcuMTY1LjMzMi4yNzEuNDg0LjA2LjA3OC4xMTQuMTYuMTY0LjI0NGwuMDI4LjA1Ny4wMTIuMDI1YS4zMDYuMzA2IDAgMDEtLjM4MS40NC4zMDguMzA4IDAgMDEtLjE3Mi0uMThsLS4wMS0uMDJhMS41NyAxLjU3IDAgMDEtLjAyOC0uMDU4IDIuNTQ2IDIuNTQ2IDAgMDEtLjA4OS0uMjggMi44MzcgMi44MzcgMCAwMC0uMjEtLjUxMi4yNDIuMjQyIDAgMDAtLjE1Ni0uMDk1bC0uMDMtLjA1My0uMDM1LS4wNjRhMy45NyAzLjk3IDAgMDEtMi44MjMtLjAwN2wtLjA3LjEyNWEuMjUuMjUgMCAwMC0uMTMyLjA2NCAyLjEzIDIuMTMgMCAwMC0uMjM3LjU0OCAyLjUxOCAyLjUxOCAwIDAxLS4wODguMjggMS4xOTYgMS4xOTYgMCAwMS0uMDI1LjA1bC0uMDEzLjAyN3YuMDAxYS4zMDYuMzA2IDAgMDEtLjQyMS4xNzMuMzA4LjMwOCAwIDAxLS4xNzMtLjMxNC4zMDYuMzA2IDAgMDEuMDQxLS4xMmwuMDE0LS4wMy4wMjYtLjA1MmMuMDUtLjA4NS4xMDQtLjE2Ni4xNjQtLjI0NC4xMDgtLjE1Ni4yLS4zMjIuMjc3LS40OTZhLjMwMi4zMDIgMCAwMC0uMDI4LS4xNzNsLjA1Ni0uMTMzQTMuOTcyIDMuOTcyIDAgMDE0LjIyIDkuNTMybC0uMTM0LjAyM2EuMzQuMzQgMCAwMC0uMTc2LS4wNjIgMi44NzEgMi44NzEgMCAwMC0uNTMzLjE1NmMtLjA5LjA0LS4xODEuMDc1LS4yNzQuMTA1YTEuMDE3IDEuMDE3IDAgMDEtLjA1LjAxMWwtLjAzLjAwN0gzLjAybC0uMDAyLjAwMmgtLjAwNWEuMzA4LjMwOCAwIDAxLS4zOTctLjM0OS4zMDYuMzA2IDAgMDEuMjYxLS4yNDVsLjAwNS0uMDAxaC4wMDJsLjAwNi0uMDAyYy4wMjQtLjAwNi4wNTQtLjAxNC4wNzYtLjAxOC4wOTctLjAxMy4xOTUtLjAyMS4yOTMtLjAyMy4xODYtLjAxMy4zNy0uMDQzLjU0OS0uMDlhLjQyMi40MjIgMCAwMC4xMzEtLjEzM2wuMTI4LS4wMzdhMy45MzggMy45MzggMCAwMS42MjUtMi43NTJsLS4wOTgtLjA4N2EuMzM4LjMzOCAwIDAwLS4wNjItLjE3NiAyLjg1NCAyLjg1NCAwIDAwLS40NTUtLjMxOSAyLjU1NyAyLjU1NyAwIDAxLS4yNTQtLjE0OGwtLjA0OC0uMDM4LS4wMTUtLjAxMy0uMDA0LS4wMDNhLjMyMy4zMjMgMCAwMS0uMDc2LS40NS4yOTUuMjk1IDAgMDEuMjQ0LS4xMDcuMzY1LjM2NSAwIDAxLjIxMy4wOGwuMDIyLjAxN2MuMDE2LjAxMy4wMzQuMDI2LjA0Ni4wMzcuMDcyLjA2Ny4xMzkuMTM5LjIwMi4yMTMuMTI1LjEzNy4yNjMuMjYyLjQxMi4zNzIuMDU2LjAzLjEyMS4wMzYuMTgyLjAxOGwuMTEuMDc4YTMuOTM4IDMuOTM4IDAgMDEyLjU1Mi0xLjIyNGwuMDA4LS4xMjlhLjMzMi4zMzIgMCAwMC4wOTktLjE1OCAyLjg0NCAyLjg0NCAwIDAwLS4wMzQtLjU1MyAyLjU2IDIuNTYgMCAwMS0uMDQyLS4yOXYtLjA4Mi0uMDA1QS4zMDYuMzA2IDAgMDE4IDIuODJhLjMwOC4zMDggMCAwMS4zMDYuMzM3di4wODdhMi41MjkgMi41MjkgMCAwMS0uMDQxLjI5IDIuODUgMi44NSAwIDAwLS4wMzUuNTUzLjI0Mi4yNDIgMCAwMC4xLjE1M3YuMDA3bC4wMDcuMTI5Yy45NjcuMDg4IDEuODcuNTIyIDIuNTQgMS4yMjNsLjExNi0uMDgyYS4zNC4zNCAwIDAwLjE4Ni0uMDJjLjE0OS0uMTEuMjg3LS4yMzYuNDEyLS4zNzMuMDYzLS4wNzUuMTMtLjE0Ni4yMDItLjIxM2wuMDUxLS4wNC4wMTctLjAxNGEuMzA3LjMwNyAwIDExLjM4MS40NzdsLS4wMjQuMDJjLS4wMTUuMDEyLS4wMy4wMjUtLjA0My4wMzRhMi41MzcgMi41MzcgMCAwMS0uMjU0LjE0OCAyLjg3IDIuODcgMCAwMC0uNDU1LjMyLjI0MS4yNDEgMCAwMC0uMDU4LjE3MmwtLjA1LjA0NC0uMDU4LjA1M2MuNTQyLjgwNi43NyAxLjc4My42MzcgMi43NDVsLjEyMy4wMzZjLjAzMS4wNTUuMDc3LjEwMS4xMzMuMTMyLjE3OS4wNDguMzYzLjA3OC41NDguMDl6TTcuMjkxIDUuMjRjLjEwNy0uMDI0LjIxNi0uMDQzLjMyNi0uMDU2bC0uMDkgMS42LS4wMDguMDA0YS4yNjguMjY4IDAgMDEtLjI5My4yNTYuMjcuMjcgMCAwMS0uMTM1LS4wNWwtLjAwMi4wMDEtMS4zMTYtLjkzYy40MTktLjQxLjk0NS0uNjk2IDEuNTE4LS44MjV6bTEuNjE4IDEuNzVsMS4zMDgtLjkyNGEzLjE4MiAzLjE4MiAwIDAwLTEuODMzLS44ODJsLjA5IDEuNTk4aC4wMDJhLjI2OC4yNjggMCAwMC4yOTQuMjU2LjI3LjI3IDAgMDAuMTM1LS4wNWwuMDA0LjAwMnptMi4yNDggMS42NTZMOS42MDkgOC4ybC0uMDAyLS4wMDZhLjI3LjI3IDAgMDEtLjE4NS0uMzQzLjI3LjI3IDAgMDEuMDgtLjEyTDkuNSA3LjczbDEuMTk1LTEuMDY3Yy4zNjYuNTk0LjUyNyAxLjI5LjQ2IDEuOTgzek05LjA5NiA5LjVsLjYxOCAxLjQ5YTMuMTQ4IDMuMTQ4IDAgMDAxLjI3NS0xLjU5OGwtMS41OTMtLjI2OS0uMDAyLjAwM2EuMjYuMjYgMCAwMC0uMTY2LjAyMy4yNy4yNyAwIDAwLS4xMy4zNDhsLS4wMDIuMDAzem0tLjM4NSAxLjkwNWMtLjU3My4xMy0xLjE3LjEtMS43MjctLjA4OGwuNzc3LTEuNGguMDAxYS4yNy4yNyAwIDAxLjQ3NS0uMDAxaC4wMDZsLjc3OSAxLjQwMmEzLjI4NiAzLjI4NiAwIDAxLS4zMTEuMDg3em0tMi40MTgtLjQyMmwuNjExLTEuNDc0LS4wMDQtLjAwNmEuMjY4LjI2OCAwIDAwLS4yOTctLjM3TDYuNiA5LjEzbC0xLjU3OS4yNjdhMy4xNiAzLjE2IDAgMDAxLjI3MiAxLjU4NnptLS45OTctNC4zMmwxLjIwMSAxLjA3MS0uMDAxLjAwN2EuMjY5LjI2OSAwIDAxLS4xMDYuNDYybC0uMDAxLjAwNS0xLjU0LjQ0M2EzLjEzNCAzLjEzNCAwIDAxLjQ0Ny0xLjk4OHptMi45NSAxLjE1NGgtLjQ5MmwtLjMwNy4zOC4xMS40NzYuNDQzLjIxMy40NDItLjIxMi4xMS0uNDc2LS4zMDYtLjM4MXoiIGZpbGwtcnVsZT0iZXZlbm9kZCIgZmlsbD0iI2ZmZmZmZiIvPjwvc3ZnPg==;" vertex="1" parent="1">
          <mxGeometry x="1216" y="420" width="50" height="50" as="geometry" />
        </mxCell>
        <mxCell id="TRhWoTdORYvuP8BCEGIG-57" value="" style="shape=image;verticalLabelPosition=bottom;labelBackgroundColor=default;verticalAlign=top;aspect=fixed;imageAspect=0;editableCssRules=.*;image=data:image/svg+xml,PHN2ZyB4bWxucz0iaHR0cDovL3d3dy53My5vcmcvMjAwMC9zdmciIHZpZXdCb3g9IjAgMCAxMjggMTI4IiB3aWR0aD0iMTI4IiBoZWlnaHQ9IjEyOCI+PHBhdGggZD0iTTI2LjY2NiAwQzExLjk3IDAgMCAxMS45NyAwIDI2LjY2NmMwIDEyLjg3IDkuMTgxIDIzLjY1MSAyMS4zMzQgMjYuMTN2MzcuODdjMCAxMS43NyA5LjY4IDIxLjMzNCAyMS4zMzIgMjEuMzM0aC4xOTVjMS4zMDIgOS4wMjMgOS4xIDE2IDE4LjQ3MyAxNkM3MS42MTIgMTI4IDgwIDExOS42MTIgODAgMTA5LjMzNHMtOC4zODgtMTguNjY4LTE4LjY2Ni0xOC42NjhjLTkuMzcyIDAtMTcuMTcgNi45NzctMTguNDczIDE2aC0uMTk1Yy04LjczNyAwLTE2LTcuMTUyLTE2LTE2VjYzLjc3OWExOC41MTQgMTguNTE0IDAgMCAwIDEzLjI0IDUuNTU1aDIuOTU1YzEuMzAzIDkuMDIzIDkuMSAxNiAxOC40NzMgMTYgOS4zNzIgMCAxNy4xNjktNi45NzcgMTguNDctMTZoMTEuMDU3YzEuMzAzIDkuMDIzIDkuMSAxNiAxOC40NzMgMTYgMTAuMjc4IDAgMTguNjY2LTguMzkgMTguNjY2LTE4LjY2OEMxMjggNTYuMzg4IDExOS42MTIgNDggMTA5LjMzNCA0OGMtOS4zNzMgMC0xNy4xNzEgNi45NzctMTguNDczIDE2SDc5LjgwNWMtMS4zMDEtOS4wMjMtOS4wOTgtMTYtMTguNDcxLTE2cy0xNy4xNzEgNi45NzctMTguNDczIDE2aC0yLjk1NWMtNi40MzMgMC0xMS43OTMtNC41ODktMTIuOTg4LTEwLjY3MiAxNC41OC0uMTM2IDI2LjQxNi0xMi4wNSAyNi40MTYtMjYuNjYyQzUzLjMzNCAxMS45NyA0MS4zNjIgMCAyNi42NjYgMHptMCA1LjMzNEEyMS4yOTIgMjEuMjkyIDAgMCAxIDQ4IDI2LjY2NiAyMS4yOTQgMjEuMjk0IDAgMCAxIDI2LjY2NiA0OCAyMS4yOTIgMjEuMjkyIDAgMCAxIDUuMzM0IDI2LjY2NiAyMS4yOSAyMS4yOSAwIDAgMSAyNi42NjYgNS4zMzR6bS01LjIxNSA3LjU0MUMxOC42NyAxMi44ODkgMTYgMTUuMTIzIDE2IDE4LjE2NnYxNy4wNDNjMCA0LjA0MyA0LjcwOSA2LjY2MyA4LjE0NSA0LjUzM2wxMy42MzQtOC40NTVjMy4yNTctMi4wMiAzLjI3NC03LjAwMi4wMzItOS4wNDVsLTEzLjYzNS04LjU5YTUuMDI0IDUuMDI0IDAgMCAwLTIuNzI1LS43Nzd6bS0uMTE3IDUuMjkxIDEzLjYzNSA4LjU4OC0xMy42MzUgOC40NTVWMTguMTY2em00MCAzNS4xNjhhMTMuMjkgMTMuMjkgMCAwIDEgMTMuMzMyIDEzLjMzMkExMy4yOTMgMTMuMjkzIDAgMCAxIDYxLjMzNCA4MCAxMy4yOTQgMTMuMjk0IDAgMCAxIDQ4IDY2LjY2NmExMy4yOTMgMTMuMjkzIDAgMCAxIDEzLjMzNC0xMy4zMzJ6bTQ4IDBhMTMuMjkgMTMuMjkgMCAwIDEgMTMuMzMyIDEzLjMzMkExMy4yOTMgMTMuMjkzIDAgMCAxIDEwOS4zMzQgODAgMTMuMjk0IDEzLjI5NCAwIDAgMSA5NiA2Ni42NjZhMTMuMjkzIDEzLjI5MyAwIDAgMSAxMy4zMzQtMTMuMzMyem0tNDIuNTY4IDYuOTUxYTIuNjY3IDIuNjY3IDAgMCAwLTEuODg3Ljc4bC02LjMgNi4yOTQtMi4wOTMtMi4wODRhMi42NjcgMi42NjcgMCAwIDAtMy43NzEuMDA2IDIuNjY3IDIuNjY3IDAgMCAwIC4wMDggMy43NzJsMy45NzQgMy45NmEyLjY2NyAyLjY2NyAwIDAgMCAzLjc2Ni0uMDAxbDguMTg1LTguMTc0YTIuNjY3IDIuNjY3IDAgMCAwIC4wMDItMy43NzIgMi42NjcgMi42NjcgMCAwIDAtMS44ODQtLjc4em00OCAwYTIuNjY3IDIuNjY3IDAgMCAwLTEuODg3Ljc4bC02LjMgNi4yOTQtMi4wOTMtMi4wODRhMi42NjcgMi42NjcgMCAwIDAtMy43NzEuMDA2IDIuNjY3IDIuNjY3IDAgMCAwIC4wMDggMy43NzJsMy45NzQgMy45NmEyLjY2NyAyLjY2NyAwIDAgMCAzLjc2Ni0uMDAxbDguMTg1LTguMTc0YTIuNjY3IDIuNjY3IDAgMCAwIC4wMDItMy43NzIgMi42NjcgMi42NjcgMCAwIDAtMS44ODQtLjc4ek02MS4zMzQgOTZhMTMuMjkzIDEzLjI5MyAwIDAgMSAxMy4zMzIgMTMuMzM0IDEzLjI5IDEzLjI5IDAgMCAxLTEzLjMzMiAxMy4zMzJBMTMuMjkzIDEzLjI5MyAwIDAgMSA0OCAxMDkuMzM0IDEzLjI5NCAxMy4yOTQgMCAwIDEgNjEuMzM0IDk2ek01NiAxMDUuMzM0Yy0yLjE5MyAwLTQgMS44MDctNCA0IDAgMi4xOTUgMS44MDggNCA0IDRzNC0xLjgwNSA0LTRjMC0yLjE5My0xLjgwNy00LTQtNHptMTAuNjY2IDBjLTIuMTkzIDAtNCAxLjgwNy00IDQgMCAyLjE5NSAxLjgwOCA0IDQgNHM0LTEuODA1IDQtNGMwLTIuMTkzLTEuODA3LTQtNC00ek01NiAxMDhjLjc1IDAgMS4zMzQuNTg1IDEuMzM0IDEuMzM0IDAgLjc1My0uNTgzIDEuMzMyLTEuMzM0IDEuMzMyLS43NSAwLTEuMzM0LS41OC0xLjMzNC0xLjMzMiAwLS43NS41ODUtMS4zMzQgMS4zMzQtMS4zMzR6bTEwLjY2NiAwYy43NSAwIDEuMzM0LjU4NSAxLjMzNCAxLjMzNCAwIC43NTMtLjU4MyAxLjMzMi0xLjMzNCAxLjMzMi0uNzUgMC0xLjMzMi0uNTgtMS4zMzItMS4zMzIgMC0uNzUuNTgzLTEuMzM0IDEuMzMyLTEuMzM0eiIgZmlsbD0iIzIwODhmZiIvPjxwYXRoIGQ9Ik0xMDkuMzM0IDkwLjY2NmMtOS4zODMgMC0xNy4xODggNi45OTMtMTguNDc3IDE2LjAzMWEyLjY2NyAyLjY2NyAwIDAgMC0uMjY1LS4wMTFsLTIuNy4wOWEyLjY2NyAyLjY2NyAwIDAgMC0yLjU3OCAyLjc1MSAyLjY2NyAyLjY2NyAwIDAgMCAyLjc1MiAyLjU3OGwyLjctLjA4N2EyLjY2NyAyLjY2NyAwIDAgMCAuMDk3LS4wMDZDOTIuMTcgMTIxLjAyOSA5OS45NjUgMTI4IDEwOS4zMzQgMTI4YzEwLjI3OCAwIDE4LjY2Ni04LjM4OCAxOC42NjYtMTguNjY2cy04LjM4OC0xOC42NjgtMTguNjY2LTE4LjY2OHptMCA1LjMzNGExMy4yOTMgMTMuMjkzIDAgMCAxIDEzLjMzMiAxMy4zMzQgMTMuMjkgMTMuMjkgMCAwIDEtMTMuMzMyIDEzLjMzMkExMy4yOTMgMTMuMjkzIDAgMCAxIDk2IDEwOS4zMzQgMTMuMjk0IDEzLjI5NCAwIDAgMSAxMDkuMzM0IDk2eiIgZmlsbD0iIzc5YjhmZiIvPjwvc3ZnPg==;" vertex="1" parent="1">
          <mxGeometry x="190" y="420" width="50" height="50" as="geometry" />
        </mxCell>
        <mxCell id="TRhWoTdORYvuP8BCEGIG-58" value="" style="shape=flexArrow;endArrow=classic;html=1;rounded=0;" edge="1" parent="1">
          <mxGeometry width="50" height="50" relative="1" as="geometry">
            <mxPoint x="270" y="450" as="sourcePoint" />
            <mxPoint x="1200" y="450" as="targetPoint" />
          </mxGeometry>
        </mxCell>
        <mxCell id="TRhWoTdORYvuP8BCEGIG-59" value="" style="html=1;verticalLabelPosition=bottom;align=center;labelBackgroundColor=#ffffff;verticalAlign=top;strokeWidth=2;strokeColor=#0080F0;shadow=0;dashed=0;shape=mxgraph.ios7.icons.cloud;" vertex="1" parent="1">
          <mxGeometry x="140" y="100" width="40" height="25.74" as="geometry" />
        </mxCell>
        <mxCell id="TRhWoTdORYvuP8BCEGIG-60" value="&lt;font style=&quot;font-size: 11px;&quot;&gt;&lt;b&gt;CI/CD Pipeline&lt;/b&gt;&lt;/font&gt;" style="text;html=1;align=center;verticalAlign=middle;resizable=0;points=[];autosize=1;strokeColor=none;fillColor=none;" vertex="1" parent="1">
          <mxGeometry x="717.4" y="458" width="100" height="30" as="geometry" />
        </mxCell>
      </root>
    </mxGraphModel>
  </diagram>
</mxfile>
